%FSLAX25Y25*%
%MOIN*%
G70*
G01*
G75*
G04 Layer_Color=8388736*
%ADD10C,0.03937*%
%ADD11R,0.25000X0.02992*%
%ADD12R,0.03500X0.05000*%
%ADD13R,0.05910X0.03030*%
%ADD14R,0.11024X0.20276*%
%ADD15R,0.05000X0.03500*%
%ADD16R,0.03000X0.04000*%
%ADD17R,0.03543X0.13583*%
%ADD18C,0.03100*%
%ADD19R,0.04000X0.02854*%
%ADD20R,0.08465X0.02362*%
%ADD21R,0.04724X0.12992*%
%ADD22R,0.11023X0.05000*%
%ADD23R,0.08465X0.09449*%
%ADD24R,0.09449X0.08465*%
%ADD25R,0.08661X0.05000*%
%ADD26R,0.05000X0.08661*%
%ADD27R,0.03030X0.05910*%
%ADD28R,0.08000X0.06000*%
%ADD29R,0.08000X0.15000*%
%ADD30R,0.10236X0.03150*%
%ADD31R,0.06000X0.02500*%
%ADD32C,0.01000*%
%ADD33C,0.01500*%
%ADD34C,0.01181*%
%ADD35C,0.02756*%
%ADD36C,0.01969*%
%ADD37C,0.15748*%
%ADD38C,0.09843*%
%ADD39C,0.11811*%
%ADD40C,0.03937*%
%ADD41C,0.01575*%
%ADD42C,0.02362*%
%ADD43C,0.13780*%
%ADD44C,0.19685*%
%ADD45C,0.12598*%
%ADD46C,0.16000*%
%ADD47C,0.09843*%
%ADD48C,0.11811*%
%ADD49C,0.09055*%
%ADD50C,0.03900*%
%ADD51C,0.16533*%
%ADD52C,0.10000*%
%ADD53C,0.05000*%
%ADD54R,0.16000X0.13000*%
%ADD55R,0.16892X0.02319*%
%ADD56R,0.21000X0.17000*%
%ADD57R,0.31000X0.17000*%
%ADD58R,0.09194X0.12806*%
%ADD59R,0.12000X0.12890*%
%ADD60C,0.00984*%
%ADD61C,0.00787*%
%ADD62C,0.00787*%
D10*
X-119000Y-134000D02*
D03*
X129000Y117000D02*
D03*
D11*
X95606Y-57092D02*
D03*
Y-52091D02*
D03*
X95106Y42089D02*
D03*
Y47091D02*
D03*
X95606Y-67090D02*
D03*
Y-62090D02*
D03*
Y-47091D02*
D03*
Y-42091D02*
D03*
Y-37091D02*
D03*
Y-32091D02*
D03*
X95106Y67090D02*
D03*
Y62090D02*
D03*
Y57091D02*
D03*
Y52091D02*
D03*
Y37091D02*
D03*
Y32091D02*
D03*
D12*
X78500Y48500D02*
D03*
Y40500D02*
D03*
X44000Y61000D02*
D03*
X52000D02*
D03*
X97000Y-104500D02*
D03*
X89000D02*
D03*
X118500Y7500D02*
D03*
X126500D02*
D03*
X26000Y22000D02*
D03*
X18000D02*
D03*
X-3500Y57000D02*
D03*
X4500D02*
D03*
X15000Y66500D02*
D03*
X7000D02*
D03*
X89000Y-96500D02*
D03*
X97000D02*
D03*
X26000Y14000D02*
D03*
X18000D02*
D03*
X26000Y5500D02*
D03*
X18000D02*
D03*
X67500Y-6000D02*
D03*
X75500D02*
D03*
X29000D02*
D03*
X21000D02*
D03*
X118500Y-3500D02*
D03*
X126500D02*
D03*
X70500Y48500D02*
D03*
Y40500D02*
D03*
D13*
X59500Y42000D02*
D03*
Y47000D02*
D03*
Y52000D02*
D03*
Y37000D02*
D03*
X36500D02*
D03*
Y42000D02*
D03*
Y47000D02*
D03*
Y52000D02*
D03*
D14*
X138614Y-82091D02*
D03*
Y-17090D02*
D03*
X138114Y82091D02*
D03*
Y17090D02*
D03*
D15*
X-8000Y102000D02*
D03*
Y94000D02*
D03*
X18500Y42500D02*
D03*
Y34500D02*
D03*
X109000Y-100500D02*
D03*
Y-92500D02*
D03*
X69500Y27000D02*
D03*
Y35000D02*
D03*
Y62000D02*
D03*
Y54000D02*
D03*
X26500Y41500D02*
D03*
Y49500D02*
D03*
X25000Y-38500D02*
D03*
Y-30500D02*
D03*
X-97000Y-26500D02*
D03*
Y-18500D02*
D03*
X-54500Y-27000D02*
D03*
Y-19000D02*
D03*
X-500D02*
D03*
Y-27000D02*
D03*
D16*
X5500Y-82000D02*
D03*
X9250Y-74000D02*
D03*
X1750D02*
D03*
X5500Y-105500D02*
D03*
X9250Y-97500D02*
D03*
X1750D02*
D03*
X-44000Y-27000D02*
D03*
X-40250Y-19000D02*
D03*
X-47750D02*
D03*
D17*
X65500Y-65780D02*
D03*
Y-88220D02*
D03*
X61000Y102220D02*
D03*
Y79780D02*
D03*
D18*
X50000Y-38000D02*
D03*
X45000D02*
D03*
Y-33000D02*
D03*
Y-28000D02*
D03*
X50000Y-33000D02*
D03*
Y-28000D02*
D03*
D19*
X161000Y-109217D02*
D03*
Y-103783D02*
D03*
X161500Y4283D02*
D03*
Y9717D02*
D03*
Y-4283D02*
D03*
Y-9717D02*
D03*
X161000Y-91283D02*
D03*
Y-96717D02*
D03*
D20*
X-32417Y-18000D02*
D03*
Y-28000D02*
D03*
X-9583Y-18000D02*
D03*
Y-28000D02*
D03*
D21*
X21500Y77902D02*
D03*
X1500D02*
D03*
X11500Y103098D02*
D03*
D22*
X-84500Y-16595D02*
D03*
Y-28405D02*
D03*
D23*
X-67000Y-13346D02*
D03*
Y-31654D02*
D03*
X36500Y100654D02*
D03*
Y82346D02*
D03*
D24*
X-37653Y100000D02*
D03*
X-19346D02*
D03*
D25*
X15496Y-42000D02*
D03*
X2504Y-52000D02*
D03*
D03*
D26*
X124000Y-95004D02*
D03*
X134000Y-107996D02*
D03*
D03*
D27*
X10500Y49150D02*
D03*
X5500D02*
D03*
X500D02*
D03*
X-4500D02*
D03*
Y27500D02*
D03*
X500D02*
D03*
X5500D02*
D03*
X10500D02*
D03*
D28*
X44250Y-101560D02*
D03*
Y-92500D02*
D03*
Y-83440D02*
D03*
D29*
X19750Y-92560D02*
D03*
D30*
X38299Y-67500D02*
D03*
X25701D02*
D03*
D31*
X37500Y24000D02*
D03*
Y19000D02*
D03*
Y14000D02*
D03*
Y9000D02*
D03*
Y4000D02*
D03*
Y-1000D02*
D03*
Y-6000D02*
D03*
X58500Y4000D02*
D03*
Y9000D02*
D03*
Y14000D02*
D03*
Y19000D02*
D03*
Y24000D02*
D03*
Y-6000D02*
D03*
Y-1000D02*
D03*
D42*
X543762Y-677252D02*
X550510D01*
X552759Y-676503D01*
X553509Y-675753D01*
X554259Y-674253D01*
Y-672004D01*
X553509Y-670505D01*
X552759Y-669755D01*
X550510Y-669005D01*
X543762D01*
Y-684750D01*
X569778D02*
X563780Y-669005D01*
X557782Y-684750D01*
X560032Y-679502D02*
X567529D01*
X578700Y-669005D02*
Y-684750D01*
X573452Y-669005D02*
X583949D01*
X595570D02*
X585823D01*
Y-684750D01*
X595570D01*
X585823Y-676503D02*
X591821D01*
X622561Y-684750D02*
X616563Y-669005D01*
X610565Y-684750D01*
X612814Y-679502D02*
X620311D01*
X638605Y-669005D02*
Y-684750D01*
Y-669005D02*
X645353D01*
X647602Y-669755D01*
X648352Y-670505D01*
X649101Y-672004D01*
Y-673504D01*
X648352Y-675003D01*
X647602Y-675753D01*
X645353Y-676503D01*
X638605D02*
X645353D01*
X647602Y-677252D01*
X648352Y-678002D01*
X649101Y-679502D01*
Y-681751D01*
X648352Y-683250D01*
X647602Y-684000D01*
X645353Y-684750D01*
X638605D01*
X652625Y-669005D02*
Y-684750D01*
Y-669005D02*
X659373D01*
X661622Y-669755D01*
X662372Y-670505D01*
X663122Y-672004D01*
Y-673504D01*
X662372Y-675003D01*
X661622Y-675753D01*
X659373Y-676503D01*
X652625D01*
X657873D02*
X663122Y-684750D01*
X678641D02*
X672643Y-669005D01*
X666645Y-684750D01*
X668895Y-679502D02*
X676392D01*
X692812Y-671254D02*
X691312Y-669755D01*
X689063Y-669005D01*
X686064D01*
X683815Y-669755D01*
X682315Y-671254D01*
Y-672754D01*
X683065Y-674253D01*
X683815Y-675003D01*
X685314Y-675753D01*
X689813Y-677252D01*
X691312Y-678002D01*
X692062Y-678752D01*
X692812Y-680251D01*
Y-682501D01*
X691312Y-684000D01*
X689063Y-684750D01*
X686064D01*
X683815Y-684000D01*
X682315Y-682501D01*
X706082Y-669005D02*
X696335D01*
Y-684750D01*
X706082D01*
X696335Y-676503D02*
X702333D01*
X708706Y-669005D02*
Y-684750D01*
Y-669005D02*
X715454D01*
X717703Y-669755D01*
X718453Y-670505D01*
X719203Y-672004D01*
Y-673504D01*
X718453Y-675003D01*
X717703Y-675753D01*
X715454Y-676503D01*
X708706D01*
X713954D02*
X719203Y-684750D01*
X740345Y-669005D02*
Y-684750D01*
X735097Y-669005D02*
X745594D01*
X751966D02*
X750467Y-669755D01*
X748968Y-671254D01*
X748218Y-672754D01*
X747468Y-675003D01*
Y-678752D01*
X748218Y-681001D01*
X748968Y-682501D01*
X750467Y-684000D01*
X751966Y-684750D01*
X754965D01*
X756465Y-684000D01*
X757965Y-682501D01*
X758714Y-681001D01*
X759464Y-678752D01*
Y-675003D01*
X758714Y-672754D01*
X757965Y-671254D01*
X756465Y-669755D01*
X754965Y-669005D01*
X751966D01*
X763138Y-677252D02*
X769885D01*
X772135Y-676503D01*
X772884Y-675753D01*
X773634Y-674253D01*
Y-672004D01*
X772884Y-670505D01*
X772135Y-669755D01*
X769885Y-669005D01*
X763138D01*
Y-684750D01*
M02*
