M48
;Layer_Color=9474304
;FILE_FORMAT=2:5
INCH,LZ
;TYPE=PLATED
T1F00S00C0.03000
T2F00S00C0.04000
T3F00S00C0.05500
T4F00S00C0.16500
;TYPE=NON_PLATED
T5F00S00C0.04000
T7F00S00C0.08000
%
T01
X0175949Y0093051
X0191278Y0106335
X01865Y01375
X02115Y0138
X0238127Y0143506
X0253Y01465
X0236583Y0109488
X0226917Y01095
X02465Y007294
X02785Y0231
X02845Y0237522
X02785Y0244
X0284681Y02525
X0295Y02555
X0281Y03225
X0215173Y024753
X0216Y02225
X0215917Y0209551
X02Y02075
X0192992Y0209551
X01825Y01945
X01755Y01915
X0174936Y0229479
X0180854Y0250479
X0199Y0263
X01515Y02615
X0101Y0277
Y02425
X013Y01975
X02095Y01795
X0215934Y0172034
X0251Y0204
X0095Y02345
X0087
X00785
Y02475
X0086Y02535
Y0264
X00785Y02705
Y02835
X0087
X0095
X02055Y0349
X02775Y0344
X0277Y03285
T02
X0250453Y0044051
X0236583Y0103
X0234Y0129
X0244
X0254
X0224
X0203936Y0153
X0193936
X0264Y0129
X0274
X0259417Y0103
X0267382Y0044051
X0244Y03265
X0234
T03
X0065354Y0021929
Y0041929
Y0061929
Y0081929
Y0101929
Y0121929
Y0141929
Y0161929
X0112513Y0165673
Y0118429
X0160543
X0168417Y0142051
X0160543Y0165673
Y0069673
X0168417Y0046051
X0160543Y0022429
X0112513
Y0069673
X02825Y00695
Y00895
X0300004Y0215607
Y0268757
X0300016Y0307469
X0065417Y0299051
Y0319051
Y0279051
Y0259051
Y0239051
Y0339051
Y0359051
X0300016Y0360619
T04
X03035Y0019
X0304Y0139
X0023Y0201
X02215Y03695
T05
X0248917Y0152551
X0244917Y0172551
X0252917
T07
X0238917Y0152551
Y0165051
X0258917
Y0152551
M30
