G04*
G04 #@! TF.GenerationSoftware,Altium Limited,Altium Designer,18.1.6 (161)*
G04*
G04 Layer_Physical_Order=1*
G04 Layer_Color=255*
%FSLAX25Y25*%
%MOIN*%
G70*
G01*
G75*
%ADD11C,0.02362*%
%ADD15C,0.00787*%
%ADD20R,0.03500X0.05000*%
%ADD21R,0.05315X0.07087*%
%ADD22R,0.04000X0.09843*%
%ADD23R,0.02854X0.04000*%
%ADD24R,0.05000X0.03500*%
%ADD25R,0.05000X0.12205*%
%ADD26R,0.12008X0.02362*%
%ADD27R,0.08465X0.02362*%
%ADD28R,0.04000X0.02854*%
%ADD29C,0.03100*%
%ADD30R,0.08000X0.15000*%
%ADD31R,0.08000X0.06000*%
%ADD32R,0.03000X0.04000*%
%ADD33R,0.05910X0.03030*%
%ADD34R,0.06000X0.02500*%
%ADD35R,0.05000X0.11023*%
%ADD36O,0.04000X0.03937*%
%ADD37R,0.08000X0.08000*%
%ADD39O,0.04000X0.25600*%
%ADD40O,0.25600X0.04000*%
%ADD41C,0.27559*%
%ADD42C,0.12598*%
%ADD43C,0.11811*%
%ADD44C,0.08000*%
%ADD45C,0.03900*%
%ADD46C,0.10000*%
%ADD47R,0.10000X0.10000*%
%ADD48C,0.06300*%
%ADD49P,0.06819X8X202.5*%
%ADD50C,0.05000*%
%ADD51C,0.01600*%
%ADD52C,0.02000*%
%ADD53C,0.02756*%
%ADD54C,0.01500*%
%ADD55C,0.02400*%
%ADD56C,0.03000*%
%ADD57C,0.04000*%
%ADD58C,0.13800*%
%ADD59C,0.15748*%
%ADD60C,0.02165*%
%ADD61C,0.02500*%
%ADD62C,0.03150*%
%ADD63R,0.10500X0.19000*%
%ADD64R,0.11000X0.19000*%
%ADD65R,0.28000X0.15500*%
%ADD66R,0.22000X0.24060*%
%ADD67C,0.06000*%
G36*
X320719Y201328D02*
X318898D01*
X318088Y201167D01*
X317402Y200708D01*
X316943Y200022D01*
X316782Y199213D01*
Y191339D01*
X316783Y191335D01*
X316782Y191332D01*
X316864Y190930D01*
X316943Y190529D01*
X316945Y190526D01*
X316946Y190523D01*
X317175Y190183D01*
X317402Y189843D01*
X317405Y189841D01*
X317407Y189838D01*
X317747Y189612D01*
X318088Y189384D01*
X318092Y189384D01*
X318094Y189382D01*
X318496Y189303D01*
X318898Y189223D01*
X318901Y189224D01*
X318905Y189223D01*
X320348Y189228D01*
X320702Y188875D01*
Y2115D01*
X185186D01*
Y3937D01*
X185025Y4747D01*
X184567Y5433D01*
X183880Y5891D01*
X183071Y6052D01*
X139764D01*
X138954Y5891D01*
X138268Y5433D01*
X137809Y4747D01*
X137648Y3937D01*
Y2115D01*
X2115D01*
Y189223D01*
X3937D01*
X4747Y189384D01*
X5433Y189843D01*
X5891Y190529D01*
X6053Y191339D01*
Y199213D01*
X5891Y200022D01*
X5433Y200708D01*
X4747Y201167D01*
X4000Y201315D01*
Y388436D01*
X137648D01*
Y386614D01*
X137809Y385805D01*
X138268Y385118D01*
X138954Y384660D01*
X139764Y384499D01*
X183071D01*
X183880Y384660D01*
X184567Y385118D01*
X185025Y385805D01*
X185186Y386614D01*
Y388436D01*
X320719D01*
Y201328D01*
D02*
G37*
%LPC*%
G36*
X314032Y384574D02*
X313968D01*
X313043Y384452D01*
X312182Y384095D01*
X311441Y383527D01*
X310873Y382787D01*
X310516Y381925D01*
X310395Y381000D01*
X310516Y380075D01*
X310873Y379213D01*
X311441Y378473D01*
X312182Y377905D01*
X313043Y377548D01*
X313968Y377426D01*
X314032D01*
X314956Y377548D01*
X315818Y377905D01*
X316559Y378473D01*
X317127Y379213D01*
X317484Y380075D01*
X317605Y381000D01*
X317484Y381925D01*
X317127Y382787D01*
X316559Y383527D01*
X315818Y384095D01*
X314956Y384452D01*
X314032Y384574D01*
D02*
G37*
G36*
X222000Y384286D02*
Y370000D01*
X236286D01*
X236143Y371819D01*
X235600Y374081D01*
X234709Y376231D01*
X233494Y378214D01*
X231983Y379983D01*
X230214Y381494D01*
X228231Y382709D01*
X226081Y383600D01*
X223819Y384143D01*
X222000Y384286D01*
D02*
G37*
G36*
X221000D02*
X219181Y384143D01*
X216919Y383600D01*
X214770Y382709D01*
X212786Y381494D01*
X211017Y379983D01*
X209506Y378214D01*
X208291Y376231D01*
X207400Y374081D01*
X206857Y371819D01*
X206714Y370000D01*
X221000D01*
Y384286D01*
D02*
G37*
G36*
X300516Y367904D02*
Y361119D01*
X307301D01*
X307209Y362050D01*
X306792Y363426D01*
X306114Y364694D01*
X305202Y365805D01*
X304091Y366717D01*
X302823Y367395D01*
X301447Y367812D01*
X300516Y367904D01*
D02*
G37*
G36*
X299516Y367904D02*
X298585Y367812D01*
X297209Y367395D01*
X295941Y366717D01*
X294830Y365805D01*
X293917Y364694D01*
X293240Y363426D01*
X292822Y362050D01*
X292731Y361119D01*
X299516D01*
Y367904D01*
D02*
G37*
G36*
X236286Y369000D02*
X222000D01*
Y354714D01*
X223819Y354857D01*
X226081Y355400D01*
X228231Y356291D01*
X230214Y357506D01*
X231983Y359017D01*
X233494Y360786D01*
X234709Y362770D01*
X235600Y364919D01*
X236143Y367181D01*
X236286Y369000D01*
D02*
G37*
G36*
X221000D02*
X206714D01*
X206857Y367181D01*
X207400Y364919D01*
X208291Y362770D01*
X209506Y360786D01*
X211017Y359017D01*
X212786Y357506D01*
X214770Y356291D01*
X216919Y355400D01*
X219181Y354857D01*
X221000Y354714D01*
Y369000D01*
D02*
G37*
G36*
X307301Y360119D02*
X300516D01*
Y353334D01*
X301447Y353425D01*
X302823Y353843D01*
X304091Y354520D01*
X305202Y355433D01*
X306114Y356544D01*
X306792Y357812D01*
X307209Y359188D01*
X307301Y360119D01*
D02*
G37*
G36*
X299516D02*
X292731D01*
X292822Y359188D01*
X293240Y357812D01*
X293917Y356544D01*
X294830Y355433D01*
X295941Y354520D01*
X297209Y353843D01*
X298585Y353425D01*
X299516Y353334D01*
Y360119D01*
D02*
G37*
G36*
X133221Y351496D02*
X126071D01*
Y350118D01*
X121575D01*
Y339882D01*
X126071D01*
Y338504D01*
X126347D01*
Y337996D01*
X125571D01*
Y336618D01*
X121075D01*
Y326382D01*
X125571D01*
Y325004D01*
X132720D01*
Y337996D01*
X131944D01*
Y338504D01*
X133221D01*
Y341971D01*
X141925D01*
Y339195D01*
X153075D01*
Y341701D01*
X154675D01*
Y340425D01*
X161325D01*
Y348575D01*
X154675D01*
Y347299D01*
X153075D01*
Y350345D01*
X141925D01*
Y347569D01*
X133221D01*
Y351496D01*
D02*
G37*
G36*
X259000Y351650D02*
X231544D01*
X230611Y351527D01*
X229741Y351167D01*
X228994Y350594D01*
X224450Y346050D01*
X223877Y345303D01*
X223517Y344433D01*
X223394Y343500D01*
Y265000D01*
X223517Y264067D01*
X223877Y263197D01*
X224450Y262450D01*
X232450Y254450D01*
X233197Y253877D01*
X234067Y253517D01*
X235000Y253394D01*
X247576D01*
Y251818D01*
X247699Y250885D01*
X248059Y250015D01*
X248632Y249269D01*
X252269Y245632D01*
X252966Y245097D01*
X252963Y244932D01*
X252825Y244597D01*
X234800D01*
X233531Y245866D01*
X232993Y246279D01*
X232679Y246409D01*
Y248105D01*
X226029D01*
Y239955D01*
Y231955D01*
X232679D01*
Y233651D01*
X232993Y233781D01*
X233531Y234194D01*
X235322Y235985D01*
X258067D01*
X259706Y234346D01*
X260244Y233933D01*
X260558Y233803D01*
Y229426D01*
X261133D01*
Y228682D01*
X268137D01*
Y228182D01*
X268637D01*
Y226001D01*
X275141D01*
Y227940D01*
X275248Y227976D01*
X275641Y228058D01*
X276445Y227441D01*
X277436Y227030D01*
X278500Y226890D01*
X279564Y227030D01*
X280555Y227441D01*
X281406Y228094D01*
X282059Y228945D01*
X282470Y229936D01*
X282610Y231000D01*
X282470Y232064D01*
X282059Y233055D01*
X281997Y233137D01*
X282218Y233585D01*
X283160D01*
X283309Y233605D01*
X283436Y233552D01*
X284500Y233412D01*
X285564Y233552D01*
X286555Y233962D01*
X287406Y234615D01*
X288059Y235467D01*
X288470Y236458D01*
X288610Y237522D01*
X288470Y238585D01*
X288059Y239577D01*
X287406Y240428D01*
X286555Y241081D01*
X285564Y241492D01*
X284500Y241632D01*
X283436Y241492D01*
X282445Y241081D01*
X281594Y240428D01*
X280941Y239577D01*
X280610Y238779D01*
X275716D01*
Y238938D01*
X275141D01*
Y239682D01*
X268137D01*
Y240682D01*
X275141D01*
Y240863D01*
X275443Y241017D01*
X275641Y241058D01*
X276445Y240441D01*
X277436Y240030D01*
X278500Y239890D01*
X279564Y240030D01*
X280555Y240441D01*
X281406Y241094D01*
X282059Y241945D01*
X282470Y242936D01*
X282610Y244000D01*
X282470Y245064D01*
X282059Y246055D01*
X281406Y246906D01*
X280555Y247559D01*
X279564Y247970D01*
X278500Y248110D01*
X277436Y247970D01*
X276445Y247559D01*
X276164Y247344D01*
X275716Y247565D01*
Y249585D01*
X281786D01*
X282626Y248941D01*
X283617Y248530D01*
X284681Y248390D01*
X285745Y248530D01*
X286736Y248941D01*
X287587Y249594D01*
X288240Y250445D01*
X288651Y251436D01*
X288791Y252500D01*
X288651Y253564D01*
X288240Y254555D01*
X287587Y255406D01*
X286736Y256059D01*
X285927Y256394D01*
X286027Y256894D01*
X288507D01*
X291076Y254324D01*
X291441Y253445D01*
X292094Y252594D01*
X292945Y251941D01*
X293936Y251530D01*
X295000Y251390D01*
X296064Y251530D01*
X297055Y251941D01*
X297906Y252594D01*
X298559Y253445D01*
X298970Y254436D01*
X299110Y255500D01*
X298970Y256564D01*
X298559Y257555D01*
X297906Y258406D01*
X297055Y259059D01*
X296176Y259424D01*
X292550Y263050D01*
X291803Y263623D01*
X290933Y263983D01*
X290000Y264106D01*
X281000D01*
X280067Y263983D01*
X279197Y263623D01*
X278450Y263050D01*
X276007Y260606D01*
X251182D01*
X250773Y260552D01*
X250364Y260606D01*
X236493D01*
X230606Y266494D01*
Y322519D01*
X231106Y322765D01*
X231617Y322373D01*
X232767Y321897D01*
X234000Y321734D01*
X235233Y321897D01*
X236383Y322373D01*
X237370Y323130D01*
X238127Y324117D01*
X238603Y325267D01*
X238719Y326147D01*
X238748Y326365D01*
X239252D01*
X239281Y326147D01*
X239397Y325267D01*
X239873Y324117D01*
X239925Y324049D01*
Y309571D01*
X248075D01*
Y311403D01*
X249425D01*
Y310675D01*
X257575D01*
Y317325D01*
X249425D01*
Y316597D01*
X248075D01*
Y324049D01*
X248127Y324117D01*
X248603Y325267D01*
X248766Y326500D01*
X248603Y327733D01*
X248127Y328883D01*
X247370Y329870D01*
X246383Y330627D01*
X245233Y331103D01*
X244000Y331266D01*
X242767Y331103D01*
X241617Y330627D01*
X240630Y329870D01*
X239873Y328883D01*
X239397Y327733D01*
X239281Y326853D01*
X239252Y326635D01*
X238748D01*
X238719Y326853D01*
X238603Y327733D01*
X238127Y328883D01*
X238075Y328951D01*
Y332903D01*
X260500D01*
X260769Y332938D01*
X261145Y332609D01*
Y332544D01*
X268149D01*
Y331544D01*
X261145D01*
Y330800D01*
X260570D01*
Y330641D01*
X253500D01*
X252828Y330553D01*
X252202Y330293D01*
X251664Y329880D01*
X251251Y329343D01*
X250992Y328716D01*
X250903Y328044D01*
Y325325D01*
X249425D01*
Y318675D01*
X257575D01*
Y325325D01*
X258024Y325447D01*
X260570D01*
Y321288D01*
X261145D01*
Y320544D01*
X268149D01*
X275541D01*
X275653Y320604D01*
X276093Y320310D01*
X277000Y320130D01*
X277683D01*
X278094Y319594D01*
X278945Y318941D01*
X279936Y318530D01*
X281000Y318390D01*
X282064Y318530D01*
X283055Y318941D01*
X283906Y319594D01*
X284559Y320445D01*
X284970Y321436D01*
X285042Y321982D01*
X285836Y322777D01*
X286249Y323314D01*
X286508Y323941D01*
X286597Y324613D01*
Y336000D01*
X286508Y336672D01*
X286249Y337298D01*
X285836Y337836D01*
X285298Y338249D01*
X284672Y338509D01*
X284000Y338597D01*
X275728D01*
Y339874D01*
X276143Y340151D01*
X276436Y340030D01*
X277500Y339890D01*
X278564Y340030D01*
X279555Y340441D01*
X280406Y341094D01*
X281059Y341945D01*
X281470Y342936D01*
X281610Y344000D01*
X281470Y345064D01*
X281059Y346055D01*
X280406Y346906D01*
X279555Y347559D01*
X278564Y347970D01*
X277500Y348110D01*
X276436Y347970D01*
X276143Y347849D01*
X275728Y348126D01*
Y350800D01*
X268474D01*
X268149Y350843D01*
X261225D01*
X260803Y351167D01*
X259933Y351527D01*
X259000Y351650D01*
D02*
G37*
G36*
X65917Y345941D02*
Y339551D01*
X72307D01*
X72223Y340405D01*
X71828Y341707D01*
X71187Y342906D01*
X70324Y343958D01*
X69273Y344821D01*
X68073Y345462D01*
X66771Y345857D01*
X65917Y345941D01*
D02*
G37*
G36*
X64917Y345941D02*
X64064Y345857D01*
X62762Y345462D01*
X61562Y344821D01*
X60511Y343958D01*
X59648Y342906D01*
X59007Y341707D01*
X58612Y340405D01*
X58528Y339551D01*
X64917D01*
Y345941D01*
D02*
G37*
G36*
X169325Y348575D02*
X162675D01*
Y340425D01*
X162951D01*
Y335075D01*
X162675D01*
Y327925D01*
X168825D01*
Y335075D01*
X168549D01*
Y340425D01*
X169325D01*
Y341701D01*
X170341D01*
X172021Y340021D01*
X172601Y339576D01*
X173276Y339297D01*
X174000Y339201D01*
X182083D01*
X182408Y339244D01*
X187890D01*
Y344756D01*
X182408D01*
X182083Y344799D01*
X175159D01*
X173479Y346479D01*
X172899Y346924D01*
X172224Y347203D01*
X171500Y347299D01*
X169325D01*
Y348575D01*
D02*
G37*
G36*
X205500Y353110D02*
X204436Y352970D01*
X203445Y352559D01*
X202594Y351906D01*
X201941Y351055D01*
X201530Y350064D01*
X201390Y349000D01*
X201530Y347936D01*
X201941Y346945D01*
X202320Y346450D01*
Y344756D01*
X199110D01*
Y339244D01*
X209083D01*
X209164Y339164D01*
X209701Y338751D01*
X210328Y338492D01*
X210925Y338413D01*
Y337675D01*
X219075D01*
Y344325D01*
X211116D01*
X210724Y344487D01*
Y344756D01*
X207514D01*
Y345424D01*
X207555Y345441D01*
X208406Y346094D01*
X209059Y346945D01*
X209470Y347936D01*
X209610Y349000D01*
X209470Y350064D01*
X209059Y351055D01*
X208406Y351906D01*
X207555Y352559D01*
X206564Y352970D01*
X205500Y353110D01*
D02*
G37*
G36*
X218500Y335750D02*
X215500D01*
Y333500D01*
X218500D01*
Y335750D01*
D02*
G37*
G36*
X214500D02*
X211500D01*
Y333500D01*
X214500D01*
Y335750D01*
D02*
G37*
G36*
X210150Y334181D02*
X205417D01*
Y332500D01*
X210150D01*
Y334181D01*
D02*
G37*
G36*
X204417D02*
X199685D01*
Y332500D01*
X204417D01*
Y334181D01*
D02*
G37*
G36*
X72307Y338551D02*
X65917D01*
Y332162D01*
X66771Y332246D01*
X68073Y332641D01*
X69273Y333282D01*
X70324Y334145D01*
X71187Y335196D01*
X71828Y336396D01*
X72223Y337698D01*
X72307Y338551D01*
D02*
G37*
G36*
X64917D02*
X58528D01*
X58612Y337698D01*
X59007Y336396D01*
X59648Y335196D01*
X60511Y334145D01*
X61562Y333282D01*
X62762Y332641D01*
X64064Y332246D01*
X64917Y332162D01*
Y338551D01*
D02*
G37*
G36*
X218500Y332500D02*
X215500D01*
Y330250D01*
X218500D01*
Y332500D01*
D02*
G37*
G36*
X214500D02*
X211500D01*
Y330250D01*
X214500D01*
Y332500D01*
D02*
G37*
G36*
X210150Y331500D02*
X205417D01*
Y329819D01*
X210150D01*
Y331500D01*
D02*
G37*
G36*
X204417D02*
X199685D01*
Y329819D01*
X204417D01*
Y331500D01*
D02*
G37*
G36*
X65417Y366568D02*
X63951Y366423D01*
X62541Y365996D01*
X61242Y365301D01*
X60102Y364366D01*
X59168Y363227D01*
X58473Y361928D01*
X58045Y360518D01*
X57901Y359051D01*
X58045Y357585D01*
X58473Y356175D01*
X59168Y354875D01*
X60102Y353736D01*
X61242Y352802D01*
X62541Y352107D01*
X63951Y351679D01*
X65417Y351535D01*
X66884Y351679D01*
X68294Y352107D01*
X69593Y352802D01*
X70732Y353736D01*
X71667Y354875D01*
X71944Y355394D01*
X78007D01*
X83520Y349881D01*
Y338414D01*
X83989D01*
Y336618D01*
X83461D01*
Y326382D01*
X91925D01*
Y336618D01*
X91201D01*
Y337222D01*
X91323Y338151D01*
Y338414D01*
X91670D01*
Y352587D01*
X90839D01*
X90267Y353332D01*
X82050Y361550D01*
X81303Y362123D01*
X80433Y362483D01*
X79500Y362606D01*
X71999D01*
X71667Y363227D01*
X70732Y364366D01*
X69593Y365301D01*
X68294Y365996D01*
X66884Y366423D01*
X65417Y366568D01*
D02*
G37*
G36*
X103480Y352587D02*
X95330D01*
Y338414D01*
X96228D01*
Y338029D01*
X96337Y337207D01*
X96351Y337173D01*
Y336618D01*
X95075D01*
Y326382D01*
X103539D01*
Y334975D01*
X106280D01*
Y325004D01*
X113429D01*
Y326382D01*
X117925D01*
Y336618D01*
X113531D01*
Y338504D01*
X113929D01*
Y339882D01*
X118425D01*
Y350118D01*
X113929D01*
Y351496D01*
X106780D01*
Y341328D01*
X103480D01*
Y352587D01*
D02*
G37*
G36*
X176325Y335075D02*
X170175D01*
Y331701D01*
X170149Y331500D01*
Y328535D01*
X168689Y327075D01*
X166425D01*
Y324811D01*
X162215Y320601D01*
X150606D01*
Y322655D01*
X153075D01*
Y333805D01*
X141925D01*
Y322655D01*
X143394D01*
Y317500D01*
Y314994D01*
X138506Y310106D01*
X85493D01*
X73998Y321601D01*
X73349Y322099D01*
X73285Y322310D01*
X72498Y323782D01*
X71439Y325073D01*
X70148Y326132D01*
X68676Y326919D01*
X67079Y327403D01*
X65417Y327567D01*
X45551D01*
X43890Y327403D01*
X42292Y326919D01*
X40820Y326132D01*
X39530Y325073D01*
X28978Y314522D01*
X27919Y313231D01*
X27132Y311759D01*
X26648Y310161D01*
X26484Y308500D01*
Y252000D01*
X26648Y250339D01*
X27132Y248741D01*
X27919Y247269D01*
X28978Y245978D01*
X41927Y233030D01*
X43218Y231971D01*
X44690Y231184D01*
X46287Y230699D01*
X47949Y230536D01*
X47949Y230536D01*
X56902D01*
Y198945D01*
X37978Y180022D01*
X36919Y178731D01*
X36132Y177259D01*
X35648Y175661D01*
X35484Y174000D01*
Y149500D01*
X35648Y147839D01*
X36132Y146241D01*
X36919Y144769D01*
X37978Y143478D01*
X45549Y135908D01*
X46840Y134848D01*
X48312Y134062D01*
X49909Y133577D01*
X51571Y133413D01*
X99455D01*
X99625Y132913D01*
X99150Y132550D01*
X98577Y131803D01*
X98217Y130933D01*
X98094Y130000D01*
X98217Y129067D01*
X98577Y128197D01*
X99150Y127450D01*
X99192Y127419D01*
X99031Y126945D01*
X88445D01*
X87439Y127951D01*
X86149Y129010D01*
X84676Y129797D01*
X83079Y130281D01*
X81418Y130445D01*
X65354D01*
X63693Y130281D01*
X62096Y129797D01*
X60623Y129010D01*
X59333Y127951D01*
X58274Y126660D01*
X57487Y125188D01*
X57002Y123591D01*
X56839Y121929D01*
X57002Y120268D01*
X57487Y118670D01*
X58274Y117198D01*
X59333Y115908D01*
X60623Y114848D01*
X62096Y114062D01*
X63693Y113577D01*
X65354Y113413D01*
X77890D01*
X78896Y112408D01*
X78896Y112408D01*
X80186Y111349D01*
X81659Y110562D01*
X83256Y110077D01*
X84917Y109914D01*
X112513D01*
X114175Y110077D01*
X115772Y110562D01*
X117245Y111349D01*
X118535Y112408D01*
X119594Y113698D01*
X120381Y115171D01*
X120866Y116768D01*
X121029Y118429D01*
X120866Y120091D01*
X120381Y121688D01*
X119594Y123161D01*
X118535Y124451D01*
X117245Y125510D01*
X116525Y125894D01*
X116651Y126394D01*
X123300D01*
X124233Y126517D01*
X125103Y126877D01*
X125850Y127450D01*
X126423Y128197D01*
X126783Y129067D01*
X126906Y130000D01*
X126783Y130933D01*
X126423Y131803D01*
X125850Y132550D01*
X125375Y132913D01*
X125545Y133413D01*
X147455D01*
X147625Y132913D01*
X147150Y132550D01*
X146577Y131803D01*
X146217Y130933D01*
X146094Y130000D01*
X146217Y129067D01*
X146577Y128197D01*
X147150Y127450D01*
X147897Y126877D01*
X148767Y126517D01*
X149700Y126394D01*
X171300D01*
X172233Y126517D01*
X173103Y126877D01*
X173850Y127450D01*
X174423Y128197D01*
X174783Y129067D01*
X174906Y130000D01*
X174783Y130933D01*
X174423Y131803D01*
X173850Y132550D01*
X173103Y133123D01*
X172233Y133483D01*
X171715Y133551D01*
X171674Y134061D01*
X171676Y134062D01*
X173149Y134848D01*
X174439Y135908D01*
X175498Y137198D01*
X175894Y137940D01*
X176394Y137814D01*
Y131200D01*
X176517Y130267D01*
X176877Y129397D01*
X177450Y128650D01*
X178197Y128077D01*
X179067Y127717D01*
X180000Y127594D01*
X180933Y127717D01*
X181803Y128077D01*
X182550Y128650D01*
X183123Y129397D01*
X183483Y130267D01*
X183606Y131200D01*
Y134019D01*
X184054Y134241D01*
X184445Y133941D01*
X185436Y133530D01*
X186500Y133390D01*
X187564Y133530D01*
X188555Y133941D01*
X189406Y134594D01*
X190059Y135445D01*
X190470Y136436D01*
X190610Y137500D01*
X190470Y138564D01*
X190059Y139555D01*
X189406Y140406D01*
X189299Y140489D01*
Y150543D01*
X189799Y150642D01*
X189809Y150617D01*
X190567Y149630D01*
X191553Y148873D01*
X192703Y148397D01*
X193936Y148234D01*
X195170Y148397D01*
X196319Y148873D01*
X197306Y149630D01*
X198063Y150617D01*
X198539Y151767D01*
X198702Y153000D01*
X198539Y154233D01*
X198063Y155383D01*
X198011Y155451D01*
Y165163D01*
X198473Y165354D01*
X208903Y154924D01*
Y141143D01*
X208594Y140906D01*
X207941Y140055D01*
X207936Y140044D01*
X207436Y140144D01*
Y143248D01*
X204436D01*
Y136646D01*
X207436D01*
X207793Y136301D01*
X207941Y135945D01*
X208594Y135094D01*
X209445Y134441D01*
X210436Y134030D01*
X211500Y133890D01*
X212564Y134030D01*
X213555Y134441D01*
X214406Y135094D01*
X214647Y135408D01*
X215147Y135238D01*
Y116000D01*
X215236Y115328D01*
X215495Y114701D01*
X215908Y114164D01*
X216446Y113751D01*
X217072Y113491D01*
X217744Y113403D01*
X224489D01*
X224659Y112903D01*
X224011Y112406D01*
X223358Y111555D01*
X222948Y110564D01*
X222808Y109500D01*
X222948Y108436D01*
X223270Y107658D01*
X223328Y107517D01*
X223328Y107517D01*
X223358Y107445D01*
X223517Y107237D01*
X223593Y106781D01*
Y98977D01*
Y92477D01*
X229742D01*
Y98977D01*
X230242D01*
Y107126D01*
X230242Y107126D01*
X230242D01*
X230395Y107334D01*
X230477Y107445D01*
X230503Y107508D01*
X230887Y108436D01*
X231027Y109500D01*
X230887Y110564D01*
X230477Y111555D01*
X229824Y112406D01*
X229176Y112903D01*
X229346Y113403D01*
X235673D01*
X235706Y112903D01*
X235669Y112898D01*
X234818Y112545D01*
X234086Y111984D01*
X233525Y111253D01*
X233173Y110402D01*
X233118Y109988D01*
X240047D01*
X239992Y110402D01*
X239640Y111253D01*
X239079Y111984D01*
X238348Y112545D01*
X237496Y112898D01*
X237459Y112903D01*
X237492Y113403D01*
X244903D01*
Y98255D01*
X242245Y95597D01*
X235000D01*
X234328Y95508D01*
X233701Y95249D01*
X233164Y94836D01*
X226454Y88127D01*
X225992Y88318D01*
Y91626D01*
X219843D01*
Y90648D01*
X214492D01*
Y91376D01*
X206343D01*
Y90850D01*
X205264D01*
Y92477D01*
X205742D01*
Y96581D01*
X206455Y97294D01*
X206917Y97103D01*
Y96551D01*
X209917D01*
Y98801D01*
X208616D01*
X208424Y99263D01*
X209254Y100093D01*
X209666Y100631D01*
X209926Y101257D01*
X209988Y101727D01*
X211492D01*
Y108376D01*
X203343D01*
Y101727D01*
X203343Y101727D01*
X203343D01*
X203130Y101315D01*
X201442Y99626D01*
X199593D01*
Y92477D01*
X200070D01*
Y91626D01*
X195843D01*
Y90850D01*
X192081D01*
X166736Y116195D01*
X167023Y117140D01*
X167150Y118429D01*
X167023Y119718D01*
X166647Y120958D01*
X166037Y122100D01*
X165215Y123101D01*
X164214Y123923D01*
X163072Y124533D01*
X161832Y124909D01*
X160543Y125036D01*
X159255Y124909D01*
X158015Y124533D01*
X156873Y123923D01*
X155872Y123101D01*
X155050Y122100D01*
X154440Y120958D01*
X154064Y119718D01*
X153937Y118429D01*
X154064Y117140D01*
X154440Y115901D01*
X155050Y114759D01*
X155872Y113758D01*
X156873Y112936D01*
X158015Y112326D01*
X159255Y111950D01*
X160543Y111823D01*
X161832Y111950D01*
X162778Y112237D01*
X177763Y97251D01*
X177480Y96828D01*
X177012Y97021D01*
X175949Y97161D01*
X174885Y97021D01*
X173894Y96611D01*
X173042Y95958D01*
X172805Y95648D01*
X141242D01*
Y97126D01*
X134593D01*
Y88977D01*
X141242D01*
Y90454D01*
X172805D01*
X173042Y90145D01*
X173894Y89492D01*
X174885Y89081D01*
X175949Y88941D01*
X177012Y89081D01*
X178004Y89492D01*
X178855Y90145D01*
X179508Y90996D01*
X179919Y91988D01*
X180059Y93051D01*
X179919Y94115D01*
X179725Y94583D01*
X180149Y94866D01*
X188942Y86072D01*
X189522Y85628D01*
X190197Y85348D01*
X190921Y85253D01*
X195843D01*
Y84477D01*
X201992D01*
Y85253D01*
X206343D01*
Y84727D01*
X214492D01*
Y85454D01*
X219843D01*
Y84477D01*
X222151D01*
X222342Y84015D01*
X220664Y82336D01*
X220251Y81798D01*
X219991Y81172D01*
X219903Y80500D01*
Y57969D01*
X219958Y57551D01*
X219600Y57051D01*
X219417D01*
Y54051D01*
X221667D01*
Y54475D01*
X222129Y54667D01*
X223593Y53203D01*
Y49477D01*
Y42977D01*
X229742D01*
Y49123D01*
X229796Y49177D01*
X230340Y49019D01*
X230343Y49016D01*
Y43766D01*
X230419D01*
X230917Y43762D01*
X230917Y43266D01*
Y41835D01*
X233917D01*
X236917D01*
X236917Y43762D01*
X237416Y43766D01*
X237492D01*
Y44372D01*
X237843Y44727D01*
X245992D01*
Y51376D01*
X237843D01*
Y50850D01*
X235201D01*
X234476Y50755D01*
X233801Y50475D01*
X233222Y50030D01*
X232961Y49770D01*
X230742D01*
X230343Y49770D01*
X230303Y49951D01*
X230242Y50228D01*
Y56394D01*
X246522D01*
Y45004D01*
X246600Y44410D01*
X245566Y43376D01*
X237843D01*
Y36727D01*
X245992D01*
Y37073D01*
X246453D01*
X247224Y37175D01*
X247942Y37472D01*
X248559Y37945D01*
X251151Y40538D01*
X251386Y40569D01*
X252256Y40929D01*
X253002Y41502D01*
X253575Y42248D01*
X253936Y43118D01*
X254059Y44051D01*
X253936Y44985D01*
X253575Y45854D01*
X253002Y46601D01*
X252478Y47003D01*
Y57378D01*
X252483Y57385D01*
X252606Y58000D01*
Y68394D01*
X253093Y68425D01*
X253106Y68425D01*
X253632D01*
X253667Y67940D01*
X253667Y67925D01*
Y64440D01*
X258667D01*
X263667D01*
Y67925D01*
X263667Y67940D01*
X263703Y68425D01*
X264242D01*
Y77485D01*
Y86635D01*
X264715Y86701D01*
X275532D01*
X275556Y86624D01*
X276250Y85324D01*
X277185Y84185D01*
X278324Y83250D01*
X279624Y82556D01*
X281034Y82128D01*
X282500Y81984D01*
X283966Y82128D01*
X285376Y82556D01*
X286676Y83250D01*
X287815Y84185D01*
X288750Y85324D01*
X289444Y86624D01*
X289872Y88034D01*
X290017Y89500D01*
X289872Y90966D01*
X289444Y92376D01*
X288750Y93676D01*
X287815Y94815D01*
X286676Y95750D01*
X285376Y96444D01*
X283966Y96872D01*
X282500Y97017D01*
X281034Y96872D01*
X279624Y96444D01*
X278324Y95750D01*
X277185Y94815D01*
X276250Y93676D01*
X275556Y92376D01*
X275532Y92299D01*
X262216D01*
Y100775D01*
X262540Y101197D01*
X262900Y102067D01*
X263023Y103000D01*
X262900Y103933D01*
X262540Y104803D01*
X261967Y105550D01*
X261220Y106123D01*
X260350Y106483D01*
X259417Y106606D01*
X258484Y106483D01*
X257614Y106123D01*
X256868Y105550D01*
X256295Y104803D01*
X255935Y103933D01*
X255812Y103000D01*
X255935Y102067D01*
X256295Y101197D01*
X256619Y100775D01*
Y90000D01*
Y86635D01*
X253093D01*
Y82175D01*
X252593Y82126D01*
X252483Y82674D01*
X252135Y83195D01*
X251614Y83543D01*
X251000Y83666D01*
X229992D01*
X229800Y84128D01*
X236076Y90403D01*
X243321D01*
X243993Y90491D01*
X244619Y90751D01*
X245157Y91164D01*
X249336Y95343D01*
X249749Y95881D01*
X250009Y96507D01*
X250097Y97179D01*
Y116000D01*
X250009Y116672D01*
X249749Y117298D01*
X249336Y117836D01*
X248798Y118249D01*
X248172Y118509D01*
X247500Y118597D01*
X220341D01*
Y125222D01*
X220841Y125468D01*
X221617Y124873D01*
X222767Y124397D01*
X224000Y124234D01*
X225233Y124397D01*
X226383Y124873D01*
X227370Y125630D01*
X228127Y126617D01*
X228603Y127767D01*
X228719Y128647D01*
X228748Y128865D01*
X229252D01*
X229281Y128647D01*
X229397Y127767D01*
X229873Y126617D01*
X230630Y125630D01*
X231617Y124873D01*
X232767Y124397D01*
X234000Y124234D01*
X235233Y124397D01*
X236383Y124873D01*
X237370Y125630D01*
X238127Y126617D01*
X238603Y127767D01*
X238719Y128647D01*
X238748Y128865D01*
X239252D01*
X239281Y128647D01*
X239397Y127767D01*
X239873Y126617D01*
X240630Y125630D01*
X241617Y124873D01*
X242767Y124397D01*
X244000Y124234D01*
X245233Y124397D01*
X246383Y124873D01*
X247370Y125630D01*
X248127Y126617D01*
X248603Y127767D01*
X248766Y129000D01*
X248603Y130233D01*
X248190Y131231D01*
X248432Y131731D01*
X250299D01*
X250520Y131282D01*
X250375Y131093D01*
X249957Y130083D01*
X249880Y129500D01*
X254000D01*
X258120D01*
X258043Y130083D01*
X257625Y131093D01*
X257480Y131282D01*
X257701Y131731D01*
X259568D01*
X259810Y131231D01*
X259397Y130233D01*
X259234Y129000D01*
X259397Y127767D01*
X259873Y126617D01*
X260630Y125630D01*
X261617Y124873D01*
X262767Y124397D01*
X264000Y124234D01*
X265233Y124397D01*
X266383Y124873D01*
X267370Y125630D01*
X268127Y126617D01*
X268603Y127767D01*
X268766Y129000D01*
X268603Y130233D01*
X268127Y131383D01*
X267370Y132370D01*
X266978Y132670D01*
Y132917D01*
X266877Y133688D01*
X266579Y134406D01*
X266106Y135023D01*
X264314Y136815D01*
X263697Y137288D01*
X262979Y137586D01*
X262208Y137687D01*
X255750D01*
Y139500D01*
X253000D01*
Y140500D01*
X255750D01*
Y143474D01*
X255906Y143594D01*
X256559Y144445D01*
X256970Y145436D01*
X257110Y146500D01*
X257069Y146814D01*
X257534Y147111D01*
X258917Y146929D01*
X260373Y147120D01*
X261729Y147682D01*
X262893Y148575D01*
X263787Y149740D01*
X264349Y151096D01*
X264540Y152551D01*
X264349Y154007D01*
X263787Y155363D01*
X262893Y156527D01*
X261729Y157421D01*
X260373Y157983D01*
X258917Y158174D01*
X257462Y157983D01*
X256106Y157421D01*
X254941Y156527D01*
X254888Y156457D01*
X254451Y156710D01*
X254462Y156736D01*
X254569Y157551D01*
X254462Y158367D01*
X254147Y159127D01*
X253646Y159780D01*
X253233Y160097D01*
X253230Y160696D01*
X253256Y160713D01*
X253819Y161556D01*
X253845Y161683D01*
X254379Y161808D01*
X254941Y161075D01*
X256106Y160182D01*
X257462Y159620D01*
X258917Y159429D01*
X260373Y159620D01*
X261729Y160182D01*
X262893Y161075D01*
X263787Y162240D01*
X264349Y163596D01*
X264540Y165051D01*
X264349Y166507D01*
X263787Y167863D01*
X262893Y169027D01*
X261729Y169921D01*
X260373Y170483D01*
X258917Y170674D01*
X257462Y170483D01*
X256106Y169921D01*
X255934Y169789D01*
X255577Y170145D01*
X256040Y170749D01*
X256400Y171618D01*
X256523Y172551D01*
X256400Y173485D01*
X256040Y174354D01*
X255467Y175101D01*
X254720Y175674D01*
X254167Y175903D01*
X254267Y176403D01*
X273500D01*
X274172Y176491D01*
X274798Y176751D01*
X275336Y177164D01*
X275749Y177701D01*
X276009Y178328D01*
X276097Y179000D01*
Y210500D01*
X276009Y211172D01*
X275749Y211799D01*
X275336Y212336D01*
X273336Y214336D01*
X272798Y214749D01*
X272172Y215008D01*
X271500Y215097D01*
X246500D01*
X245828Y215008D01*
X245201Y214749D01*
X244664Y214336D01*
X237476Y207148D01*
X219782D01*
X219540Y207648D01*
X219887Y208488D01*
X220027Y209551D01*
X219887Y210615D01*
X219477Y211606D01*
X218824Y212457D01*
X217972Y213111D01*
X216981Y213521D01*
X215917Y213661D01*
X214854Y213521D01*
X213917Y213134D01*
X213509Y213285D01*
X213417Y213330D01*
Y214051D01*
X209417D01*
X205417D01*
Y212376D01*
X204843D01*
Y206727D01*
Y204983D01*
X204381Y204792D01*
X203609Y205564D01*
X203970Y206436D01*
X204110Y207500D01*
X203970Y208564D01*
X203559Y209555D01*
X202906Y210406D01*
X202055Y211059D01*
X201064Y211470D01*
X200000Y211610D01*
X198936Y211470D01*
X197945Y211059D01*
X197456Y210684D01*
X197384Y210674D01*
X196862Y210858D01*
X196552Y211606D01*
X195898Y212457D01*
X195047Y213111D01*
X194056Y213521D01*
X192992Y213661D01*
Y217376D01*
X183843D01*
Y217350D01*
X182917D01*
X182193Y217255D01*
X181518Y216975D01*
X180938Y216530D01*
X180758Y216350D01*
X180242D01*
Y217524D01*
X182740Y220022D01*
X212765D01*
X213094Y219594D01*
X213945Y218941D01*
X214936Y218530D01*
X216000Y218390D01*
X217064Y218530D01*
X217538Y218727D01*
X225492D01*
Y225376D01*
X218929D01*
X218906Y225406D01*
X218055Y226059D01*
X217921Y226115D01*
X217716Y226554D01*
X217751Y226727D01*
X217781Y226727D01*
X225492D01*
Y233376D01*
X224678D01*
Y239955D01*
Y246705D01*
X225429D01*
Y253355D01*
X217279D01*
Y251609D01*
X216779Y251275D01*
X216236Y251500D01*
X215173Y251640D01*
X214109Y251500D01*
X213748Y251350D01*
X213332Y251628D01*
Y254530D01*
X213332Y254530D01*
X213230Y255301D01*
X212933Y256019D01*
X212460Y256636D01*
X212459Y256636D01*
X210460Y258636D01*
X209843Y259109D01*
X209124Y259407D01*
X208354Y259508D01*
X206178D01*
Y260605D01*
X202872D01*
X202625Y261105D01*
X202970Y261936D01*
X203110Y263000D01*
X202970Y264064D01*
X202559Y265055D01*
X201906Y265906D01*
X201055Y266559D01*
X200064Y266970D01*
X199000Y267110D01*
X197936Y266970D01*
X196945Y266559D01*
X196094Y265906D01*
X195857Y265597D01*
X176173D01*
X175500Y265509D01*
X174874Y265249D01*
X174336Y264836D01*
X173924Y264299D01*
X173664Y263672D01*
X173575Y263000D01*
Y247355D01*
X173279D01*
Y240705D01*
X180220D01*
X180375Y240551D01*
X180954Y240106D01*
X181629Y239827D01*
X182354Y239731D01*
X182906D01*
Y235105D01*
X182509D01*
X181836Y235017D01*
X181354Y234817D01*
X180854Y235055D01*
Y235530D01*
X177354D01*
X173854D01*
Y233441D01*
X172881Y233038D01*
X172030Y232385D01*
X171377Y231534D01*
X170966Y230542D01*
X170826Y229479D01*
X170966Y228415D01*
X171377Y227424D01*
X172030Y226572D01*
X172881Y225919D01*
X173872Y225509D01*
X174936Y225369D01*
X176000Y225509D01*
X176991Y225919D01*
X177842Y226572D01*
X178080Y226882D01*
X179479D01*
X180151Y226970D01*
X180777Y227230D01*
X181315Y227642D01*
X183062Y229389D01*
X191966D01*
Y234389D01*
Y239389D01*
Y244389D01*
Y250569D01*
X184952D01*
X184824Y251542D01*
X184413Y252534D01*
X183760Y253385D01*
X182909Y254038D01*
X181917Y254449D01*
X180854Y254589D01*
X179790Y254449D01*
X179270Y254233D01*
X178770Y254567D01*
Y260403D01*
X191797D01*
X192104Y260030D01*
Y257030D01*
X194854D01*
X197604D01*
Y258689D01*
X198104Y259008D01*
X199000Y258890D01*
X199153Y258910D01*
X199529Y258580D01*
Y252455D01*
X206178D01*
Y253552D01*
X207120D01*
X207375Y253296D01*
Y250569D01*
X205906D01*
Y244389D01*
Y239389D01*
Y234389D01*
X206481D01*
Y232979D01*
X214391D01*
Y234389D01*
X214966D01*
Y234933D01*
X216437D01*
X217177Y234194D01*
X217590Y233876D01*
X217441Y233376D01*
X217343D01*
Y226948D01*
X217343Y226948D01*
X217343Y226896D01*
X217259Y226768D01*
X217247Y226757D01*
X216942Y226486D01*
X216000Y226610D01*
X214936Y226470D01*
X213945Y226059D01*
X213839Y225978D01*
X181507D01*
X181506Y225978D01*
X181121Y225927D01*
X180736Y225877D01*
X180017Y225579D01*
X179401Y225106D01*
X174811Y220517D01*
X174338Y219900D01*
X174041Y219182D01*
X173939Y218411D01*
Y217626D01*
X173593D01*
Y213899D01*
X172129Y212436D01*
X171667Y212627D01*
Y213051D01*
X166167D01*
Y210126D01*
X165593D01*
Y201977D01*
Y193977D01*
X165939D01*
Y188626D01*
X165675D01*
Y180477D01*
X166201D01*
Y179700D01*
X166297Y178976D01*
X166576Y178301D01*
X167021Y177721D01*
X169021Y175721D01*
X169601Y175276D01*
X170276Y174997D01*
X171000Y174901D01*
X177441D01*
X183701Y168641D01*
Y154512D01*
X183201Y154413D01*
X183123Y154603D01*
X182550Y155350D01*
X181803Y155923D01*
X180933Y156283D01*
X180000Y156406D01*
X179067Y156283D01*
X178197Y155923D01*
X177450Y155350D01*
X176877Y154603D01*
X176517Y153733D01*
X176394Y152800D01*
Y146044D01*
X175894Y145919D01*
X175498Y146660D01*
X174439Y147951D01*
X173149Y149010D01*
X171676Y149797D01*
X171537Y149839D01*
X171512Y149918D01*
X171866Y150469D01*
X172233Y150517D01*
X173103Y150877D01*
X173850Y151450D01*
X174423Y152197D01*
X174783Y153067D01*
X174906Y154000D01*
X174783Y154933D01*
X174423Y155803D01*
X173850Y156550D01*
X173103Y157123D01*
X172233Y157483D01*
X171300Y157606D01*
X149700D01*
X148767Y157483D01*
X147897Y157123D01*
X147150Y156550D01*
X146577Y155803D01*
X146217Y154933D01*
X146094Y154000D01*
X146217Y153067D01*
X146577Y152197D01*
X147150Y151450D01*
X147809Y150945D01*
X147750Y150590D01*
X147676Y150445D01*
X125324D01*
X125250Y150590D01*
X125191Y150945D01*
X125850Y151450D01*
X126423Y152197D01*
X126783Y153067D01*
X126906Y154000D01*
X126783Y154933D01*
X126423Y155803D01*
X125850Y156550D01*
X125103Y157123D01*
X124233Y157483D01*
X123300Y157606D01*
X116458D01*
X116333Y158106D01*
X117245Y158593D01*
X118535Y159652D01*
X119594Y160942D01*
X120381Y162415D01*
X120866Y164012D01*
X121029Y165673D01*
X120866Y167335D01*
X120381Y168932D01*
X119594Y170405D01*
X118535Y171695D01*
X117245Y172754D01*
X115772Y173541D01*
X114175Y174025D01*
X112513Y174189D01*
X69099D01*
X69099Y174189D01*
X67437Y174025D01*
X65840Y173541D01*
X64368Y172754D01*
X63077Y171695D01*
X59886Y168504D01*
X58780D01*
Y167277D01*
X58274Y166660D01*
X57487Y165188D01*
X57002Y163591D01*
X56839Y161929D01*
X57002Y160268D01*
X57487Y158670D01*
X58274Y157198D01*
X58780Y156582D01*
Y155354D01*
X60007D01*
X60623Y154849D01*
X62096Y154062D01*
X63693Y153577D01*
X65354Y153413D01*
X67016Y153577D01*
X68613Y154062D01*
X70086Y154849D01*
X70702Y155354D01*
X71929D01*
Y156461D01*
X72626Y157158D01*
X99121D01*
X99291Y156658D01*
X99150Y156550D01*
X98577Y155803D01*
X98217Y154933D01*
X98094Y154000D01*
X98217Y153067D01*
X98577Y152197D01*
X99150Y151450D01*
X99809Y150945D01*
X99750Y150590D01*
X99676Y150445D01*
X55098D01*
X52516Y153027D01*
Y170473D01*
X71439Y189396D01*
X72498Y190686D01*
X73285Y192158D01*
X73770Y193756D01*
X73933Y195417D01*
Y229557D01*
X97000D01*
X98852Y229739D01*
X100633Y230280D01*
X102275Y231157D01*
X103714Y232338D01*
X104894Y233776D01*
X105772Y235418D01*
X106273Y237071D01*
X106483Y237386D01*
X106606Y238000D01*
X106606Y238000D01*
Y240398D01*
X106606Y240398D01*
Y244602D01*
X106606Y244602D01*
Y245930D01*
X107106Y246100D01*
X107450Y245650D01*
X108197Y245077D01*
X109067Y244717D01*
X110000Y244594D01*
X110933Y244717D01*
X111803Y245077D01*
X112550Y245650D01*
X113123Y246397D01*
X113483Y247267D01*
X113606Y248200D01*
Y269800D01*
X113483Y270733D01*
X113123Y271603D01*
X112550Y272350D01*
X111803Y272923D01*
X110933Y273283D01*
X110000Y273406D01*
X109067Y273283D01*
X108197Y272923D01*
X107450Y272350D01*
X107106Y271900D01*
X106606Y272070D01*
Y278149D01*
X106694Y279051D01*
X106606Y279954D01*
Y280500D01*
X106606Y280500D01*
X106483Y281115D01*
X106419Y281211D01*
X105972Y282685D01*
X105094Y284326D01*
X103914Y285765D01*
X102475Y286946D01*
X100833Y287823D01*
X99462Y288239D01*
X99150Y288448D01*
X98536Y288570D01*
X98536Y288570D01*
X97834D01*
X97781Y288560D01*
X97729Y288566D01*
X97530Y288513D01*
X97200Y288546D01*
X93300D01*
X93000Y288606D01*
X65000D01*
X64385Y288483D01*
X64317Y288438D01*
X63565Y288364D01*
X61784Y287823D01*
X60142Y286946D01*
X58704Y285765D01*
X57523Y284326D01*
X56646Y282685D01*
X56105Y280904D01*
X55923Y279051D01*
X56105Y277199D01*
X56646Y275418D01*
X57523Y273777D01*
X58704Y272338D01*
X60142Y271157D01*
X61784Y270280D01*
X63565Y269739D01*
X65417Y269557D01*
X71383D01*
X72672Y268452D01*
X79551Y261573D01*
X79786Y261286D01*
X80073Y261051D01*
X80112Y261012D01*
X81551Y259831D01*
X82688Y259223D01*
X82695Y259206D01*
X82669Y258666D01*
X81225Y257894D01*
X79786Y256714D01*
X71619Y248546D01*
X65417D01*
X63565Y248363D01*
X61784Y247823D01*
X61305Y247567D01*
X51476D01*
X43516Y255527D01*
Y304973D01*
X49079Y310536D01*
X65417D01*
X67079Y310699D01*
X68676Y311184D01*
X70148Y311971D01*
X71439Y313030D01*
X71623Y313254D01*
X72122Y313279D01*
X81450Y303950D01*
X82197Y303377D01*
X83067Y303017D01*
X84000Y302894D01*
X140000D01*
X140933Y303017D01*
X141803Y303377D01*
X142550Y303950D01*
X149550Y310950D01*
X150123Y311697D01*
X150483Y312567D01*
X150606Y313500D01*
Y314399D01*
X163500D01*
X164303Y314504D01*
X164612Y314633D01*
X165051Y314814D01*
X165693Y315307D01*
X170311Y319925D01*
X172575D01*
Y322189D01*
X175443Y325057D01*
X175936Y325699D01*
X176117Y326137D01*
X176246Y326447D01*
X176351Y327250D01*
Y329151D01*
X182083D01*
X182791Y329244D01*
X187890D01*
Y334756D01*
X182791D01*
X182083Y334849D01*
X176325D01*
Y335075D01*
D02*
G37*
G36*
X275153Y319544D02*
X268649D01*
Y317863D01*
X275153D01*
Y319544D01*
D02*
G37*
G36*
X267649D02*
X261145D01*
Y317863D01*
X267649D01*
Y319544D01*
D02*
G37*
G36*
X300516Y314755D02*
Y307969D01*
X307301D01*
X307209Y308900D01*
X306792Y310276D01*
X306114Y311544D01*
X305202Y312656D01*
X304091Y313568D01*
X302823Y314246D01*
X301447Y314663D01*
X300516Y314755D01*
D02*
G37*
G36*
X299516Y314755D02*
X298585Y314663D01*
X297209Y314246D01*
X295941Y313568D01*
X294830Y312656D01*
X293917Y311544D01*
X293240Y310276D01*
X292822Y308900D01*
X292731Y307969D01*
X299516D01*
Y314755D01*
D02*
G37*
G36*
X307301Y306969D02*
X300516D01*
Y300184D01*
X301447Y300276D01*
X302823Y300693D01*
X304091Y301371D01*
X305202Y302283D01*
X306114Y303395D01*
X306792Y304663D01*
X307209Y306038D01*
X307301Y306969D01*
D02*
G37*
G36*
X299516D02*
X292731D01*
X292822Y306038D01*
X293240Y304663D01*
X293917Y303395D01*
X294830Y302283D01*
X295941Y301371D01*
X297209Y300693D01*
X298585Y300276D01*
X299516Y300184D01*
Y306969D01*
D02*
G37*
G36*
X65417Y306568D02*
X63951Y306423D01*
X62541Y305996D01*
X61242Y305301D01*
X60102Y304366D01*
X59168Y303227D01*
X58473Y301928D01*
X58045Y300518D01*
X57901Y299051D01*
X58045Y297585D01*
X58473Y296175D01*
X59168Y294875D01*
X60102Y293736D01*
X61242Y292802D01*
X62541Y292107D01*
X63951Y291679D01*
X65417Y291535D01*
X66884Y291679D01*
X68294Y292107D01*
X69593Y292802D01*
X70732Y293736D01*
X71667Y294875D01*
X72362Y296175D01*
X72790Y297585D01*
X72934Y299051D01*
X72790Y300518D01*
X72362Y301928D01*
X71667Y303227D01*
X70732Y304366D01*
X69593Y305301D01*
X68294Y305996D01*
X66884Y306423D01*
X65417Y306568D01*
D02*
G37*
G36*
X300504Y276042D02*
Y269257D01*
X307289D01*
X307198Y270188D01*
X306780Y271564D01*
X306102Y272832D01*
X305190Y273943D01*
X304079Y274855D01*
X302811Y275533D01*
X301435Y275950D01*
X300504Y276042D01*
D02*
G37*
G36*
X299504D02*
X298573Y275950D01*
X297197Y275533D01*
X295929Y274855D01*
X294818Y273943D01*
X293906Y272832D01*
X293228Y271564D01*
X292811Y270188D01*
X292719Y269257D01*
X299504D01*
Y276042D01*
D02*
G37*
G36*
X138250Y270000D02*
X136000D01*
Y267000D01*
X138250D01*
Y270000D01*
D02*
G37*
G36*
X135000D02*
X132750D01*
Y267000D01*
X135000D01*
Y270000D01*
D02*
G37*
G36*
X307289Y268257D02*
X300504D01*
Y261471D01*
X301435Y261563D01*
X302811Y261981D01*
X304079Y262658D01*
X305190Y263570D01*
X306102Y264682D01*
X306780Y265950D01*
X307198Y267326D01*
X307289Y268257D01*
D02*
G37*
G36*
X299504D02*
X292719D01*
X292811Y267326D01*
X293228Y265950D01*
X293906Y264682D01*
X294818Y263570D01*
X295929Y262658D01*
X297197Y261981D01*
X298573Y261563D01*
X299504Y261471D01*
Y268257D01*
D02*
G37*
G36*
X224854Y260780D02*
X221854D01*
Y258530D01*
X224854D01*
Y260780D01*
D02*
G37*
G36*
X220854D02*
X217854D01*
Y258530D01*
X220854D01*
Y260780D01*
D02*
G37*
G36*
X130825Y270575D02*
X124175D01*
Y269641D01*
X116970D01*
Y263462D01*
Y258462D01*
Y253462D01*
X117545D01*
Y252051D01*
X125455D01*
Y252425D01*
X130825D01*
Y258954D01*
X132750D01*
Y257000D01*
X138250D01*
Y258954D01*
X148317D01*
X148594Y258594D01*
X149445Y257941D01*
X150436Y257530D01*
X151500Y257390D01*
X152564Y257530D01*
X153555Y257941D01*
X154406Y258594D01*
X155059Y259445D01*
X155470Y260436D01*
X155610Y261500D01*
X155470Y262564D01*
X155059Y263555D01*
X154406Y264406D01*
X153555Y265059D01*
X152564Y265470D01*
X151500Y265610D01*
X150436Y265470D01*
X149445Y265059D01*
X148594Y264406D01*
X148396Y264148D01*
X138250D01*
Y266000D01*
X135500D01*
X132750D01*
Y264148D01*
X130825D01*
Y270575D01*
D02*
G37*
G36*
X224854Y257530D02*
X221854D01*
Y255280D01*
X224854D01*
Y257530D01*
D02*
G37*
G36*
X220854D02*
X217854D01*
Y255280D01*
X220854D01*
Y257530D01*
D02*
G37*
G36*
X197604Y256030D02*
X195354D01*
Y253030D01*
X197604D01*
Y256030D01*
D02*
G37*
G36*
X194354D02*
X192104D01*
Y253030D01*
X194354D01*
Y256030D01*
D02*
G37*
G36*
X138250Y256000D02*
X136000D01*
Y253000D01*
X138250D01*
Y256000D01*
D02*
G37*
G36*
X135000D02*
X132750D01*
Y253000D01*
X135000D01*
Y256000D01*
D02*
G37*
G36*
X65417Y266568D02*
X63951Y266423D01*
X62541Y265996D01*
X61242Y265301D01*
X60102Y264366D01*
X59168Y263227D01*
X58473Y261928D01*
X58045Y260518D01*
X57901Y259051D01*
X58045Y257585D01*
X58473Y256175D01*
X59168Y254875D01*
X60102Y253736D01*
X61242Y252802D01*
X62541Y252107D01*
X63951Y251679D01*
X65417Y251535D01*
X66884Y251679D01*
X68294Y252107D01*
X69593Y252802D01*
X70732Y253736D01*
X71667Y254875D01*
X72362Y256175D01*
X72790Y257585D01*
X72934Y259051D01*
X72790Y260518D01*
X72362Y261928D01*
X71667Y263227D01*
X70732Y264366D01*
X69593Y265301D01*
X68294Y265996D01*
X66884Y266423D01*
X65417Y266568D01*
D02*
G37*
G36*
X125455Y251051D02*
X122000D01*
Y249036D01*
X125455D01*
Y251051D01*
D02*
G37*
G36*
X121000D02*
X117545D01*
Y249036D01*
X121000D01*
Y251051D01*
D02*
G37*
G36*
X180854Y238780D02*
X177854D01*
Y236530D01*
X180854D01*
Y238780D01*
D02*
G37*
G36*
X176854D02*
X173854D01*
Y236530D01*
X176854D01*
Y238780D01*
D02*
G37*
G36*
X214391Y231979D02*
X210936D01*
Y229964D01*
X214391D01*
Y231979D01*
D02*
G37*
G36*
X209936D02*
X206481D01*
Y229964D01*
X209936D01*
Y231979D01*
D02*
G37*
G36*
X267637Y227682D02*
X261133D01*
Y226001D01*
X267637D01*
Y227682D01*
D02*
G37*
G36*
X300504Y222892D02*
Y216107D01*
X307289D01*
X307198Y217038D01*
X306780Y218414D01*
X306102Y219682D01*
X305190Y220794D01*
X304079Y221706D01*
X302811Y222383D01*
X301435Y222801D01*
X300504Y222892D01*
D02*
G37*
G36*
X299504D02*
X298573Y222801D01*
X297197Y222383D01*
X295929Y221706D01*
X294818Y220794D01*
X293906Y219682D01*
X293228Y218414D01*
X292811Y217038D01*
X292719Y216107D01*
X299504D01*
Y222892D01*
D02*
G37*
G36*
X213417Y216801D02*
X209917D01*
Y215051D01*
X213417D01*
Y216801D01*
D02*
G37*
G36*
X208917D02*
X205417D01*
Y215051D01*
X208917D01*
Y216801D01*
D02*
G37*
G36*
X171667Y217051D02*
X169417D01*
Y214051D01*
X171667D01*
Y217051D01*
D02*
G37*
G36*
X168417D02*
X166167D01*
Y214051D01*
X168417D01*
Y217051D01*
D02*
G37*
G36*
X307289Y215107D02*
X300504D01*
Y208322D01*
X301435Y208414D01*
X302811Y208831D01*
X304079Y209509D01*
X305190Y210421D01*
X306102Y211532D01*
X306780Y212800D01*
X307198Y214176D01*
X307289Y215107D01*
D02*
G37*
G36*
X299504D02*
X292719D01*
X292811Y214176D01*
X293228Y212800D01*
X293906Y211532D01*
X294818Y210421D01*
X295929Y209509D01*
X297197Y208831D01*
X298573Y208414D01*
X299504Y208322D01*
Y215107D01*
D02*
G37*
G36*
X23500Y215786D02*
Y201500D01*
X37786D01*
X37643Y203319D01*
X37100Y205581D01*
X36209Y207731D01*
X34994Y209714D01*
X33483Y211483D01*
X31714Y212994D01*
X29730Y214209D01*
X27581Y215100D01*
X25319Y215643D01*
X23500Y215786D01*
D02*
G37*
G36*
X22500D02*
X20681Y215643D01*
X18419Y215100D01*
X16270Y214209D01*
X14286Y212994D01*
X12517Y211483D01*
X11006Y209714D01*
X9791Y207731D01*
X8900Y205581D01*
X8357Y203319D01*
X8214Y201500D01*
X22500D01*
Y215786D01*
D02*
G37*
G36*
X130500Y200964D02*
Y198000D01*
X133464D01*
X133410Y198414D01*
X133057Y199265D01*
X132496Y199996D01*
X131765Y200557D01*
X130914Y200910D01*
X130500Y200964D01*
D02*
G37*
G36*
X129500D02*
X129086Y200910D01*
X128235Y200557D01*
X127504Y199996D01*
X126943Y199265D01*
X126590Y198414D01*
X126536Y198000D01*
X129500D01*
Y200964D01*
D02*
G37*
G36*
X133464Y197000D02*
X130500D01*
Y194036D01*
X130914Y194090D01*
X131765Y194443D01*
X132496Y195004D01*
X133057Y195735D01*
X133410Y196586D01*
X133464Y197000D01*
D02*
G37*
G36*
X129500D02*
X126536D01*
X126590Y196586D01*
X126943Y195735D01*
X127504Y195004D01*
X128235Y194443D01*
X129086Y194090D01*
X129500Y194036D01*
Y197000D01*
D02*
G37*
G36*
X37786Y200500D02*
X23500D01*
Y186214D01*
X25319Y186357D01*
X27581Y186900D01*
X29730Y187791D01*
X31714Y189006D01*
X33483Y190517D01*
X34994Y192286D01*
X36209Y194270D01*
X37100Y196419D01*
X37643Y198681D01*
X37786Y200500D01*
D02*
G37*
G36*
X22500D02*
X8214D01*
X8357Y198681D01*
X8900Y196419D01*
X9791Y194270D01*
X11006Y192286D01*
X12517Y190517D01*
X14286Y189006D01*
X16270Y187791D01*
X18419Y186900D01*
X20681Y186357D01*
X22500Y186214D01*
Y200500D01*
D02*
G37*
G36*
X160543Y172280D02*
X159255Y172153D01*
X158015Y171777D01*
X156873Y171167D01*
X155872Y170345D01*
X155050Y169344D01*
X154440Y168202D01*
X154064Y166962D01*
X153937Y165673D01*
X154064Y164384D01*
X154440Y163145D01*
X155050Y162003D01*
X155872Y161002D01*
X156873Y160180D01*
X158015Y159570D01*
X159255Y159194D01*
X160543Y159067D01*
X161832Y159194D01*
X163072Y159570D01*
X164214Y160180D01*
X165215Y161002D01*
X166037Y162003D01*
X166647Y163145D01*
X167023Y164384D01*
X167150Y165673D01*
X167023Y166962D01*
X166647Y168202D01*
X166037Y169344D01*
X165215Y170345D01*
X164214Y171167D01*
X163072Y171777D01*
X161832Y172153D01*
X160543Y172280D01*
D02*
G37*
G36*
X204436Y157120D02*
Y153500D01*
X208056D01*
X207979Y154083D01*
X207561Y155093D01*
X206896Y155960D01*
X206029Y156625D01*
X205020Y157043D01*
X204436Y157120D01*
D02*
G37*
G36*
X203436Y157120D02*
X202853Y157043D01*
X201843Y156625D01*
X200976Y155960D01*
X200311Y155093D01*
X199893Y154083D01*
X199816Y153500D01*
X203436D01*
Y157120D01*
D02*
G37*
G36*
X208056Y152500D02*
X203936D01*
X199816D01*
X199893Y151917D01*
X200311Y150907D01*
X200436Y150744D01*
Y144248D01*
X203936D01*
X207436D01*
Y150744D01*
X207561Y150907D01*
X207979Y151917D01*
X208056Y152500D01*
D02*
G37*
G36*
X304500Y153786D02*
Y139500D01*
X318786D01*
X318643Y141319D01*
X318100Y143581D01*
X317209Y145730D01*
X315994Y147714D01*
X314483Y149483D01*
X312714Y150994D01*
X310731Y152209D01*
X308581Y153100D01*
X306319Y153643D01*
X304500Y153786D01*
D02*
G37*
G36*
X303500D02*
X301681Y153643D01*
X299419Y153100D01*
X297270Y152209D01*
X295286Y150994D01*
X293517Y149483D01*
X292006Y147714D01*
X290791Y145730D01*
X289900Y143581D01*
X289357Y141319D01*
X289214Y139500D01*
X303500D01*
Y153786D01*
D02*
G37*
G36*
X203436Y143248D02*
X200436D01*
Y136646D01*
X203436D01*
Y143248D01*
D02*
G37*
G36*
X258120Y128500D02*
X254500D01*
Y124880D01*
X255083Y124957D01*
X256093Y125375D01*
X256960Y126040D01*
X257625Y126907D01*
X258043Y127917D01*
X258120Y128500D01*
D02*
G37*
G36*
X253500D02*
X249880D01*
X249957Y127917D01*
X250375Y126907D01*
X251040Y126040D01*
X251907Y125375D01*
X252917Y124957D01*
X253500Y124880D01*
Y128500D01*
D02*
G37*
G36*
X276362Y133725D02*
X271638D01*
X269275Y131362D01*
Y126638D01*
X271638Y124275D01*
X276362D01*
X278725Y126638D01*
Y131362D01*
X276362Y133725D01*
D02*
G37*
G36*
X318786Y138500D02*
X304500D01*
Y124214D01*
X306319Y124357D01*
X308581Y124900D01*
X310731Y125791D01*
X312714Y127006D01*
X314483Y128517D01*
X315994Y130286D01*
X317209Y132270D01*
X318100Y134419D01*
X318643Y136681D01*
X318786Y138500D01*
D02*
G37*
G36*
X303500D02*
X289214D01*
X289357Y136681D01*
X289900Y134419D01*
X290791Y132270D01*
X292006Y130286D01*
X293517Y128517D01*
X295286Y127006D01*
X297270Y125791D01*
X299419Y124900D01*
X301681Y124357D01*
X303500Y124214D01*
Y138500D01*
D02*
G37*
G36*
X211492Y116376D02*
X203343D01*
Y114365D01*
X202492D01*
Y114770D01*
X195343D01*
Y109134D01*
X194266D01*
X194184Y109241D01*
X193333Y109894D01*
X192341Y110305D01*
X191278Y110445D01*
X190214Y110305D01*
X189223Y109894D01*
X188371Y109241D01*
X187718Y108390D01*
X187308Y107398D01*
X187168Y106335D01*
X187308Y105271D01*
X187718Y104280D01*
X188371Y103429D01*
X189223Y102775D01*
X190214Y102365D01*
X191278Y102225D01*
X191869Y102303D01*
X192369Y101864D01*
Y99626D01*
X192093D01*
Y92477D01*
X198242D01*
Y99626D01*
X197966D01*
Y103333D01*
X202492D01*
Y109171D01*
X206134D01*
X206806Y109259D01*
X207433Y109519D01*
X207703Y109727D01*
X211492D01*
Y116376D01*
D02*
G37*
G36*
X221667Y106551D02*
X219417D01*
Y103551D01*
X221667D01*
Y106551D01*
D02*
G37*
G36*
X218417D02*
X216167D01*
Y103551D01*
X218417D01*
Y106551D01*
D02*
G37*
G36*
X240047Y108988D02*
X233118D01*
X233173Y108574D01*
X233525Y107723D01*
X234086Y106992D01*
X234818Y106431D01*
X235269Y106244D01*
Y105703D01*
X235070Y105621D01*
X234443Y105140D01*
X233962Y104513D01*
X233660Y103783D01*
X233623Y103500D01*
X236583D01*
X239543D01*
X239506Y103783D01*
X239203Y104513D01*
X238722Y105140D01*
X238096Y105621D01*
X237897Y105703D01*
Y106244D01*
X238348Y106431D01*
X239079Y106992D01*
X239640Y107723D01*
X239992Y108574D01*
X240047Y108988D01*
D02*
G37*
G36*
X239543Y102500D02*
X237083D01*
Y100040D01*
X237366Y100077D01*
X238096Y100380D01*
X238722Y100860D01*
X239203Y101487D01*
X239506Y102217D01*
X239543Y102500D01*
D02*
G37*
G36*
X236083D02*
X233623D01*
X233660Y102217D01*
X233962Y101487D01*
X234443Y100860D01*
X235070Y100380D01*
X235800Y100077D01*
X236083Y100040D01*
Y102500D01*
D02*
G37*
G36*
X221667Y102551D02*
X219417D01*
Y99551D01*
X221667D01*
Y102551D01*
D02*
G37*
G36*
X218417D02*
X216167D01*
Y99551D01*
X218417D01*
Y102551D01*
D02*
G37*
G36*
X221667Y99051D02*
X219667D01*
Y96551D01*
X221667D01*
Y99051D01*
D02*
G37*
G36*
X218667D02*
X216667D01*
Y96551D01*
X218667D01*
Y99051D01*
D02*
G37*
G36*
X213917Y98801D02*
X210917D01*
Y96551D01*
X213917D01*
Y98801D01*
D02*
G37*
G36*
X133242Y97126D02*
X126593D01*
Y95850D01*
X85918D01*
X85917Y95850D01*
X85193Y95755D01*
X84518Y95475D01*
X83938Y95030D01*
X73636Y84728D01*
X71314D01*
X70848Y85600D01*
X70026Y86601D01*
X69025Y87422D01*
X67883Y88033D01*
X66643Y88409D01*
X65354Y88536D01*
X64065Y88409D01*
X62826Y88033D01*
X61684Y87422D01*
X60683Y86601D01*
X59861Y85600D01*
X59251Y84457D01*
X58875Y83218D01*
X58748Y81929D01*
X58875Y80640D01*
X59251Y79401D01*
X59861Y78259D01*
X60683Y77258D01*
X61684Y76436D01*
X62826Y75826D01*
X64065Y75450D01*
X65354Y75323D01*
X66643Y75450D01*
X67883Y75826D01*
X69025Y76436D01*
X70026Y77258D01*
X70848Y78259D01*
X71314Y79130D01*
X74795D01*
X75520Y79226D01*
X76195Y79505D01*
X76774Y79950D01*
X87077Y90253D01*
X126593D01*
Y88977D01*
X133242D01*
Y97126D01*
D02*
G37*
G36*
X65354Y108536D02*
X64065Y108409D01*
X62826Y108033D01*
X61684Y107422D01*
X60683Y106601D01*
X59861Y105600D01*
X59251Y104457D01*
X58875Y103218D01*
X58748Y101929D01*
X58875Y100640D01*
X59251Y99401D01*
X59861Y98259D01*
X60683Y97258D01*
X61684Y96436D01*
X62826Y95825D01*
X64065Y95450D01*
X65354Y95323D01*
X66643Y95450D01*
X67883Y95825D01*
X69025Y96436D01*
X70026Y97258D01*
X70848Y98259D01*
X71458Y99401D01*
X71834Y100640D01*
X71961Y101929D01*
X71834Y103218D01*
X71458Y104457D01*
X70848Y105600D01*
X70026Y106601D01*
X69025Y107422D01*
X67883Y108033D01*
X66643Y108409D01*
X65354Y108536D01*
D02*
G37*
G36*
X213917Y95551D02*
X210917D01*
Y93301D01*
X213917D01*
Y95551D01*
D02*
G37*
G36*
X209917D02*
X206917D01*
Y93301D01*
X209917D01*
Y95551D01*
D02*
G37*
G36*
X221667Y95551D02*
X219667D01*
Y93051D01*
X221667D01*
Y95551D01*
D02*
G37*
G36*
X218667D02*
X216667D01*
Y93051D01*
X218667D01*
Y95551D01*
D02*
G37*
G36*
X283000Y76390D02*
Y70000D01*
X289390D01*
X289306Y70854D01*
X288911Y72155D01*
X288269Y73355D01*
X287407Y74407D01*
X286355Y75270D01*
X285155Y75911D01*
X283854Y76306D01*
X283000Y76390D01*
D02*
G37*
G36*
X282000Y76390D02*
X281146Y76306D01*
X279845Y75911D01*
X278645Y75270D01*
X277593Y74407D01*
X276730Y73355D01*
X276089Y72155D01*
X275694Y70854D01*
X275610Y70000D01*
X282000D01*
Y76390D01*
D02*
G37*
G36*
Y69000D02*
X275610D01*
X275694Y68146D01*
X276089Y66845D01*
X276730Y65645D01*
X277593Y64593D01*
X278645Y63731D01*
X279845Y63089D01*
X281146Y62694D01*
X282000Y62610D01*
Y69000D01*
D02*
G37*
G36*
X289390D02*
X283000D01*
Y62610D01*
X283854Y62694D01*
X285155Y63089D01*
X286355Y63731D01*
X287407Y64593D01*
X288269Y65645D01*
X288911Y66845D01*
X289306Y68146D01*
X289390Y69000D01*
D02*
G37*
G36*
X65854Y67909D02*
Y62429D01*
X71334D01*
X71268Y63105D01*
X70925Y64236D01*
X70367Y65279D01*
X69617Y66192D01*
X68704Y66942D01*
X67662Y67499D01*
X66531Y67842D01*
X65854Y67909D01*
D02*
G37*
G36*
X64854D02*
X64178Y67842D01*
X63047Y67499D01*
X62005Y66942D01*
X61091Y66192D01*
X60341Y65279D01*
X59784Y64236D01*
X59441Y63105D01*
X59375Y62429D01*
X64854D01*
Y67909D01*
D02*
G37*
G36*
X263667Y63440D02*
X259167D01*
Y59940D01*
X263667D01*
Y63440D01*
D02*
G37*
G36*
X258167D02*
X253667D01*
Y59940D01*
X258167D01*
Y63440D01*
D02*
G37*
G36*
X71334Y61429D02*
X65854D01*
Y55949D01*
X66531Y56016D01*
X67662Y56359D01*
X68704Y56916D01*
X69617Y57666D01*
X70367Y58580D01*
X70925Y59622D01*
X71268Y60753D01*
X71334Y61429D01*
D02*
G37*
G36*
X64854D02*
X59375D01*
X59441Y60753D01*
X59784Y59622D01*
X60341Y58580D01*
X61091Y57666D01*
X62005Y56916D01*
X63047Y56359D01*
X64178Y56016D01*
X64854Y55949D01*
Y61429D01*
D02*
G37*
G36*
X218417Y57051D02*
X216167D01*
Y54051D01*
X218417D01*
Y57051D01*
D02*
G37*
G36*
X221667Y53051D02*
X219417D01*
Y50051D01*
X221667D01*
Y53051D01*
D02*
G37*
G36*
X218417D02*
X216167D01*
Y50051D01*
X218417D01*
Y53051D01*
D02*
G37*
G36*
X221667Y49551D02*
X219667D01*
Y47051D01*
X221667D01*
Y49551D01*
D02*
G37*
G36*
X218667D02*
X216667D01*
Y47051D01*
X218667D01*
Y49551D01*
D02*
G37*
G36*
X160543Y76280D02*
X159255Y76153D01*
X158015Y75777D01*
X156873Y75167D01*
X155872Y74345D01*
X155050Y73344D01*
X154440Y72202D01*
X154064Y70962D01*
X153937Y69673D01*
X154064Y68384D01*
X154440Y67145D01*
X155050Y66003D01*
X155872Y65002D01*
X156873Y64180D01*
X158015Y63570D01*
X159255Y63194D01*
X160149Y63106D01*
X160124Y62606D01*
X149700D01*
X148767Y62483D01*
X147897Y62123D01*
X147150Y61550D01*
X146577Y60803D01*
X146217Y59933D01*
X146094Y59000D01*
X146217Y58067D01*
X146577Y57197D01*
X147150Y56450D01*
X147897Y55877D01*
X148767Y55517D01*
X149700Y55394D01*
X171300D01*
X172233Y55517D01*
X173103Y55877D01*
X173850Y56450D01*
X174423Y57197D01*
X174783Y58067D01*
X174906Y59000D01*
X174783Y59933D01*
X174423Y60803D01*
X173850Y61550D01*
X173103Y62123D01*
X172233Y62483D01*
X171300Y62606D01*
X160962D01*
X160938Y63106D01*
X161832Y63194D01*
X163072Y63570D01*
X164214Y64180D01*
X165215Y65002D01*
X166037Y66003D01*
X166502Y66875D01*
X173667D01*
X179675Y60867D01*
X179496Y60339D01*
X179067Y60283D01*
X178197Y59923D01*
X177450Y59350D01*
X176877Y58603D01*
X176517Y57733D01*
X176394Y56800D01*
Y50166D01*
X175894Y50041D01*
X175498Y50783D01*
X174439Y52073D01*
X173149Y53132D01*
X171676Y53919D01*
X170079Y54404D01*
X168417Y54567D01*
X136135D01*
X134474Y54404D01*
X132877Y53919D01*
X131404Y53132D01*
X130114Y52073D01*
X108486Y30445D01*
X65354D01*
X63693Y30281D01*
X62096Y29797D01*
X60623Y29010D01*
X59333Y27951D01*
X58274Y26660D01*
X57487Y25188D01*
X57002Y23591D01*
X56839Y21929D01*
X57002Y20268D01*
X57487Y18670D01*
X58274Y17198D01*
X59333Y15908D01*
X60623Y14849D01*
X62096Y14062D01*
X63693Y13577D01*
X65354Y13413D01*
X112513D01*
X114175Y13577D01*
X115772Y14062D01*
X117245Y14849D01*
X118535Y15908D01*
X119594Y17198D01*
X119903Y17775D01*
X139663Y37536D01*
X149135D01*
X149168Y37036D01*
X148767Y36983D01*
X147897Y36623D01*
X147150Y36050D01*
X146577Y35303D01*
X146217Y34433D01*
X146094Y33500D01*
X146217Y32567D01*
X146577Y31697D01*
X147150Y30950D01*
X147897Y30377D01*
X148767Y30017D01*
X149700Y29894D01*
X171300D01*
X172233Y30017D01*
X173103Y30377D01*
X173850Y30950D01*
X174423Y31697D01*
X174783Y32567D01*
X174906Y33500D01*
X174783Y34433D01*
X174423Y35303D01*
X173850Y36050D01*
X173103Y36623D01*
X172233Y36983D01*
X171300Y37106D01*
X169154D01*
X169129Y37606D01*
X170079Y37699D01*
X171676Y38184D01*
X173149Y38971D01*
X174439Y40030D01*
X175498Y41320D01*
X175894Y42062D01*
X176394Y41936D01*
Y35200D01*
X176517Y34267D01*
X176877Y33397D01*
X177450Y32650D01*
X178197Y32077D01*
X179067Y31717D01*
X180000Y31594D01*
X180933Y31717D01*
X181803Y32077D01*
X182550Y32650D01*
X183123Y33397D01*
X183483Y34267D01*
X183606Y35200D01*
Y56229D01*
X184106Y56436D01*
X188186Y52356D01*
X188766Y51911D01*
X189441Y51631D01*
X190165Y51536D01*
X190165Y51536D01*
X194927D01*
X195151Y51427D01*
X195278Y50874D01*
X194530Y50126D01*
X192093D01*
Y42977D01*
X196167D01*
X196320Y42801D01*
Y42126D01*
X195843D01*
Y41148D01*
X192917D01*
X192245Y41060D01*
X191619Y40800D01*
X191081Y40388D01*
X175720Y25026D01*
X166610D01*
X166037Y26100D01*
X165215Y27101D01*
X164214Y27922D01*
X163072Y28533D01*
X161832Y28909D01*
X160543Y29036D01*
X159255Y28909D01*
X158015Y28533D01*
X156873Y27922D01*
X155872Y27101D01*
X155050Y26100D01*
X154440Y24958D01*
X154064Y23718D01*
X153937Y22429D01*
X154064Y21140D01*
X154440Y19901D01*
X155050Y18759D01*
X155872Y17758D01*
X156873Y16936D01*
X158015Y16326D01*
X159255Y15950D01*
X160543Y15823D01*
X161832Y15950D01*
X163072Y16326D01*
X164214Y16936D01*
X165215Y17758D01*
X166037Y18759D01*
X166610Y19832D01*
X176795D01*
X177468Y19921D01*
X178094Y20180D01*
X178632Y20593D01*
X193993Y35954D01*
X195843D01*
Y34977D01*
X201992D01*
Y35954D01*
X206343D01*
Y35227D01*
X214492D01*
Y35954D01*
X219843D01*
Y34977D01*
X225992D01*
Y42126D01*
X219843D01*
Y41148D01*
X214492D01*
Y41876D01*
X206343D01*
Y41148D01*
X201992D01*
Y42126D01*
X201992Y42126D01*
X201992D01*
X202280Y42491D01*
X202765Y42977D01*
X205742D01*
Y47703D01*
X206455Y48417D01*
X206917Y48225D01*
Y47051D01*
X210417D01*
X213917D01*
Y49301D01*
X211673D01*
X211492Y49727D01*
X211492D01*
Y56376D01*
X203343D01*
Y52649D01*
X202954Y52261D01*
X202492Y52452D01*
Y57185D01*
X203056Y57259D01*
X203682Y57519D01*
X203953Y57727D01*
X211492D01*
Y64376D01*
X203343D01*
Y63606D01*
X202995Y63560D01*
X202369Y63301D01*
X201831Y62888D01*
X201713Y62770D01*
X195343D01*
Y57134D01*
X191324D01*
X176806Y71652D01*
X176226Y72097D01*
X175551Y72377D01*
X174827Y72472D01*
X166502D01*
X166037Y73344D01*
X165215Y74345D01*
X164214Y75167D01*
X163072Y75777D01*
X161832Y76153D01*
X160543Y76280D01*
D02*
G37*
G36*
X267882Y47011D02*
Y44551D01*
X270342D01*
X270305Y44835D01*
X270003Y45564D01*
X269522Y46191D01*
X268895Y46672D01*
X268165Y46974D01*
X267882Y47011D01*
D02*
G37*
G36*
X266882Y47011D02*
X266599Y46974D01*
X265869Y46672D01*
X265242Y46191D01*
X264761Y45564D01*
X264459Y44835D01*
X264422Y44551D01*
X266882D01*
Y47011D01*
D02*
G37*
G36*
X213917Y46051D02*
X210917D01*
Y43801D01*
X213917D01*
Y46051D01*
D02*
G37*
G36*
X209917D02*
X206917D01*
Y43801D01*
X209917D01*
Y46051D01*
D02*
G37*
G36*
X221667Y46051D02*
X219667D01*
Y43551D01*
X221667D01*
Y46051D01*
D02*
G37*
G36*
X218667D02*
X216667D01*
Y43551D01*
X218667D01*
Y46051D01*
D02*
G37*
G36*
X270342Y43551D02*
X267882D01*
Y41091D01*
X268165Y41129D01*
X268895Y41431D01*
X269522Y41912D01*
X270003Y42538D01*
X270305Y43268D01*
X270342Y43551D01*
D02*
G37*
G36*
X266882D02*
X264422D01*
X264459Y43268D01*
X264761Y42538D01*
X265242Y41912D01*
X265869Y41431D01*
X266599Y41129D01*
X266882Y41091D01*
Y43551D01*
D02*
G37*
G36*
X236917Y40835D02*
X234417D01*
Y38908D01*
X236917D01*
Y40835D01*
D02*
G37*
G36*
X233417D02*
X230917D01*
Y38908D01*
X233417D01*
Y40835D01*
D02*
G37*
G36*
X112513Y78189D02*
X110852Y78026D01*
X109255Y77541D01*
X107782Y76754D01*
X106492Y75695D01*
X81242Y50445D01*
X65354D01*
X63693Y50281D01*
X62096Y49797D01*
X60623Y49010D01*
X59333Y47951D01*
X58274Y46660D01*
X57487Y45188D01*
X57002Y43591D01*
X56839Y41929D01*
X57002Y40268D01*
X57487Y38670D01*
X58274Y37198D01*
X59333Y35908D01*
X60623Y34848D01*
X62096Y34062D01*
X63693Y33577D01*
X65354Y33413D01*
X84769D01*
X86431Y33577D01*
X88028Y34062D01*
X89500Y34848D01*
X90791Y35908D01*
X118535Y63652D01*
X119594Y64942D01*
X120381Y66414D01*
X120866Y68012D01*
X121029Y69673D01*
X120866Y71335D01*
X120381Y72932D01*
X119594Y74405D01*
X118535Y75695D01*
X117245Y76754D01*
X115772Y77541D01*
X114175Y78026D01*
X112513Y78189D01*
D02*
G37*
G36*
X304000Y33786D02*
Y19500D01*
X318286D01*
X318143Y21319D01*
X317600Y23581D01*
X316709Y25730D01*
X315494Y27714D01*
X313983Y29483D01*
X312214Y30994D01*
X310230Y32209D01*
X308081Y33100D01*
X305819Y33643D01*
X304000Y33786D01*
D02*
G37*
G36*
X303000D02*
X301181Y33643D01*
X298919Y33100D01*
X296769Y32209D01*
X294786Y30994D01*
X293017Y29483D01*
X291506Y27714D01*
X290291Y25730D01*
X289400Y23581D01*
X288857Y21319D01*
X288714Y19500D01*
X303000D01*
Y33786D01*
D02*
G37*
G36*
X318286Y18500D02*
X304000D01*
Y4214D01*
X305819Y4357D01*
X308081Y4900D01*
X310230Y5791D01*
X312214Y7006D01*
X313983Y8517D01*
X315494Y10286D01*
X316709Y12269D01*
X317600Y14419D01*
X318143Y16681D01*
X318286Y18500D01*
D02*
G37*
G36*
X303000D02*
X288714D01*
X288857Y16681D01*
X289400Y14419D01*
X290291Y12269D01*
X291506Y10286D01*
X293017Y8517D01*
X294786Y7006D01*
X296769Y5791D01*
X298919Y4900D01*
X301181Y4357D01*
X303000Y4214D01*
Y18500D01*
D02*
G37*
G36*
X82531Y11074D02*
X82468D01*
X81543Y10952D01*
X80682Y10595D01*
X79941Y10027D01*
X79373Y9287D01*
X79016Y8425D01*
X78895Y7500D01*
X79016Y6575D01*
X79373Y5713D01*
X79941Y4973D01*
X80682Y4405D01*
X81543Y4048D01*
X82468Y3926D01*
X82531D01*
X83456Y4048D01*
X84318Y4405D01*
X85059Y4973D01*
X85627Y5713D01*
X85984Y6575D01*
X86105Y7500D01*
X85984Y8425D01*
X85627Y9287D01*
X85059Y10027D01*
X84318Y10595D01*
X83456Y10952D01*
X82531Y11074D01*
D02*
G37*
%LPD*%
G36*
X105000Y280500D02*
Y279102D01*
X104500Y279003D01*
X104494Y279017D01*
X103853Y279853D01*
X103017Y280494D01*
X102044Y280897D01*
X101500Y280969D01*
Y277000D01*
Y273031D01*
X102044Y273103D01*
X103017Y273506D01*
X103853Y274147D01*
X104494Y274983D01*
X104500Y274997D01*
X105000Y274898D01*
Y260000D01*
X102455D01*
Y261051D01*
X94545D01*
Y260000D01*
X88102D01*
X88003Y260500D01*
X88017Y260506D01*
X88853Y261147D01*
X89494Y261983D01*
X89897Y262956D01*
X89969Y263500D01*
X82031D01*
X82075Y263165D01*
X81605Y262910D01*
X77963Y266032D01*
X78000Y266115D01*
Y270000D01*
X74531D01*
X74586Y269585D01*
X74169Y269284D01*
X70000Y272857D01*
X69464D01*
X69364Y273357D01*
X70324Y274145D01*
X71187Y275196D01*
X71828Y276396D01*
X72223Y277698D01*
X72307Y278551D01*
X65417D01*
Y279551D01*
X72307D01*
X72223Y280405D01*
X71828Y281707D01*
X71187Y282906D01*
X70324Y283958D01*
X69273Y284821D01*
X68073Y285462D01*
X66771Y285857D01*
X65417Y285990D01*
X65207Y285969D01*
X64993Y286421D01*
X65536Y286964D01*
X75666Y286964D01*
X75827Y286491D01*
X75647Y286353D01*
X75006Y285517D01*
X74603Y284544D01*
X74531Y284000D01*
X78500D01*
Y283500D01*
X79000D01*
Y279531D01*
X79544Y279603D01*
X80517Y280006D01*
X81353Y280647D01*
X81994Y281483D01*
X82397Y282456D01*
X82498Y283221D01*
X83002D01*
X83103Y282456D01*
X83506Y281483D01*
X84147Y280647D01*
X84983Y280006D01*
X85956Y279603D01*
X86500Y279531D01*
Y283500D01*
X87500D01*
Y279531D01*
X88044Y279603D01*
X89017Y280006D01*
X89853Y280647D01*
X90494Y281483D01*
X90729Y282051D01*
X91271D01*
X91506Y281483D01*
X92147Y280647D01*
X92983Y280006D01*
X93956Y279603D01*
X94500Y279531D01*
Y283500D01*
X95000D01*
Y284000D01*
X98969D01*
X98897Y284544D01*
X98494Y285517D01*
X97853Y286353D01*
X97673Y286491D01*
X97834Y286964D01*
X98536D01*
X105000Y280500D01*
D02*
G37*
G36*
X94545Y258000D02*
Y257051D01*
X102455D01*
Y258000D01*
X105000D01*
X105000Y244602D01*
X104500Y244503D01*
X104494Y244517D01*
X103853Y245353D01*
X103017Y245994D01*
X102044Y246397D01*
X101500Y246469D01*
Y242500D01*
Y238531D01*
X102044Y238603D01*
X103017Y239006D01*
X103853Y239647D01*
X104494Y240483D01*
X104500Y240497D01*
X105000Y240398D01*
Y238000D01*
X99500Y232500D01*
X98951D01*
X98673Y232916D01*
X98897Y233456D01*
X98969Y234000D01*
X95000D01*
Y234500D01*
X94500D01*
Y238469D01*
X93956Y238397D01*
X92983Y237994D01*
X92147Y237353D01*
X91506Y236517D01*
X91271Y235949D01*
X90729D01*
X90494Y236517D01*
X89853Y237353D01*
X89017Y237994D01*
X88044Y238397D01*
X87500Y238469D01*
Y234500D01*
X86500D01*
Y238469D01*
X85956Y238397D01*
X84983Y237994D01*
X84147Y237353D01*
X83506Y236517D01*
X83103Y235544D01*
X83002Y234779D01*
X82498D01*
X82397Y235544D01*
X81994Y236517D01*
X81353Y237353D01*
X80517Y237994D01*
X79544Y238397D01*
X79000Y238469D01*
Y234500D01*
X78500D01*
Y234000D01*
X74531D01*
X74603Y233456D01*
X74827Y232916D01*
X74549Y232500D01*
X72500D01*
X70563Y234437D01*
X71187Y235196D01*
X71828Y236396D01*
X72223Y237698D01*
X72307Y238551D01*
X65417D01*
Y239551D01*
X72307D01*
X72223Y240405D01*
X71828Y241707D01*
X71187Y242906D01*
X70324Y243958D01*
X69664Y244500D01*
X69842Y245000D01*
X72500D01*
X74128Y246628D01*
X74270Y246580D01*
X74620Y246413D01*
X75006Y245483D01*
X75647Y244647D01*
X76483Y244006D01*
X77456Y243603D01*
X78000Y243531D01*
Y247500D01*
X78500D01*
Y248000D01*
X82469D01*
X82397Y248544D01*
X81994Y249517D01*
X81353Y250353D01*
X80517Y250994D01*
X79587Y251379D01*
X79420Y251730D01*
X79372Y251872D01*
X81531Y254031D01*
X81594Y254000D01*
X89969D01*
X89897Y254544D01*
X89494Y255517D01*
X88853Y256353D01*
X88017Y256994D01*
X87044Y257397D01*
X86262Y257500D01*
X86295Y258000D01*
X94545Y258000D01*
D02*
G37*
G36*
X270903Y209424D02*
Y181597D01*
X248899D01*
X248810Y181585D01*
X248721Y181597D01*
X216000D01*
X215328Y181509D01*
X214702Y181249D01*
X214164Y180836D01*
X213932Y180605D01*
X213386Y180766D01*
X213195Y181227D01*
X213529Y181727D01*
X213992D01*
Y186753D01*
X217699D01*
Y185977D01*
X229136D01*
Y187181D01*
X249885D01*
X253190Y183875D01*
X253959Y183361D01*
X254866Y183181D01*
X257343D01*
Y182227D01*
X265492D01*
Y188876D01*
X257343D01*
Y187922D01*
X255848D01*
X252542Y191227D01*
X251774Y191741D01*
X250866Y191922D01*
X229136D01*
Y193126D01*
X217699D01*
Y192350D01*
X215881D01*
X215674Y192850D01*
X217436Y194612D01*
X217781Y194925D01*
Y194925D01*
X217781Y194925D01*
X229219D01*
Y196181D01*
X257343D01*
Y195227D01*
X257917D01*
Y194051D01*
X261417D01*
X264917D01*
Y195227D01*
X265492D01*
Y201876D01*
X257343D01*
Y200922D01*
X253559D01*
X253389Y201422D01*
X253496Y201504D01*
X254057Y202235D01*
X254410Y203086D01*
X254464Y203500D01*
X247536D01*
X247590Y203086D01*
X247943Y202235D01*
X248504Y201504D01*
X248611Y201422D01*
X248441Y200922D01*
X229219D01*
Y201954D01*
X238551D01*
X239224Y202043D01*
X239850Y202302D01*
X240388Y202715D01*
X247576Y209903D01*
X270424D01*
X270903Y209424D01*
D02*
G37*
%LPC*%
G36*
X98969Y283000D02*
X95500D01*
Y279531D01*
X96044Y279603D01*
X97017Y280006D01*
X97853Y280647D01*
X98494Y281483D01*
X98897Y282456D01*
X98969Y283000D01*
D02*
G37*
G36*
X78000D02*
X74531D01*
X74603Y282456D01*
X75006Y281483D01*
X75647Y280647D01*
X76483Y280006D01*
X77456Y279603D01*
X78000Y279531D01*
Y283000D01*
D02*
G37*
G36*
X100500Y280969D02*
X99956Y280897D01*
X98983Y280494D01*
X98147Y279853D01*
X97506Y279017D01*
X97103Y278044D01*
X97031Y277500D01*
X100500D01*
Y280969D01*
D02*
G37*
G36*
Y276500D02*
X97031D01*
X97103Y275956D01*
X97506Y274983D01*
X98147Y274147D01*
X98983Y273506D01*
X99956Y273103D01*
X100500Y273031D01*
Y276500D01*
D02*
G37*
G36*
X79000Y274469D02*
Y271000D01*
X82469D01*
X82397Y271544D01*
X81994Y272517D01*
X81353Y273353D01*
X80517Y273994D01*
X79544Y274397D01*
X79000Y274469D01*
D02*
G37*
G36*
X78000D02*
X77456Y274397D01*
X76483Y273994D01*
X75647Y273353D01*
X75006Y272517D01*
X74603Y271544D01*
X74531Y271000D01*
X78000D01*
Y274469D01*
D02*
G37*
G36*
X102455Y269066D02*
X99000D01*
Y267051D01*
X102455D01*
Y269066D01*
D02*
G37*
G36*
X98000D02*
X94545D01*
Y267051D01*
X98000D01*
Y269066D01*
D02*
G37*
G36*
X82469Y270000D02*
X79000D01*
Y266531D01*
X79544Y266603D01*
X80517Y267006D01*
X81353Y267647D01*
X81994Y268483D01*
X82397Y269456D01*
X82469Y270000D01*
D02*
G37*
G36*
X86500Y267969D02*
Y264500D01*
X89969D01*
X89897Y265044D01*
X89494Y266017D01*
X88853Y266853D01*
X88017Y267494D01*
X87044Y267897D01*
X86500Y267969D01*
D02*
G37*
G36*
X85500D02*
X84956Y267897D01*
X83983Y267494D01*
X83147Y266853D01*
X82506Y266017D01*
X82103Y265044D01*
X82031Y264500D01*
X85500D01*
Y267969D01*
D02*
G37*
G36*
X102455Y266051D02*
X94545D01*
Y264036D01*
Y262051D01*
X102455D01*
Y264036D01*
Y266051D01*
D02*
G37*
G36*
Y256051D02*
X94545D01*
Y254036D01*
Y252051D01*
X102455D01*
Y254036D01*
Y256051D01*
D02*
G37*
G36*
X89969Y253000D02*
X86500D01*
Y249531D01*
X87044Y249603D01*
X88017Y250006D01*
X88853Y250647D01*
X89494Y251483D01*
X89897Y252456D01*
X89969Y253000D01*
D02*
G37*
G36*
X85500D02*
X82031D01*
X82103Y252456D01*
X82506Y251483D01*
X83147Y250647D01*
X83983Y250006D01*
X84956Y249603D01*
X85500Y249531D01*
Y253000D01*
D02*
G37*
G36*
X102455Y251051D02*
X99000D01*
Y249036D01*
X102455D01*
Y251051D01*
D02*
G37*
G36*
X98000D02*
X94545D01*
Y249036D01*
X98000D01*
Y251051D01*
D02*
G37*
G36*
X82469Y247000D02*
X79000D01*
Y243531D01*
X79544Y243603D01*
X80517Y244006D01*
X81353Y244647D01*
X81994Y245483D01*
X82397Y246456D01*
X82469Y247000D01*
D02*
G37*
G36*
X100500Y246469D02*
X99956Y246397D01*
X98983Y245994D01*
X98147Y245353D01*
X97506Y244517D01*
X97103Y243544D01*
X97031Y243000D01*
X100500D01*
Y246469D01*
D02*
G37*
G36*
Y242000D02*
X97031D01*
X97103Y241456D01*
X97506Y240483D01*
X98147Y239647D01*
X98983Y239006D01*
X99956Y238603D01*
X100500Y238531D01*
Y242000D01*
D02*
G37*
G36*
X95500Y238469D02*
Y235000D01*
X98969D01*
X98897Y235544D01*
X98494Y236517D01*
X97853Y237353D01*
X97017Y237994D01*
X96044Y238397D01*
X95500Y238469D01*
D02*
G37*
G36*
X78000D02*
X77456Y238397D01*
X76483Y237994D01*
X75647Y237353D01*
X75006Y236517D01*
X74603Y235544D01*
X74531Y235000D01*
X78000D01*
Y238469D01*
D02*
G37*
G36*
X264917Y209301D02*
X261917D01*
Y207051D01*
X264917D01*
Y209301D01*
D02*
G37*
G36*
X260917D02*
X257917D01*
Y207051D01*
X260917D01*
Y209301D01*
D02*
G37*
G36*
X251500Y207464D02*
Y204500D01*
X254464D01*
X254410Y204914D01*
X254057Y205765D01*
X253496Y206496D01*
X252765Y207057D01*
X251914Y207410D01*
X251500Y207464D01*
D02*
G37*
G36*
X250500D02*
X250086Y207410D01*
X249235Y207057D01*
X248504Y206496D01*
X247943Y205765D01*
X247590Y204914D01*
X247536Y204500D01*
X250500D01*
Y207464D01*
D02*
G37*
G36*
X264917Y206051D02*
X261917D01*
Y203801D01*
X264917D01*
Y206051D01*
D02*
G37*
G36*
X260917D02*
X257917D01*
Y203801D01*
X260917D01*
Y206051D01*
D02*
G37*
G36*
X264917Y193051D02*
X261917D01*
Y190801D01*
X264917D01*
Y193051D01*
D02*
G37*
G36*
X260917D02*
X257917D01*
Y190801D01*
X260917D01*
Y193051D01*
D02*
G37*
%LPD*%
D11*
X715926Y-504203D02*
X715176Y-502703D01*
X713677Y-501203D01*
X712177Y-500454D01*
X709178D01*
X707679Y-501203D01*
X706179Y-502703D01*
X705429Y-504203D01*
X704680Y-506452D01*
Y-510201D01*
X705429Y-512450D01*
X706179Y-513949D01*
X707679Y-515449D01*
X709178Y-516198D01*
X712177D01*
X713677Y-515449D01*
X715176Y-513949D01*
X715926Y-512450D01*
X720349Y-500454D02*
Y-511700D01*
X721099Y-513949D01*
X722599Y-515449D01*
X724848Y-516198D01*
X726347D01*
X728596Y-515449D01*
X730096Y-513949D01*
X730846Y-511700D01*
Y-500454D01*
X735194D02*
Y-516198D01*
X738493Y-500454D02*
X744491Y-516198D01*
X750489Y-500454D02*
X744491Y-516198D01*
X752513Y-500454D02*
Y-516198D01*
Y-500454D02*
X759261D01*
X761510Y-501203D01*
X762260Y-501953D01*
X763010Y-503453D01*
Y-504952D01*
X762260Y-506452D01*
X761510Y-507201D01*
X759261Y-507951D01*
X752513D01*
X757762D02*
X763010Y-516198D01*
X776280Y-500454D02*
X766534D01*
Y-516198D01*
X776280D01*
X766534Y-507951D02*
X772532D01*
X796523Y-500454D02*
Y-516198D01*
X791275Y-500454D02*
X801772D01*
X808144D02*
X806645Y-501203D01*
X805145Y-502703D01*
X804396Y-504203D01*
X803646Y-506452D01*
Y-510201D01*
X804396Y-512450D01*
X805145Y-513949D01*
X806645Y-515449D01*
X808144Y-516198D01*
X811143D01*
X812643Y-515449D01*
X814143Y-513949D01*
X814892Y-512450D01*
X815642Y-510201D01*
Y-506452D01*
X814892Y-504203D01*
X814143Y-502703D01*
X812643Y-501203D01*
X811143Y-500454D01*
X808144D01*
X819316Y-508701D02*
X826063D01*
X828313Y-507951D01*
X829062Y-507201D01*
X829812Y-505702D01*
Y-503453D01*
X829062Y-501953D01*
X828313Y-501203D01*
X826063Y-500454D01*
X819316D01*
Y-516198D01*
D15*
X221354Y230030D02*
Y236030D01*
Y244030D02*
Y250030D01*
D20*
X129917Y93051D02*
D03*
X137917D02*
D03*
X218917Y53551D02*
D03*
X226917D02*
D03*
X221354Y244030D02*
D03*
X229354D02*
D03*
X221354Y236030D02*
D03*
X229354D02*
D03*
X177000Y184551D02*
D03*
X169000D02*
D03*
X176917Y198051D02*
D03*
X168917D02*
D03*
X176917Y206051D02*
D03*
X168917D02*
D03*
X218917Y103051D02*
D03*
X226917D02*
D03*
X158000Y344500D02*
D03*
X166000D02*
D03*
X168917Y213551D02*
D03*
X176917D02*
D03*
X253000Y140000D02*
D03*
X245000D02*
D03*
X202854Y256530D02*
D03*
X194854D02*
D03*
X135500Y266500D02*
D03*
X127500D02*
D03*
Y256500D02*
D03*
X135500D02*
D03*
D21*
X125807Y345000D02*
D03*
X114193D02*
D03*
X87693Y331500D02*
D03*
X99307D02*
D03*
X113693D02*
D03*
X125307D02*
D03*
D22*
X129646Y345000D02*
D03*
X110354D02*
D03*
X109854Y331500D02*
D03*
X129146D02*
D03*
D23*
X220783Y198500D02*
D03*
X226217D02*
D03*
X220701Y189551D02*
D03*
X226134D02*
D03*
D24*
X215000Y333000D02*
D03*
Y341000D02*
D03*
X207417Y53051D02*
D03*
Y61051D02*
D03*
X221417Y230051D02*
D03*
Y222051D02*
D03*
X261417Y193551D02*
D03*
Y185551D02*
D03*
X210417Y46551D02*
D03*
Y38551D02*
D03*
X207417Y105051D02*
D03*
Y113051D02*
D03*
X261417Y206551D02*
D03*
Y198551D02*
D03*
X241917Y48051D02*
D03*
Y40051D02*
D03*
X210417Y96051D02*
D03*
Y88051D02*
D03*
X177354Y236030D02*
D03*
Y244030D02*
D03*
X221354Y258030D02*
D03*
Y250030D02*
D03*
X253500Y314000D02*
D03*
Y322000D02*
D03*
D25*
X244000Y317248D02*
D03*
X234000Y335752D02*
D03*
X193936Y162252D02*
D03*
X203936Y143748D02*
D03*
D26*
X268149Y320044D02*
D03*
Y324044D02*
D03*
Y328044D02*
D03*
Y332044D02*
D03*
Y336044D02*
D03*
Y340044D02*
D03*
Y344044D02*
D03*
Y348044D02*
D03*
X268137Y228182D02*
D03*
Y232182D02*
D03*
Y236182D02*
D03*
Y240182D02*
D03*
Y244182D02*
D03*
Y248182D02*
D03*
Y252182D02*
D03*
Y256182D02*
D03*
D27*
X204917Y332000D02*
D03*
Y342000D02*
D03*
X182083Y332000D02*
D03*
Y342000D02*
D03*
D28*
X198917Y54335D02*
D03*
Y59768D02*
D03*
Y106335D02*
D03*
Y111768D02*
D03*
X233917Y46768D02*
D03*
Y41335D02*
D03*
D29*
X251417Y157551D02*
D03*
X246417D02*
D03*
Y162551D02*
D03*
Y167551D02*
D03*
X251417Y162551D02*
D03*
Y167551D02*
D03*
D30*
X234167Y72940D02*
D03*
D31*
X258667Y82060D02*
D03*
Y73000D02*
D03*
Y63940D02*
D03*
D32*
X222917Y38551D02*
D03*
X226667Y46551D02*
D03*
X219167D02*
D03*
X198917Y38551D02*
D03*
X202667Y46551D02*
D03*
X195167D02*
D03*
X169500Y323500D02*
D03*
X173250Y331500D02*
D03*
X165750D02*
D03*
X198917Y88051D02*
D03*
X202667Y96051D02*
D03*
X195167D02*
D03*
X222917Y88051D02*
D03*
X226667Y96051D02*
D03*
X219167D02*
D03*
D33*
X98500Y266551D02*
D03*
Y261551D02*
D03*
Y256551D02*
D03*
Y251551D02*
D03*
X121500D02*
D03*
Y256551D02*
D03*
Y261551D02*
D03*
Y266551D02*
D03*
X187436Y247479D02*
D03*
Y242479D02*
D03*
Y237479D02*
D03*
Y232479D02*
D03*
X210436D02*
D03*
Y237479D02*
D03*
Y242479D02*
D03*
Y247479D02*
D03*
D34*
X188417Y214551D02*
D03*
Y209551D02*
D03*
Y204551D02*
D03*
Y199551D02*
D03*
Y194551D02*
D03*
Y189551D02*
D03*
Y184551D02*
D03*
X209417Y194551D02*
D03*
Y199551D02*
D03*
Y204551D02*
D03*
Y209551D02*
D03*
Y214551D02*
D03*
Y184551D02*
D03*
Y189551D02*
D03*
D35*
X99405Y345500D02*
D03*
X87595D02*
D03*
D36*
X82500Y7500D02*
D03*
X314000Y381000D02*
D03*
D37*
X147500Y344770D02*
D03*
Y328230D02*
D03*
D39*
X180000Y46000D02*
D03*
Y142000D02*
D03*
X110000Y259000D02*
D03*
D40*
X160500Y33500D02*
D03*
Y59000D02*
D03*
Y154000D02*
D03*
Y130000D02*
D03*
X112500D02*
D03*
Y154000D02*
D03*
D41*
X221500Y369500D02*
D03*
X304000Y139000D02*
D03*
X23000Y201000D02*
D03*
X303500Y19000D02*
D03*
D42*
X300004Y268757D02*
D03*
Y215607D02*
D03*
X300016Y360619D02*
D03*
Y307469D02*
D03*
D43*
X65417Y319051D02*
D03*
Y339051D02*
D03*
Y359051D02*
D03*
Y299051D02*
D03*
Y279051D02*
D03*
Y259051D02*
D03*
Y239051D02*
D03*
X282500Y89500D02*
D03*
Y69500D02*
D03*
D44*
X258917Y165051D02*
D03*
X238917D02*
D03*
X258917Y152551D02*
D03*
X238917D02*
D03*
D45*
X248917D02*
D03*
X244917Y172551D02*
D03*
X252917D02*
D03*
D46*
X160543Y118429D02*
D03*
X112513D02*
D03*
X160543Y165673D02*
D03*
X112513D02*
D03*
X168417Y142051D02*
D03*
X65354Y141929D02*
D03*
Y121929D02*
D03*
Y101929D02*
D03*
Y81929D02*
D03*
Y61929D02*
D03*
Y41929D02*
D03*
Y21929D02*
D03*
X160543Y22429D02*
D03*
X112513D02*
D03*
X160543Y69673D02*
D03*
X112513D02*
D03*
X168417Y46051D02*
D03*
D47*
X65354Y161929D02*
D03*
D48*
X254000Y129000D02*
D03*
X264000D02*
D03*
X244000D02*
D03*
X234000D02*
D03*
X224000D02*
D03*
X193936Y153000D02*
D03*
X203936D02*
D03*
X244000Y326500D02*
D03*
X234000D02*
D03*
D49*
X274000Y129000D02*
D03*
D50*
X253000Y146500D02*
D03*
X277000Y328500D02*
D03*
X199000Y263000D02*
D03*
X182500Y194500D02*
D03*
X251000Y204000D02*
D03*
X278500Y231000D02*
D03*
X281000Y322500D02*
D03*
X215934Y172034D02*
D03*
X209500Y179500D02*
D03*
X284500Y237522D02*
D03*
X151500Y261500D02*
D03*
X130000Y197500D02*
D03*
X186500Y137500D02*
D03*
X200000Y207500D02*
D03*
X238127Y143506D02*
D03*
X215173Y247530D02*
D03*
X192992Y209551D02*
D03*
X211500Y138000D02*
D03*
X174936Y229479D02*
D03*
X175500Y191500D02*
D03*
X180854Y250479D02*
D03*
X175949Y93051D02*
D03*
X246500Y72940D02*
D03*
X236583Y109488D02*
D03*
X191278Y106335D02*
D03*
X226917Y109500D02*
D03*
X295000Y255500D02*
D03*
X215917Y209551D02*
D03*
X216000Y222500D02*
D03*
X284681Y252500D02*
D03*
X278500Y244000D02*
D03*
X277500Y344000D02*
D03*
X205500Y349000D02*
D03*
D51*
X252899Y146601D02*
Y154200D01*
Y146601D02*
X253000Y146500D01*
X244936Y156070D02*
X246417Y157551D01*
X244936Y140570D02*
Y156070D01*
Y140551D02*
Y140570D01*
X251417Y155682D02*
X252899Y154200D01*
X251417Y155682D02*
Y155964D01*
X248899Y170070D02*
Y179000D01*
Y170070D02*
X251417Y167551D01*
D52*
X244936Y140000D02*
Y140551D01*
X238127Y143506D02*
X241081Y140551D01*
X244936Y140570D02*
X245126Y140760D01*
X241081Y140551D02*
X244936D01*
X284000Y324613D02*
Y336000D01*
X281887Y322500D02*
X284000Y324613D01*
X268605Y328500D02*
X277000D01*
X268149Y328044D02*
X268605Y328500D01*
X268193Y336000D02*
X284000D01*
X256240Y158760D02*
X271874D01*
X252449Y162551D02*
X256240Y158760D01*
X251417Y162551D02*
X252449D01*
X222500Y57969D02*
X226917Y53551D01*
X182603Y195500D02*
X183551Y194551D01*
X176173Y263000D02*
X199000D01*
X176173Y245151D02*
X177324Y244000D01*
X176173Y245151D02*
Y263000D01*
X177324Y244000D02*
X177354Y244030D01*
X245551Y162551D02*
X246417D01*
X241820Y158820D02*
X245551Y162551D01*
X236336Y158820D02*
X241820D01*
X251417Y155964D02*
Y157551D01*
X202000Y172433D02*
Y197000D01*
X194449Y204551D02*
X202000Y197000D01*
X188417Y204551D02*
X194449D01*
X211500Y138000D02*
Y156000D01*
X198819Y168681D02*
X211500Y156000D01*
X198819Y168681D02*
Y194181D01*
X193503Y199497D02*
X198819Y194181D01*
X193503Y199497D02*
Y199551D01*
X177449Y189551D02*
X188417D01*
X188366Y194500D02*
X188417Y194551D01*
X182500Y194500D02*
X188366D01*
X182500D02*
Y195397D01*
X182603Y195500D01*
X175500Y191500D02*
X177449Y189551D01*
X211000Y341000D02*
X215000D01*
X210000Y342000D02*
X211000Y341000D01*
X204917Y342000D02*
X210000D01*
X248899Y179000D02*
X273500D01*
X238551Y204551D02*
X246500Y212500D01*
X273500Y179000D02*
Y210500D01*
X271500Y212500D02*
X273500Y210500D01*
X246500Y212500D02*
X271500D01*
X209417Y204551D02*
X238551D01*
X236314Y158843D02*
X236336Y158820D01*
X229000Y158843D02*
X236314D01*
X281000Y322500D02*
X281887D01*
X253500Y322937D02*
X254574Y321863D01*
X253500Y328044D02*
X268149D01*
X253500Y322937D02*
Y328044D01*
X234252Y335500D02*
X260500D01*
X234000Y335752D02*
X234252Y335500D01*
X260500D02*
X261000Y336000D01*
X261500D01*
X261544Y336044D01*
X268149D01*
X268193Y336000D01*
X283160Y236182D02*
X284500Y237522D01*
X268137Y236182D02*
X283160D01*
X261543D02*
X268137D01*
X259143Y238582D02*
X261543Y236182D01*
X277318Y232182D02*
X278500Y231000D01*
X268137Y232182D02*
X277318D01*
X234000Y326500D02*
Y335752D01*
X176795Y22429D02*
X192917Y38551D01*
X160543Y22429D02*
X176795D01*
X192917Y38551D02*
X198917D01*
X202000Y172433D02*
X217744Y156689D01*
X229000Y158843D02*
Y165000D01*
X216000Y179000D02*
X248721D01*
X210741Y173741D02*
X216000Y179000D01*
X210741Y169000D02*
X221500Y158241D01*
Y142969D02*
Y158241D01*
X210741Y169000D02*
Y173741D01*
X221500Y142969D02*
X233917Y130551D01*
X215934Y172034D02*
X221932D01*
X221949Y172051D01*
X209500Y179500D02*
Y184469D01*
X229000Y143917D02*
X243917Y129000D01*
X229000Y143917D02*
Y158843D01*
X284500Y237043D02*
Y237522D01*
X259361Y242000D02*
X261543Y244182D01*
X233724Y242000D02*
X259361D01*
X231694Y244030D02*
X233724Y242000D01*
X234246Y238582D02*
X259143D01*
X231694Y236030D02*
X234246Y238582D01*
X217744Y116000D02*
X247500D01*
X217744D02*
Y156689D01*
X247500Y97179D02*
Y116000D01*
X175500Y191500D02*
X176000D01*
X182509Y232508D02*
X187332D01*
X179479Y229479D02*
X182509Y232508D01*
X174936Y229479D02*
X179479D01*
X151449Y261551D02*
X151500Y261500D01*
X121500Y261551D02*
X151449D01*
X244000Y317248D02*
Y326500D01*
X98500Y252000D02*
X98500Y252000D01*
Y256551D01*
Y261551D02*
Y266551D01*
Y261000D02*
Y261551D01*
X98500Y261000D02*
X98500Y261000D01*
X200000Y205500D02*
X205949Y199551D01*
X200000Y205500D02*
Y207500D01*
X188417Y209551D02*
X192992D01*
X205949Y199551D02*
X209417D01*
Y184551D02*
X209500Y184469D01*
X188417Y199551D02*
X193503D01*
X273917Y129083D02*
X274000Y129000D01*
X221949Y172051D02*
X229000Y165000D01*
X187332Y232508D02*
X187354Y232530D01*
X180854Y250479D02*
X183802Y247530D01*
X187354D01*
X169417Y206051D02*
X176917Y213551D01*
X168917Y206051D02*
X169417D01*
X137917Y93051D02*
X175949D01*
X198917Y59768D02*
X202384D01*
X203667Y61051D01*
X207417D01*
X202667Y48301D02*
X207417Y53051D01*
X202667Y46551D02*
Y48301D01*
X198917Y38551D02*
Y42801D01*
X202667Y46551D01*
X218917Y53551D02*
X219167Y53301D01*
Y46551D02*
Y53301D01*
X226667D02*
X226917Y53551D01*
X226667Y46551D02*
Y53301D01*
X210417Y38551D02*
X222917D01*
X198917D02*
X210417D01*
X198917Y88051D02*
X199167Y88301D01*
X226667Y96051D02*
X226917Y96301D01*
Y103051D01*
X207417Y101929D02*
Y105051D01*
X202667Y97179D02*
X207417Y101929D01*
X202667Y96051D02*
Y97179D01*
X219013Y244030D02*
X221354D01*
X217513Y242530D02*
X219013Y244030D01*
X210354Y242530D02*
X217513D01*
X219013Y236030D02*
X221354D01*
X217513Y237530D02*
X219013Y236030D01*
X210354Y237530D02*
X217513D01*
X222500Y57969D02*
Y80500D01*
X235000Y93000D01*
X243321D01*
X247500Y97179D01*
X198917Y111768D02*
X206134D01*
X207417Y113051D01*
X226917Y103051D02*
Y109500D01*
X210417Y88051D02*
X222917D01*
X199167Y88301D02*
X202667D01*
Y96051D01*
X209417Y209551D02*
X215917D01*
X244000Y314000D02*
Y317248D01*
Y314000D02*
X253500D01*
X229354Y236030D02*
X231694D01*
X268137Y252182D02*
X284363D01*
X268193Y344000D02*
X277500D01*
X268149Y344044D02*
X268193Y344000D01*
X284363Y252182D02*
X284681Y252500D01*
X229354Y244030D02*
X231694D01*
X268137Y232182D02*
X268319Y232000D01*
X261543Y244182D02*
X268137D01*
X278318D01*
X278500Y244000D01*
X204917Y348417D02*
X205500Y349000D01*
X204917Y342000D02*
Y348417D01*
D53*
X210354Y247530D02*
X215173D01*
X181506Y223000D02*
X216000D01*
X244917Y139981D02*
X244936Y140000D01*
X244917Y134709D02*
Y139981D01*
Y134709D02*
X262208D01*
X264000Y132917D01*
X168917Y184634D02*
X169000Y184551D01*
X176917Y218411D02*
X181506Y223000D01*
X176917Y213551D02*
Y218411D01*
X264000Y129000D02*
Y132917D01*
X168917Y184634D02*
Y198051D01*
X216949Y222051D02*
X221417D01*
X168917Y198051D02*
Y206051D01*
X198917Y50301D02*
Y54335D01*
X195167Y46551D02*
X198917Y50301D01*
X202854Y256530D02*
X208354D01*
X210354Y254530D01*
Y247530D02*
Y254530D01*
X241917Y40051D02*
X246453D01*
X250453Y44051D01*
X234167Y72940D02*
X236788D01*
X246500D01*
X249500Y45004D02*
X250453Y44051D01*
X249500Y45004D02*
Y60228D01*
X236788Y72940D02*
X249500Y60228D01*
D54*
X275456Y324044D02*
X277000Y322500D01*
X268149Y324044D02*
X275456D01*
X277000Y322500D02*
X281000D01*
X226134Y198051D02*
X226634Y198551D01*
X261417D01*
X254866Y185551D02*
X261417D01*
X250866Y189551D02*
X254866Y185551D01*
X226134Y189551D02*
X250866D01*
D55*
X187354Y237530D02*
Y242530D01*
X178600Y177700D02*
X186500Y169800D01*
X171000Y177700D02*
X178600D01*
X176917Y198051D02*
X178417Y199551D01*
X190165Y54335D02*
X198917D01*
X174827Y69673D02*
X190165Y54335D01*
X160543Y69673D02*
X174827D01*
X186500Y137500D02*
Y169800D01*
X169000Y179700D02*
X171000Y177700D01*
X193936Y153000D02*
Y162252D01*
X193936Y162252D02*
X193936D01*
X193936D02*
X193936Y162252D01*
X169000Y184551D02*
Y184700D01*
Y179700D02*
Y184551D01*
X209417Y189551D02*
X220701D01*
X216917Y198051D02*
X220701D01*
X213417Y194551D02*
X216917Y198051D01*
X209417Y194551D02*
X213417D01*
X188417Y184551D02*
X191449D01*
X193917Y182083D01*
X218917Y96301D02*
X219167Y96051D01*
X218917Y96301D02*
Y103051D01*
X178417Y199551D02*
X188417D01*
X182917Y214551D02*
X188417D01*
X181917Y213551D02*
X182917Y214551D01*
X176917Y213551D02*
X181917D01*
X177417Y184551D02*
X188417D01*
X183500Y85500D02*
X191500Y77500D01*
X88925Y85500D02*
X183500D01*
X190921Y88051D02*
X198917D01*
X65354Y61929D02*
X88925Y85500D01*
X85917Y93051D02*
X129917D01*
X74795Y81929D02*
X85917Y93051D01*
X65354Y81929D02*
X74795D01*
X198917Y88051D02*
X210417D01*
X160543Y118429D02*
X162122D01*
X233917Y46768D02*
X235201Y48051D01*
X241917D01*
X176917Y206051D02*
X180917D01*
X184417Y209551D01*
X188417D01*
X177354Y244030D02*
X180854D01*
X182354Y242530D01*
X187354D01*
X193917Y162271D02*
Y182083D01*
Y162271D02*
X193936Y162252D01*
X258667Y82060D02*
X259417Y82810D01*
X210417Y96051D02*
X219167D01*
X259917Y89500D02*
X282500D01*
X259417Y90000D02*
X259917Y89500D01*
X259417Y82810D02*
Y90000D01*
Y103000D01*
X121500Y266551D02*
X121551Y266500D01*
X128000D01*
X121500Y256551D02*
X128000D01*
X236583Y103000D02*
Y109488D01*
X160543Y118429D02*
X190921Y88051D01*
X268105Y340000D02*
X268149Y340044D01*
X191278Y106335D02*
X198917D01*
X195167Y96051D02*
Y106002D01*
X195500Y106335D01*
X259000Y248182D02*
X268137D01*
X259000Y348044D02*
X268149D01*
X260000Y340000D02*
X268105D01*
X268137Y256182D02*
Y257000D01*
X165750Y331500D02*
Y343790D01*
X174000Y342000D02*
X182083D01*
X171500Y344500D02*
X174000Y342000D01*
X166000Y344500D02*
X171500D01*
X147770D02*
X158000D01*
X147500Y344770D02*
X147770Y344500D01*
X129146Y331500D02*
Y344500D01*
X129416Y344770D02*
X129646Y345000D01*
X129416Y344770D02*
X147500D01*
X129146Y344500D02*
X129416Y344770D01*
D56*
X147000Y317500D02*
X163500D01*
X169500Y323500D01*
X257500Y340000D02*
X260000D01*
X169500Y323500D02*
X173250Y327250D01*
Y331500D01*
D57*
X147000Y313500D02*
Y317500D01*
X227000Y343500D02*
X231544Y348044D01*
X227000Y265000D02*
Y343500D01*
Y265000D02*
X235000Y257000D01*
X79500Y359000D02*
X87717Y350783D01*
X65500Y359000D02*
X79500D01*
X290000Y260500D02*
X295000Y255500D01*
X128000Y379000D02*
X135500Y371500D01*
X195000D01*
X254818Y248182D02*
X259000D01*
X251182Y251818D02*
X254818Y248182D01*
X254544Y348044D02*
X259000D01*
X254544Y342956D02*
Y348044D01*
Y342956D02*
X257500Y340000D01*
X231544Y348044D02*
X254544D01*
X251182Y251818D02*
Y257000D01*
X268137D01*
X235000D02*
X250364D01*
X251182Y256182D01*
X281000Y260500D02*
X290000D01*
X268137Y257000D02*
X277500D01*
X281000Y260500D01*
X147000Y327730D02*
X147500Y328230D01*
X147000Y317500D02*
Y327730D01*
X87717Y338151D02*
Y350783D01*
X65417Y319051D02*
X71449D01*
X84000Y306500D01*
X140000D01*
X147000Y313500D01*
X87595Y332098D02*
X87693Y332000D01*
X87595Y332098D02*
Y345500D01*
X43000Y345000D02*
X48949Y339051D01*
X65417D01*
X43000Y345000D02*
Y372000D01*
X50000Y379000D01*
X128000D01*
D58*
X51571Y141929D02*
X168417D01*
X44000Y149500D02*
X51571Y141929D01*
X112513Y22429D02*
X136135Y46051D01*
X65354Y41929D02*
X84769D01*
X112513Y69673D01*
X136135Y46051D02*
X168417D01*
X84917Y118429D02*
X112513D01*
X81418Y121929D02*
X84917Y118429D01*
X65354Y121929D02*
X81418D01*
X65354Y161929D02*
X69099Y165673D01*
X112513D01*
X65354Y21929D02*
X112513D01*
X65417Y195417D02*
Y239051D01*
X44000Y149500D02*
Y174000D01*
X65417Y195417D01*
X35000Y252000D02*
X47949Y239051D01*
X65417D01*
X35000Y252000D02*
Y308500D01*
X45551Y319051D01*
X65417D01*
D59*
X86500Y268051D02*
X86826Y267726D01*
X75500Y279051D02*
X86500Y268051D01*
X86000Y279051D02*
X97200D01*
X65417Y239051D02*
X75551D01*
X72949Y279051D02*
X73000Y279000D01*
X65417Y279051D02*
X72949D01*
X86500Y268000D02*
Y268051D01*
X75551Y239051D02*
X97000D01*
X75551D02*
X86500Y250000D01*
D60*
X121500Y251480D02*
Y251551D01*
D61*
X173750Y332000D02*
X182083D01*
X173250Y331500D02*
X173750Y332000D01*
D62*
X99405Y338029D02*
Y345500D01*
X109854Y331500D02*
X110354Y332000D01*
Y338151D01*
Y345000D01*
X99527Y338151D02*
X110354D01*
X99307Y332000D02*
X99527Y332220D01*
Y338151D01*
D63*
X99750Y248000D02*
D03*
D64*
X99500Y270000D02*
D03*
D65*
X79000Y279250D02*
D03*
D66*
X240000Y70030D02*
D03*
D67*
X86000Y253500D02*
D03*
X78500Y247500D02*
D03*
Y234500D02*
D03*
X87000D02*
D03*
X95000D02*
D03*
X78500Y270500D02*
D03*
X86000Y264000D02*
D03*
X101000Y277000D02*
D03*
X95000Y283500D02*
D03*
X87000D02*
D03*
X78500D02*
D03*
X101000Y242500D02*
D03*
M02*
