M48
;Layer_Color=9474304
;FILE_FORMAT=2:5
INCH,LZ
;TYPE=PLATED
T1F00S00C0.02362
T2F00S00C0.03937
T3F00S00C0.05118
T4F00S00C0.05512
T5F00S00C0.16535
;TYPE=NON_PLATED
T6F00S00C0.03937
T8F00S00C0.09055
%
T01
X0175949Y0093051
X0191278Y0106335
X01865Y01375
X02115Y0138
X0238127Y0143506
X0236583Y0109488
X0226917Y01095
X02465Y007294
X02785Y0232
X0284Y0236
X02785Y0244
X0284681Y02525
X0295Y02555
X02815Y0323
X0215173Y024753
X0216Y02225
X0215917Y0209551
X02Y02075
X0192992Y0209551
X0182Y0193
X01755Y01915
X0174936Y0229479
X0180854Y0250479
X0198436Y023753
X02095Y01795
X0215917Y0172051
X0248721Y0182083
Y0204803
X0144Y0261
X0101Y0277
Y02425
X0095Y02345
X0087
X00785
Y02475
X0086Y02535
Y0264
X00785Y02705
Y02835
X0087
X0095
X02055Y0349
X02775Y0344
X0277456Y0328044
T02
X0193936Y0153
X0203936
X0224Y0129
X0234
X0244
X0254
X0264
X0274
X0244Y03265
X0234
T03
X0112513Y0022429
Y0069673
X0160543
X0168417Y0046051
X0160543Y0022429
Y0118429
X0168417Y0142051
X0160543Y0165673
X0112513
Y0118429
X0300004Y0215607
Y0268757
X0300016Y0307469
Y0360619
T04
X0065354Y0021929
Y0041929
Y0061929
Y0081929
Y0101929
Y0121929
Y0141929
Y0161929
X02825Y00895
Y00695
X0065417Y0239051
Y0259051
Y0279051
Y0299051
Y0319051
Y0339051
Y0359051
T05
X03035Y0019
X0304Y0139
X0023Y0201
X02215Y03695
T06
X0248917Y0152551
X0244917Y0172551
X0252917
T08
X0238917Y0152551
Y0165051
X0258917
Y0152551
M30
