M48
;Layer_Color=6899487
;FILE_FORMAT=2:5
INCH,LZ
;TYPE=PLATED
T1F00S00C0.02362
T2F00S00C0.04723
T3F00S00C0.05118
T4F00S00C0.05512
T5F00S00C0.06299
T6F00S00C0.08661
T7F00S00C0.16535
;TYPE=NON_PLATED
T8F00S00C0.03937
T9F00S00C0.09055
%
T01
X-0074Y-0034
X0013Y-00515
X00255Y-00435
Y-00605
X00485Y-0074
X0058Y-0066
X0060294Y-0088773
X0079979
X00805Y-00965
X0079979Y-0128144
X0060294
X0040609
X0020924
X0001239
X00505Y-0048
X00475Y-00185
X0038Y-00195
X0047Y-0004
X0068016Y0000483
X00745Y00005
X00815Y-00215
X00635
X00175Y-00145
X0009441Y-0005441
X0026Y00005
X01545Y00015
X0155Y-00095
X0148876Y-0029718
X0139034Y-0049403
X0112Y-0048
X01165Y-0057
X0109Y-00885
X0099664Y-0088773
X0102Y-00965
Y-0104567
X0099664Y-0128144
X0119349
X0139034
X0148876Y-0108458
X0154717Y-0103783
X01545Y-00965
X0148876Y-0069088
X0124Y-00885
X0129191Y0049022
X0148876
X0119349Y0068707
X0129191Y0088392
X0109506
X0099664Y0108077
X0109506Y0127762
X0129191
X0089821
X0070136
X0050451
X0030766
X0011081
X-0008604
X-0028289
X-0018446Y0108077
X0001239
X0020924
X0011081Y0088392
X0015Y0078
Y00625
X00265Y0055
X00275Y00385
X00315Y0014
X00525Y0019
X00645Y00155
X0064Y0009
X00645Y0028
X0050451Y0049022
X0052Y0067
X0040609Y0068707
X0050451Y0088392
X0070136
X0089821
X0079979Y0108077
X-0008604Y0088392
X-0028289
X-0018446Y0068707
X-0038131
X-0028289Y0049022
X-0018446Y0029337
X-0038131
X-0008604Y0009652
X00035Y001
X00005Y00425
X-0038131Y0108077
T02
X-0057947Y00415
X-0028053Y0071393
Y0011607
T03
X-0074Y-0102244
Y-0055
X-002597
X-0018096Y-0078622
X-002597Y-0102244
T04
X-0119Y-0086
Y-0066
X-01185Y-002
Y0
Y002
X-0118Y0055
Y0075
Y0095
T05
X0146Y-0080181
Y-0019
X01455Y0019
Y0080181
T06
X-0079Y00115
Y00715
T07
X-0151575Y-0133858
X0151575
Y0133858
X-0151575
T08
X00475Y-0043
X00435Y-0023
X00515
T09
X00375Y-0043
Y-00305
X00575
Y-0043
M30
