%FSLAX25Y25*%
%MOIN*%
G70*
G01*
G75*
G04 Layer_Physical_Order=1*
G04 Layer_Color=255*
%ADD10C,0.03937*%
%ADD11R,0.25000X0.02992*%
%ADD12R,0.03500X0.05000*%
%ADD13R,0.05910X0.03030*%
%ADD14R,0.11024X0.20276*%
%ADD15R,0.05000X0.03500*%
%ADD16R,0.03000X0.04000*%
%ADD17R,0.03543X0.13583*%
%ADD18C,0.03100*%
%ADD19R,0.04000X0.02854*%
%ADD20R,0.08465X0.02362*%
%ADD21R,0.04724X0.12992*%
%ADD22R,0.11023X0.05000*%
%ADD23R,0.08465X0.09449*%
%ADD24R,0.09449X0.08465*%
%ADD25R,0.08661X0.05000*%
%ADD26R,0.05000X0.08661*%
%ADD27R,0.03030X0.05910*%
%ADD28R,0.08000X0.06000*%
%ADD29R,0.08000X0.15000*%
%ADD30R,0.10236X0.03150*%
%ADD31R,0.06000X0.02500*%
%ADD32C,0.01000*%
%ADD33C,0.01500*%
%ADD34C,0.01181*%
%ADD35C,0.02756*%
%ADD36C,0.01969*%
%ADD37C,0.15748*%
%ADD38C,0.09843*%
%ADD39C,0.11811*%
%ADD40C,0.03937*%
%ADD41C,0.01575*%
%ADD42C,0.02362*%
%ADD43C,0.13780*%
%ADD44C,0.19685*%
%ADD45C,0.12598*%
%ADD46C,0.16000*%
%ADD47C,0.09843*%
%ADD48C,0.11811*%
%ADD49C,0.09055*%
%ADD50C,0.03900*%
%ADD51C,0.16533*%
%ADD52C,0.10000*%
%ADD53C,0.05000*%
G36*
X112792Y-27255D02*
Y-43615D01*
X112416Y-43945D01*
X112000Y-43890D01*
X110936Y-44030D01*
X109945Y-44441D01*
X109555Y-44740D01*
X109106Y-44519D01*
X109106Y-44241D01*
X109106Y-44241D01*
X109106D01*
Y-42591D01*
X82106D01*
Y-44241D01*
X82106Y-44241D01*
X82106D01*
X82106Y-44587D01*
Y-44591D01*
Y-44594D01*
X82106Y-44940D01*
X82106Y-44940D01*
X82106D01*
Y-46591D01*
X95606D01*
Y-47591D01*
X82106D01*
Y-49020D01*
X81532D01*
Y-55161D01*
Y-60163D01*
Y-64112D01*
X80324D01*
X79886Y-63674D01*
X79269Y-63200D01*
X78550Y-62903D01*
X77780Y-62801D01*
X68846D01*
Y-57414D01*
X67390D01*
X67199Y-56951D01*
X71825Y-52325D01*
X72235Y-51791D01*
X72418Y-51350D01*
X72493Y-51168D01*
X72581Y-50500D01*
Y-10075D01*
X78825D01*
Y-8978D01*
X79000D01*
X79771Y-8877D01*
X80489Y-8579D01*
X81106Y-8106D01*
X82106Y-7106D01*
X82106Y-7106D01*
X82579Y-6489D01*
X82877Y-5771D01*
X82978Y-5000D01*
Y1906D01*
X83440Y2097D01*
X112792Y-27255D01*
D02*
G37*
G36*
X51436Y15030D02*
X52500Y14890D01*
X53549Y15028D01*
X53925Y14698D01*
Y11175D01*
Y6175D01*
Y1175D01*
Y-3825D01*
Y-8825D01*
X63075D01*
Y-8370D01*
X64175D01*
Y-10075D01*
X67419D01*
Y-20630D01*
X66920Y-20662D01*
X66910Y-20586D01*
X66557Y-19735D01*
X65996Y-19004D01*
X65265Y-18443D01*
X64414Y-18090D01*
X64000Y-18036D01*
Y-21500D01*
Y-24964D01*
X64414Y-24910D01*
X65265Y-24557D01*
X65996Y-23996D01*
X66557Y-23265D01*
X66910Y-22414D01*
X66920Y-22337D01*
X67419Y-22370D01*
Y-49431D01*
X63931Y-52919D01*
X23500D01*
X22832Y-53007D01*
X22650Y-53082D01*
X22209Y-53265D01*
X21675Y-53675D01*
X13175Y-62175D01*
X12765Y-62709D01*
X12636Y-63021D01*
X12507Y-63332D01*
X12419Y-64000D01*
Y-70425D01*
X12419D01*
X12325D01*
X12065Y-70425D01*
X12065Y-70425D01*
Y-70425D01*
X6175D01*
Y-77575D01*
X12065D01*
X12065Y-77575D01*
Y-77575D01*
X12325Y-77575D01*
X12419Y-77669D01*
Y-78431D01*
X9037Y-81813D01*
X8575Y-81622D01*
Y-78425D01*
X2425D01*
Y-81424D01*
X1462Y-82388D01*
X1000Y-82196D01*
Y-77575D01*
X4825D01*
Y-70425D01*
X4728D01*
Y-65750D01*
X4728Y-65750D01*
X4639Y-65069D01*
X4627Y-64979D01*
X4329Y-64261D01*
X3856Y-63644D01*
X3856Y-63644D01*
X-6894Y-52894D01*
X-7511Y-52421D01*
X-8229Y-52123D01*
X-9000Y-52022D01*
X-15000D01*
Y-30181D01*
X-15000D01*
X-14815D01*
X-14646Y-30181D01*
X-14646Y-30181D01*
Y-30181D01*
X-10083D01*
Y-28000D01*
Y-25819D01*
X-14646D01*
X-14646Y-25819D01*
Y-25819D01*
X-14815Y-25819D01*
X-15000Y-25634D01*
Y-20756D01*
X-4575D01*
Y-22325D01*
X3575D01*
Y-21370D01*
X13000D01*
X13907Y-21190D01*
X14676Y-20676D01*
X16830Y-18522D01*
X17500Y-18610D01*
X18269Y-18509D01*
X18490Y-18957D01*
X13671Y-23777D01*
X13261Y-24311D01*
X13132Y-24622D01*
X13003Y-24934D01*
X12915Y-25602D01*
Y-37925D01*
X9590D01*
Y-46075D01*
X21402D01*
Y-45535D01*
X21892Y-45437D01*
X21941Y-45555D01*
X22594Y-46406D01*
X23445Y-47059D01*
X24436Y-47470D01*
X25500Y-47610D01*
X26046Y-47538D01*
X29504Y-50996D01*
X30190Y-51454D01*
X31000Y-51615D01*
X42000D01*
X42810Y-51454D01*
X43496Y-50996D01*
X43496Y-50996D01*
X43496Y-50996D01*
X45346Y-49145D01*
X45346Y-49145D01*
X45346Y-49145D01*
X45805Y-48459D01*
X45894Y-48011D01*
X46394Y-48028D01*
X46530Y-49064D01*
X46941Y-50055D01*
X47594Y-50906D01*
X48445Y-51559D01*
X49436Y-51970D01*
X50500Y-52110D01*
X51564Y-51970D01*
X52555Y-51559D01*
X53406Y-50906D01*
X54059Y-50055D01*
X54470Y-49064D01*
X54506Y-48786D01*
X54951Y-48557D01*
X55153Y-48665D01*
X56304Y-49014D01*
X57500Y-49132D01*
X58696Y-49014D01*
X59847Y-48665D01*
X60907Y-48098D01*
X61836Y-47336D01*
X62599Y-46407D01*
X63165Y-45347D01*
X63514Y-44196D01*
X63632Y-43000D01*
X63514Y-41804D01*
X63165Y-40653D01*
X62599Y-39593D01*
X61836Y-38664D01*
X60907Y-37901D01*
X59847Y-37335D01*
X58743Y-37000D01*
Y-36500D01*
X59847Y-36165D01*
X60907Y-35598D01*
X61836Y-34836D01*
X62599Y-33907D01*
X63165Y-32847D01*
X63514Y-31696D01*
X63632Y-30500D01*
X63514Y-29304D01*
X63165Y-28153D01*
X62599Y-27093D01*
X61836Y-26164D01*
X60907Y-25401D01*
X59847Y-24835D01*
X58696Y-24486D01*
X57500Y-24368D01*
X56304Y-24486D01*
X55153Y-24835D01*
X55065Y-24882D01*
X54695Y-24546D01*
X54952Y-23925D01*
X55074Y-23000D01*
X54952Y-22075D01*
X54595Y-21213D01*
X54027Y-20473D01*
X53287Y-19905D01*
X52425Y-19548D01*
X51500Y-19426D01*
X51489Y-19415D01*
X51610Y-18500D01*
X51470Y-17436D01*
X51059Y-16445D01*
X50406Y-15594D01*
X49555Y-14941D01*
X48564Y-14530D01*
X47500Y-14390D01*
X46436Y-14530D01*
X45445Y-14941D01*
X44594Y-15594D01*
X43941Y-16445D01*
X43530Y-17436D01*
X43390Y-18500D01*
X43511Y-19415D01*
X43500Y-19426D01*
X42575Y-19548D01*
X42519Y-19571D01*
X42086Y-19321D01*
X41970Y-18436D01*
X41559Y-17445D01*
X40906Y-16594D01*
X40055Y-15941D01*
X39064Y-15530D01*
X38000Y-15390D01*
X36936Y-15530D01*
X35945Y-15941D01*
X35094Y-16594D01*
X34441Y-17445D01*
X34030Y-18436D01*
X33890Y-19500D01*
X34020Y-20488D01*
X29504Y-25004D01*
X29046Y-25690D01*
X28885Y-26500D01*
Y-27750D01*
X28500D01*
Y-27750D01*
X25500D01*
Y-30500D01*
Y-33250D01*
X28500D01*
Y-33250D01*
X28531D01*
X28885Y-33604D01*
Y-34917D01*
X28673Y-35175D01*
X20925D01*
Y-37925D01*
X18077D01*
Y-26671D01*
X30825Y-13923D01*
X31235Y-13388D01*
X31364Y-13077D01*
X31493Y-12766D01*
X31581Y-12098D01*
Y-10075D01*
X32325D01*
Y-8370D01*
X32925D01*
Y-8825D01*
X42075D01*
Y-3825D01*
Y-3046D01*
X42107Y-3040D01*
X42823Y-2561D01*
X42823Y-2561D01*
X42823Y-2561D01*
X43856Y-1529D01*
X44232Y-1858D01*
X43943Y-2235D01*
X43590Y-3086D01*
X43536Y-3500D01*
X46500D01*
Y-536D01*
X46086Y-590D01*
X45235Y-943D01*
X44858Y-1232D01*
X44529Y-856D01*
X49423Y4039D01*
X49902Y4755D01*
X50070Y5600D01*
Y15146D01*
X50486Y15424D01*
X51436Y15030D01*
D02*
G37*
G36*
X117000Y36000D02*
Y14000D01*
X112000Y9000D01*
Y-5000D01*
X115175Y-7128D01*
Y-7575D01*
X115842D01*
X131528Y-18086D01*
Y-28803D01*
X137742D01*
X138095Y-29157D01*
X138048Y-45423D01*
X137970Y-45433D01*
X136979Y-45844D01*
X136128Y-46497D01*
X135475Y-47348D01*
X135064Y-48340D01*
X134924Y-49403D01*
X135064Y-50467D01*
X135475Y-51458D01*
X136128Y-52310D01*
X136979Y-52963D01*
X137970Y-53373D01*
X138025Y-53380D01*
X138000Y-62000D01*
X129575Y-70000D01*
X109106D01*
Y-69587D01*
X109106D01*
Y-67590D01*
X95606D01*
Y-66590D01*
X109106D01*
Y-64595D01*
D01*
Y-64595D01*
X109106Y-64595D01*
Y-64587D01*
X109106D01*
Y-62590D01*
X95606D01*
Y-61590D01*
X109106D01*
Y-61000D01*
X114288D01*
X114631Y-60636D01*
X115436Y-60970D01*
X116500Y-61110D01*
X117564Y-60970D01*
X118555Y-60559D01*
X119406Y-59906D01*
X120059Y-59055D01*
X120470Y-58064D01*
X120610Y-57000D01*
X120470Y-55936D01*
X120059Y-54945D01*
X119406Y-54094D01*
X119023Y-53800D01*
X119402Y-53233D01*
X119570Y-52389D01*
Y-25362D01*
X119402Y-24517D01*
X118923Y-23801D01*
X92000Y3122D01*
Y29594D01*
X94606D01*
Y32091D01*
X95106D01*
Y32591D01*
X108606D01*
Y34587D01*
D01*
Y34587D01*
X108606Y34587D01*
Y34595D01*
X108606D01*
Y36591D01*
X95106D01*
Y37591D01*
X108606D01*
Y38000D01*
X115000D01*
X117000Y36000D01*
D02*
G37*
G36*
X30175Y45175D02*
X30709Y44765D01*
X31332Y44507D01*
X31970Y44423D01*
Y43910D01*
Y38910D01*
Y35208D01*
X29737D01*
X29576Y35681D01*
X29996Y36004D01*
X30557Y36735D01*
X30910Y37586D01*
X30964Y38000D01*
X27500D01*
Y39000D01*
X30964D01*
X30910Y39414D01*
X30557Y40265D01*
X30000Y40991D01*
Y41000D01*
X26500D01*
Y41500D01*
X26000D01*
Y44250D01*
X23000D01*
Y44250D01*
X22928D01*
X22575Y44604D01*
Y45825D01*
D01*
Y45825D01*
X22925Y46175D01*
X29175D01*
X30175Y45175D01*
D02*
G37*
G36*
X-69000Y111000D02*
Y66000D01*
Y65000D01*
X-72103Y62000D01*
X-78539D01*
X-78540Y62003D01*
X-79460D01*
X-79461Y62000D01*
X-87621D01*
X-92793Y67000D01*
X-93828Y68000D01*
Y88000D01*
X-113377D01*
X-113729Y88146D01*
X-114732Y88387D01*
X-114796Y88882D01*
X-114145Y89231D01*
X-113093Y90093D01*
X-112231Y91145D01*
X-111589Y92345D01*
X-111194Y93646D01*
X-111110Y94500D01*
X-124890D01*
X-124806Y93646D01*
X-124411Y92345D01*
X-123769Y91145D01*
X-122907Y90093D01*
X-121931Y89293D01*
X-122100Y88822D01*
X-128816D01*
X-129000Y89000D01*
Y110000D01*
X-125897Y113000D01*
X-71069D01*
X-69000Y111000D01*
D02*
G37*
G36*
X166885Y-148884D02*
X-14636D01*
X-14989Y-148530D01*
X-14819Y-109581D01*
X4000D01*
X4668Y-109493D01*
X4979Y-109364D01*
X5291Y-109235D01*
X5500Y-109075D01*
X8575D01*
Y-101925D01*
X2425D01*
Y-104419D01*
X81D01*
Y-100500D01*
X1250D01*
Y-97500D01*
Y-94500D01*
X81D01*
Y-91069D01*
X5576Y-85575D01*
X6669D01*
Y-93925D01*
X6175D01*
Y-101075D01*
X12325D01*
Y-93925D01*
X11831D01*
Y-86319D01*
X13713Y-84437D01*
X14175Y-84628D01*
Y-101635D01*
X16772D01*
Y-104250D01*
X16873Y-105021D01*
X17171Y-105739D01*
X17644Y-106356D01*
X22394Y-111106D01*
X22394Y-111106D01*
X23011Y-111579D01*
X23729Y-111877D01*
X24500Y-111978D01*
X76000D01*
X76771Y-111877D01*
X77489Y-111579D01*
X78106Y-111106D01*
X78106Y-111106D01*
X78106Y-111106D01*
X81734Y-107478D01*
X85675D01*
Y-108575D01*
X92325D01*
Y-100575D01*
Y-92425D01*
X85675D01*
Y-93919D01*
X83656D01*
X83406Y-93594D01*
X82555Y-92941D01*
X81564Y-92530D01*
X81377Y-92506D01*
X81312Y-92010D01*
X81744Y-91831D01*
X82475Y-91270D01*
X83036Y-90539D01*
X83389Y-89687D01*
X83443Y-89273D01*
X76514D01*
X76569Y-89687D01*
X76921Y-90539D01*
X77482Y-91270D01*
X78214Y-91831D01*
X79065Y-92183D01*
X78995Y-92713D01*
X78445Y-92941D01*
X77594Y-93594D01*
X76941Y-94445D01*
X76530Y-95436D01*
X76390Y-96500D01*
X76530Y-97564D01*
X76941Y-98555D01*
X77594Y-99406D01*
X78445Y-100059D01*
X79436Y-100470D01*
X80500Y-100610D01*
X81564Y-100470D01*
X82555Y-100059D01*
X83406Y-99406D01*
X83656Y-99081D01*
X85675D01*
Y-100575D01*
Y-101522D01*
X80500D01*
X79729Y-101623D01*
X79011Y-101921D01*
X78394Y-102394D01*
X74766Y-106022D01*
X49250D01*
Y-105560D01*
X49250D01*
Y-102060D01*
X39250D01*
Y-105560D01*
X39250D01*
Y-105668D01*
X38896Y-106022D01*
X25734D01*
X22728Y-103016D01*
Y-101635D01*
X25325D01*
Y-83485D01*
X24380D01*
X24189Y-83023D01*
X27807Y-79405D01*
X28280Y-78788D01*
X28578Y-78070D01*
X28679Y-77299D01*
Y-70650D01*
X32394D01*
Y-70075D01*
X37799D01*
Y-67500D01*
Y-64925D01*
X32394D01*
Y-64350D01*
X28679D01*
Y-63051D01*
X29059Y-62555D01*
X29470Y-61564D01*
X29610Y-60500D01*
X29470Y-59436D01*
X29081Y-58497D01*
X29359Y-58081D01*
X62154D01*
Y-62801D01*
X60525D01*
X60055Y-62441D01*
X59064Y-62030D01*
X58000Y-61890D01*
X56936Y-62030D01*
X55945Y-62441D01*
X55094Y-63094D01*
X54441Y-63945D01*
X54030Y-64936D01*
X53890Y-66000D01*
X54030Y-67064D01*
X54441Y-68055D01*
X55022Y-68812D01*
Y-75766D01*
X50326Y-80462D01*
X49825D01*
Y-78865D01*
X38675D01*
Y-88015D01*
Y-97075D01*
X39250D01*
Y-97560D01*
X39250D01*
Y-101060D01*
X49250D01*
Y-97560D01*
X49250D01*
Y-97428D01*
X49604Y-97075D01*
X49825D01*
Y-88015D01*
Y-86418D01*
X51560D01*
X52331Y-86317D01*
X53049Y-86019D01*
X53666Y-85546D01*
X60106Y-79106D01*
X60106Y-79106D01*
X60579Y-78489D01*
X60877Y-77771D01*
X60889Y-77681D01*
X60978Y-77000D01*
X60978Y-77000D01*
Y-68812D01*
X61020Y-68758D01*
X62154D01*
Y-74146D01*
X68846D01*
Y-68758D01*
X76546D01*
X76985Y-69196D01*
X76985Y-69196D01*
X77334Y-69464D01*
X77601Y-69670D01*
X78320Y-69967D01*
X79090Y-70069D01*
X81532D01*
Y-70161D01*
X107533D01*
X107623Y-70614D01*
X107971Y-71135D01*
X108492Y-71483D01*
X109106Y-71606D01*
X129575D01*
X129861Y-71549D01*
X130150Y-71499D01*
X130168Y-71488D01*
X130189Y-71483D01*
X130432Y-71321D01*
X130680Y-71164D01*
X136142Y-65978D01*
X146403D01*
X146563Y-66452D01*
X146380Y-66592D01*
X145819Y-67323D01*
X145466Y-68175D01*
X145412Y-68588D01*
X152341D01*
X152286Y-68175D01*
X151934Y-67323D01*
X151373Y-66592D01*
X151190Y-66452D01*
X151304Y-66116D01*
X151790Y-66002D01*
X158022Y-72234D01*
Y-88281D01*
X157425D01*
Y-93043D01*
X156977Y-93264D01*
X156555Y-92941D01*
X155564Y-92530D01*
X154500Y-92390D01*
X153436Y-92530D01*
X152445Y-92941D01*
X151594Y-93594D01*
X150941Y-94445D01*
X150530Y-95436D01*
X150390Y-96500D01*
X150530Y-97564D01*
X150941Y-98555D01*
X151594Y-99406D01*
X152335Y-99975D01*
Y-100325D01*
X152244Y-100545D01*
X151810Y-100877D01*
X151157Y-101728D01*
X150747Y-102720D01*
X150607Y-103783D01*
X150747Y-104847D01*
X150795Y-104965D01*
X150442Y-105318D01*
X149790Y-105049D01*
X149376Y-104994D01*
Y-107958D01*
X152341D01*
X152319Y-107790D01*
X152580Y-107449D01*
X152699Y-107358D01*
X153653Y-107753D01*
X154717Y-107893D01*
X155780Y-107753D01*
X156772Y-107343D01*
X157498Y-106785D01*
X158000D01*
D01*
Y-106789D01*
X158000Y-107139D01*
X158000Y-107139D01*
X158000D01*
Y-108717D01*
X164000D01*
Y-107139D01*
X164000Y-107139D01*
D01*
D01*
X164000Y-106789D01*
D01*
X164004Y-106785D01*
X164575D01*
Y-100781D01*
X157498D01*
X156882Y-100309D01*
Y-100072D01*
X157235Y-99719D01*
X157425D01*
Y-99719D01*
X164575D01*
Y-94285D01*
Y-88281D01*
X163978D01*
Y-71000D01*
X163978Y-71000D01*
X163927Y-70615D01*
X163877Y-70229D01*
X163579Y-69511D01*
X163106Y-68894D01*
X155106Y-60894D01*
X154489Y-60421D01*
X153771Y-60123D01*
X153000Y-60022D01*
X139965D01*
X139612Y-59668D01*
X139630Y-53385D01*
X139600Y-53227D01*
X139891Y-52821D01*
X139948Y-52813D01*
X140799Y-52461D01*
X141530Y-51899D01*
X142091Y-51168D01*
X142444Y-50317D01*
X142498Y-49903D01*
X139034D01*
Y-48903D01*
X142498D01*
X142444Y-48490D01*
X142091Y-47638D01*
X141530Y-46907D01*
X140799Y-46346D01*
X139948Y-45993D01*
X139913Y-45989D01*
X139622Y-45582D01*
X139654Y-45428D01*
X139701Y-29162D01*
X139700Y-29161D01*
X139701Y-29160D01*
X139640Y-28851D01*
X139593Y-28614D01*
X139663Y-28530D01*
X141182Y-28228D01*
X145126D01*
Y-26621D01*
X145496Y-26285D01*
X145500Y-26285D01*
Y-19000D01*
Y-11715D01*
X145496Y-11715D01*
X145126Y-11379D01*
Y-5953D01*
X139114D01*
Y-17090D01*
X138114D01*
Y-5953D01*
X132102D01*
Y-16007D01*
X131661Y-16243D01*
X118583Y-7478D01*
X118728Y-7000D01*
X121250D01*
Y-4000D01*
X115750D01*
Y-5049D01*
X115309Y-5285D01*
X114362Y-4650D01*
X113606Y-3894D01*
Y8335D01*
X115288Y10017D01*
X115750Y9826D01*
Y8000D01*
X118000D01*
Y11000D01*
X116924D01*
X116733Y11462D01*
X118135Y12865D01*
X118483Y13386D01*
X118504Y13487D01*
X118606Y14000D01*
X118606Y14000D01*
Y36000D01*
X118606Y36000D01*
X118504Y36513D01*
X118483Y36615D01*
X118135Y37135D01*
X118135Y37135D01*
X116135Y39135D01*
X115614Y39483D01*
X115513Y39504D01*
X115000Y39606D01*
X115000Y39606D01*
X111482D01*
X111399Y39670D01*
X111188Y39757D01*
X110680Y39967D01*
X109909Y40069D01*
X109181D01*
Y40161D01*
Y44020D01*
Y50161D01*
X108606D01*
Y51591D01*
X95106D01*
Y52591D01*
X108606D01*
Y54241D01*
X108606Y54241D01*
D01*
D01*
X108606Y54587D01*
Y54587D01*
Y54590D01*
X108606Y54594D01*
X108606Y54940D01*
X108606Y54940D01*
X108606D01*
Y56590D01*
X81606D01*
Y54940D01*
X81606Y54940D01*
X81606D01*
X81606Y54594D01*
Y54590D01*
Y54587D01*
X81606Y54241D01*
X81606Y54241D01*
X81606D01*
Y52575D01*
X75175D01*
Y46812D01*
X75171Y46811D01*
X74455Y46333D01*
X74287Y46165D01*
X73825Y46356D01*
Y52575D01*
X73575D01*
Y57325D01*
X70954D01*
X70407Y57690D01*
X69500Y57870D01*
X68593Y57690D01*
X68046Y57325D01*
X65425D01*
Y50675D01*
X66259D01*
X66404Y50197D01*
X66201Y50061D01*
X65348Y49208D01*
X64030D01*
Y55090D01*
X62478D01*
Y58000D01*
X62377Y58771D01*
X62079Y59489D01*
X61606Y60106D01*
X58606Y63106D01*
X57989Y63579D01*
X57271Y63877D01*
X56500Y63978D01*
X55325D01*
Y64639D01*
X55559Y64945D01*
X55970Y65936D01*
X56110Y67000D01*
X55970Y68064D01*
X55559Y69055D01*
X54906Y69906D01*
X54055Y70559D01*
X53064Y70970D01*
X52000Y71110D01*
X50936Y70970D01*
X49945Y70559D01*
X49094Y69906D01*
X48441Y69055D01*
X48030Y68064D01*
X47890Y67000D01*
X48030Y65936D01*
X48441Y64945D01*
X48675Y64639D01*
Y56925D01*
X55325D01*
Y57310D01*
X55787Y57501D01*
X56522Y56766D01*
Y55090D01*
X54970D01*
Y48910D01*
Y43910D01*
Y38910D01*
X55545D01*
Y37500D01*
X63455D01*
Y38910D01*
X64030D01*
Y39792D01*
X65348D01*
X66201Y38939D01*
X66201Y38939D01*
X66201D01*
X66201Y38939D01*
X66201D01*
X66201Y38939D01*
Y38939D01*
Y38939D01*
D01*
D01*
X66201D01*
Y38939D01*
X66404Y38803D01*
X66259Y38325D01*
X65425D01*
Y32367D01*
X65049Y32038D01*
X64500Y32110D01*
X63436Y31970D01*
X62445Y31559D01*
X61594Y30906D01*
X60941Y30055D01*
X60530Y29064D01*
X60390Y28000D01*
X60530Y26936D01*
X60642Y26666D01*
X60364Y26250D01*
X59000D01*
Y24000D01*
X58500D01*
Y23500D01*
X54500D01*
Y23032D01*
X54084Y22754D01*
X53564Y22970D01*
X52500Y23110D01*
X51436Y22970D01*
X50486Y22576D01*
X50070Y22854D01*
Y35478D01*
X49902Y36323D01*
X49423Y37040D01*
X47923Y38540D01*
X47923Y38540D01*
X45708Y40755D01*
Y50262D01*
X45540Y51107D01*
X45061Y51823D01*
X43323Y53561D01*
X42607Y54040D01*
X41762Y54208D01*
X41030D01*
Y55090D01*
X31970D01*
Y51333D01*
X31508Y51142D01*
X31325Y51325D01*
X30791Y51735D01*
X30575Y51825D01*
Y52825D01*
X30459D01*
X30182Y53241D01*
X30470Y53936D01*
X30610Y55000D01*
X30470Y56064D01*
X30059Y57055D01*
X29406Y57906D01*
X28555Y58559D01*
X27564Y58970D01*
X26500Y59110D01*
X25436Y58970D01*
X24445Y58559D01*
X23594Y57906D01*
X22941Y57055D01*
X22530Y56064D01*
X22390Y55000D01*
X22530Y53936D01*
X22818Y53241D01*
X22540Y52825D01*
X22425D01*
Y46175D01*
D01*
Y46175D01*
X22075Y45825D01*
X21746D01*
Y51335D01*
X21658Y52003D01*
X21401Y52625D01*
X20990Y53160D01*
X16068Y58082D01*
X16166Y58572D01*
X17055Y58941D01*
X17906Y59594D01*
X18559Y60445D01*
X18970Y61436D01*
X19110Y62500D01*
X18973Y63543D01*
X19302Y63919D01*
X29500D01*
X30168Y64007D01*
X30479Y64136D01*
X30791Y64265D01*
X31325Y64675D01*
X36949Y70298D01*
X37365Y70021D01*
X37199Y69621D01*
X37144Y69207D01*
X40109D01*
Y72171D01*
X39695Y72117D01*
X39150Y71891D01*
X38808Y72154D01*
X38740Y72221D01*
X38864Y72521D01*
X38993Y72832D01*
X39081Y73500D01*
Y76047D01*
X42307D01*
Y79765D01*
X47085D01*
X48895Y77955D01*
X49430Y77544D01*
D01*
D01*
Y77544D01*
X49430Y77544D01*
D01*
D01*
X49430D01*
Y77544D01*
D01*
X49430D01*
Y77544D01*
X50052Y77286D01*
X50720Y77198D01*
X57653D01*
Y71413D01*
X64346D01*
Y88146D01*
X57653D01*
Y82361D01*
X51789D01*
X49979Y84171D01*
X49561Y84492D01*
X49753Y84954D01*
X49951Y84928D01*
Y87892D01*
X46987D01*
X47041Y87478D01*
X47394Y86627D01*
X47955Y85896D01*
X48671Y85347D01*
X48479Y84885D01*
X48154Y84927D01*
X42307D01*
Y88646D01*
X30693D01*
Y76047D01*
X33919D01*
Y74569D01*
X28431Y69081D01*
X18325D01*
Y69831D01*
X25437D01*
Y85972D01*
X24081D01*
Y98072D01*
X30693D01*
Y94354D01*
X42307D01*
Y98072D01*
X51154D01*
X51822Y98160D01*
X52133Y98289D01*
X52444Y98418D01*
X52979Y98829D01*
X53790Y99639D01*
X57653D01*
Y93854D01*
X64346D01*
Y110587D01*
X57653D01*
Y104801D01*
X52720D01*
X52052Y104714D01*
X51870Y104638D01*
X51430Y104456D01*
X50895Y104045D01*
X50085Y103235D01*
X42307D01*
Y106953D01*
X30693D01*
Y103235D01*
X15437D01*
Y111169D01*
X7563D01*
Y104581D01*
X3210D01*
X3049Y105055D01*
X3735Y105581D01*
X4296Y106312D01*
X4648Y107163D01*
X4703Y107577D01*
X-2226D01*
X-2171Y107163D01*
X-1819Y106312D01*
X-1258Y105581D01*
X-572Y105055D01*
X-733Y104581D01*
X-3925D01*
Y105325D01*
X-12075D01*
Y98675D01*
X-3925D01*
Y99419D01*
X7563D01*
Y95028D01*
X15437D01*
Y98072D01*
X18919D01*
Y85972D01*
X17563D01*
Y81735D01*
X17115Y81514D01*
X17055Y81559D01*
X16064Y81970D01*
X15000Y82110D01*
X13936Y81970D01*
X12945Y81559D01*
X12094Y80906D01*
X11441Y80055D01*
X11030Y79064D01*
X10890Y78000D01*
X11030Y76936D01*
X11441Y75945D01*
X12094Y75094D01*
X12945Y74441D01*
X13936Y74030D01*
X15000Y73890D01*
X16064Y74030D01*
X17055Y74441D01*
X17115Y74486D01*
X17563Y74265D01*
Y70575D01*
X11675D01*
Y64861D01*
X11441Y64555D01*
X11030Y63564D01*
X10890Y62500D01*
X11030Y61436D01*
X11441Y60445D01*
X11760Y60030D01*
X11538Y59581D01*
X7825D01*
Y61075D01*
X1175D01*
Y53680D01*
X-750D01*
Y56500D01*
X-6250D01*
Y53500D01*
X-6250D01*
Y53459D01*
X-6604Y53105D01*
X-7015D01*
Y49650D01*
X-4500D01*
Y49150D01*
X-4000D01*
Y45195D01*
X-3133D01*
X-2912Y44747D01*
X-3059Y44555D01*
X-3470Y43564D01*
X-3610Y42500D01*
X-3470Y41436D01*
X-3059Y40445D01*
X-2406Y39594D01*
X-1555Y38941D01*
X-564Y38530D01*
X500Y38390D01*
X1564Y38530D01*
X2555Y38941D01*
X3406Y39594D01*
X4059Y40445D01*
X4470Y41436D01*
X4610Y42500D01*
X4470Y43564D01*
X4205Y44205D01*
X4482Y44620D01*
X8292D01*
Y41000D01*
X8460Y40155D01*
X8939Y39439D01*
X11439Y36939D01*
X12155Y36460D01*
X13000Y36292D01*
X14425D01*
Y32137D01*
X14052Y31764D01*
X13590Y31955D01*
Y32030D01*
X-7590D01*
Y22970D01*
X7522D01*
Y21734D01*
X1394Y15606D01*
X921Y14989D01*
X623Y14271D01*
X522Y13500D01*
Y12812D01*
X-59Y12055D01*
X-470Y11064D01*
X-610Y10000D01*
X-470Y8936D01*
X-59Y7945D01*
X594Y7094D01*
X1445Y6441D01*
X2436Y6030D01*
X3500Y5890D01*
X4564Y6030D01*
X5555Y6441D01*
X6406Y7094D01*
X7059Y7945D01*
X7470Y8936D01*
X7610Y10000D01*
X7470Y11064D01*
X7059Y12055D01*
X6715Y12503D01*
X12606Y18394D01*
X12606Y18394D01*
X13079Y19011D01*
X13377Y19729D01*
X13478Y20500D01*
Y22970D01*
X13590D01*
Y24522D01*
X14000D01*
X14771Y24623D01*
X14834Y24649D01*
X15250Y24372D01*
Y22500D01*
X17500D01*
Y25500D01*
X16865D01*
X16674Y25962D01*
X20606Y29894D01*
X21079Y30511D01*
X21354Y31175D01*
X22575D01*
Y33609D01*
X23037Y33800D01*
X25398Y31439D01*
X25398D01*
X25398Y31439D01*
X25398D01*
X25398Y31439D01*
Y31439D01*
X25398Y31439D01*
Y31439D01*
X26114Y30960D01*
X26959Y30792D01*
X35585D01*
X39091Y27287D01*
X38900Y26825D01*
X32925D01*
Y26581D01*
X28000D01*
X27332Y26493D01*
X27150Y26418D01*
X26709Y26235D01*
X26500Y26075D01*
X22675D01*
Y22325D01*
X21212Y20862D01*
X20750Y21054D01*
Y21500D01*
X15250D01*
Y18500D01*
X15250D01*
Y18428D01*
X14896Y18075D01*
X14675D01*
Y9925D01*
X14675Y9925D01*
X14675Y9575D01*
X14675D01*
Y1425D01*
X15675D01*
X15765Y1209D01*
X16175Y675D01*
X18313Y-1463D01*
X18122Y-1925D01*
X17675D01*
Y-3022D01*
X12721D01*
X12347Y-2535D01*
X11496Y-1882D01*
X10505Y-1471D01*
X9441Y-1331D01*
X8377Y-1471D01*
X7386Y-1882D01*
X6535Y-2535D01*
X5882Y-3386D01*
X5471Y-4377D01*
X5331Y-5441D01*
X5471Y-6505D01*
X5882Y-7496D01*
X6535Y-8347D01*
X7386Y-9000D01*
X8377Y-9411D01*
X9441Y-9551D01*
X10505Y-9411D01*
X11496Y-9000D01*
X11525Y-8978D01*
X17675D01*
Y-10075D01*
X17675Y-10075D01*
X17675D01*
X17649Y-10276D01*
X17500Y-10390D01*
X16436Y-10530D01*
X15445Y-10941D01*
X14594Y-11594D01*
X13941Y-12445D01*
X13530Y-13436D01*
X13390Y-14500D01*
X13478Y-15170D01*
X12018Y-16630D01*
X3575D01*
Y-15675D01*
X-1271D01*
X-1500Y-15630D01*
X-3776D01*
Y-15244D01*
X-15000D01*
Y-9000D01*
X-17500Y-5500D01*
Y0D01*
X-20500Y2500D01*
X-51500D01*
X-53000Y4047D01*
Y37288D01*
X-52519Y37874D01*
X-51916Y39002D01*
X-51545Y40227D01*
X-51419Y41500D01*
X-51545Y42774D01*
X-51916Y43998D01*
X-52519Y45127D01*
X-53000Y45712D01*
Y148884D01*
X166885D01*
Y-148884D01*
D02*
G37*
G36*
X-71000Y30857D02*
Y16645D01*
X-71481Y16524D01*
X-72605Y17895D01*
X-73976Y19019D01*
X-75539Y19855D01*
X-77236Y20370D01*
X-78500Y20494D01*
Y11500D01*
X-79000D01*
Y11000D01*
X-87994D01*
X-87870Y9736D01*
X-87355Y8039D01*
X-86519Y6476D01*
X-85726Y5509D01*
X-85940Y5057D01*
X-94055Y5052D01*
X-104000Y14400D01*
X-113696D01*
X-113865Y14871D01*
X-113593Y15093D01*
X-112731Y16145D01*
X-112089Y17345D01*
X-111694Y18646D01*
X-111610Y19500D01*
X-125390D01*
X-125306Y18646D01*
X-124911Y17345D01*
X-124269Y16145D01*
X-123407Y15093D01*
X-123135Y14871D01*
X-123304Y14400D01*
X-124000D01*
X-130000Y19886D01*
Y35429D01*
X-125000Y40000D01*
X-81000D01*
X-71000Y30857D01*
D02*
G37*
%LPC*%
G36*
X82000Y-18036D02*
Y-21000D01*
X84964D01*
X84910Y-20586D01*
X84557Y-19735D01*
X83996Y-19004D01*
X83265Y-18443D01*
X82414Y-18090D01*
X82000Y-18036D01*
D02*
G37*
G36*
X84964Y-22000D02*
X82000D01*
Y-24964D01*
X82414Y-24910D01*
X83265Y-24557D01*
X83996Y-23996D01*
X84557Y-23265D01*
X84910Y-22414D01*
X84964Y-22000D01*
D02*
G37*
G36*
X81000D02*
X78036D01*
X78090Y-22414D01*
X78443Y-23265D01*
X79004Y-23996D01*
X79735Y-24557D01*
X80586Y-24910D01*
X81000Y-24964D01*
Y-22000D01*
D02*
G37*
G36*
Y-18036D02*
X80586Y-18090D01*
X79735Y-18443D01*
X79004Y-19004D01*
X78443Y-19735D01*
X78090Y-20586D01*
X78036Y-21000D01*
X81000D01*
Y-18036D01*
D02*
G37*
G36*
X63000D02*
X62586Y-18090D01*
X61735Y-18443D01*
X61004Y-19004D01*
X60443Y-19735D01*
X60090Y-20586D01*
X60036Y-21000D01*
X63000D01*
Y-18036D01*
D02*
G37*
G36*
X146500Y-11715D02*
Y-18500D01*
X153285D01*
X153194Y-17569D01*
X152776Y-16193D01*
X152098Y-14925D01*
X151186Y-13814D01*
X150075Y-12902D01*
X148807Y-12224D01*
X147431Y-11806D01*
X146500Y-11715D01*
D02*
G37*
G36*
X121250Y0D02*
X119000D01*
Y-3000D01*
X121250D01*
Y0D01*
D02*
G37*
G36*
X118000Y7000D02*
X115750D01*
Y4000D01*
X118000D01*
Y7000D01*
D02*
G37*
G36*
X121250D02*
X119000D01*
Y4000D01*
X121250D01*
Y7000D01*
D02*
G37*
G36*
X118000Y0D02*
X115750D01*
Y-3000D01*
X118000D01*
Y0D01*
D02*
G37*
G36*
X46500Y-4500D02*
X43536D01*
X43590Y-4914D01*
X43943Y-5765D01*
X44504Y-6496D01*
X45235Y-7057D01*
X46086Y-7410D01*
X46500Y-7464D01*
Y-4500D01*
D02*
G37*
G36*
X50464D02*
X47500D01*
Y-7464D01*
X47914Y-7410D01*
X48765Y-7057D01*
X49496Y-6496D01*
X50057Y-5765D01*
X50410Y-4914D01*
X50464Y-4500D01*
D02*
G37*
G36*
X47500Y-536D02*
Y-3500D01*
X50464D01*
X50410Y-3086D01*
X50057Y-2235D01*
X49496Y-1504D01*
X48765Y-943D01*
X47914Y-590D01*
X47500Y-536D01*
D02*
G37*
G36*
X24500Y-31000D02*
X21500D01*
Y-33250D01*
X24500D01*
Y-31000D01*
D02*
G37*
G36*
X109106Y-32591D02*
X82106D01*
Y-34241D01*
X82106Y-34241D01*
X82106D01*
X82106Y-34587D01*
Y-34591D01*
Y-34595D01*
X82106Y-34940D01*
X82106Y-34940D01*
X82106D01*
Y-36591D01*
X109106D01*
Y-34940D01*
X109106Y-34940D01*
D01*
D01*
X109106Y-34595D01*
Y-34595D01*
Y-34591D01*
X109106Y-34587D01*
X109106Y-34241D01*
X109106Y-34241D01*
X109106D01*
Y-32591D01*
D02*
G37*
G36*
X152341Y-30218D02*
X149376D01*
Y-33183D01*
X149790Y-33128D01*
X150642Y-32776D01*
X151373Y-32214D01*
X151934Y-31483D01*
X152286Y-30632D01*
X152341Y-30218D01*
D02*
G37*
G36*
X148376D02*
X145412D01*
X145466Y-30632D01*
X145819Y-31483D01*
X146380Y-32214D01*
X147111Y-32776D01*
X147963Y-33128D01*
X148376Y-33183D01*
Y-30218D01*
D02*
G37*
G36*
X12500Y-48036D02*
X12086Y-48090D01*
X11235Y-48443D01*
X10504Y-49004D01*
X9943Y-49735D01*
X9590Y-50586D01*
X9536Y-51000D01*
X12500D01*
Y-48036D01*
D02*
G37*
G36*
X7835Y-48500D02*
X3004D01*
Y-51500D01*
X7835D01*
Y-48500D01*
D02*
G37*
G36*
X109106Y-37591D02*
X82106D01*
Y-39241D01*
X82106Y-39241D01*
X82106D01*
X82106Y-39587D01*
Y-39591D01*
Y-39595D01*
X82106Y-39940D01*
X82106Y-39940D01*
X82106D01*
Y-41591D01*
X109106D01*
Y-39940D01*
X109106Y-39940D01*
D01*
D01*
X109106Y-39595D01*
Y-39595D01*
Y-39591D01*
X109106Y-39587D01*
X109106Y-39241D01*
X109106Y-39241D01*
X109106D01*
Y-37591D01*
D02*
G37*
G36*
X13500Y-48036D02*
Y-51000D01*
X16464D01*
X16410Y-50586D01*
X16057Y-49735D01*
X15496Y-49004D01*
X14765Y-48443D01*
X13914Y-48090D01*
X13500Y-48036D01*
D02*
G37*
G36*
X3000Y-24250D02*
X0D01*
Y-26500D01*
X3000D01*
Y-24250D01*
D02*
G37*
G36*
X153285Y-19500D02*
X146500D01*
Y-26285D01*
X146857Y-26250D01*
X147041Y-26715D01*
X146380Y-27222D01*
X145819Y-27953D01*
X145466Y-28805D01*
X145412Y-29218D01*
X152341D01*
X152286Y-28805D01*
X151934Y-27953D01*
X151373Y-27222D01*
X150642Y-26661D01*
X149790Y-26308D01*
X149013Y-26206D01*
X148923Y-25714D01*
X150075Y-25098D01*
X151186Y-24186D01*
X152098Y-23075D01*
X152776Y-21807D01*
X153194Y-20431D01*
X153285Y-19500D01*
D02*
G37*
G36*
X63000Y-22000D02*
X60036D01*
X60090Y-22414D01*
X60443Y-23265D01*
X61004Y-23996D01*
X61735Y-24557D01*
X62586Y-24910D01*
X63000Y-24964D01*
Y-22000D01*
D02*
G37*
G36*
X-1000Y-24250D02*
X-4000D01*
Y-25819D01*
X-4000D01*
X-4350D01*
X-4354Y-25819D01*
X-4354Y-25819D01*
Y-25819D01*
X-9083D01*
Y-28000D01*
Y-30181D01*
X-4350D01*
Y-30100D01*
X-4000Y-29750D01*
X-3997Y-29750D01*
X-3997Y-29750D01*
Y-29750D01*
X-1000D01*
Y-27000D01*
Y-24250D01*
D02*
G37*
G36*
X109106Y-29594D02*
X96106D01*
Y-31591D01*
X109106D01*
Y-29594D01*
D02*
G37*
G36*
X95106D02*
X82106D01*
Y-31591D01*
X95106D01*
Y-29594D01*
D02*
G37*
G36*
X3000Y-27500D02*
X0D01*
Y-29750D01*
X3000D01*
Y-27500D01*
D02*
G37*
G36*
X24500Y-27750D02*
X21500D01*
Y-30000D01*
X24500D01*
Y-27750D01*
D02*
G37*
G36*
X-37631Y32801D02*
Y29837D01*
X-34667D01*
X-34722Y30250D01*
X-35074Y31102D01*
X-35635Y31833D01*
X-36366Y32394D01*
X-37218Y32747D01*
X-37631Y32801D01*
D02*
G37*
G36*
X-38631D02*
X-39045Y32747D01*
X-39897Y32394D01*
X-40628Y31833D01*
X-41189Y31102D01*
X-41541Y30250D01*
X-41596Y29837D01*
X-38631D01*
Y32801D01*
D02*
G37*
G36*
X-17946D02*
Y29837D01*
X-14982D01*
X-15036Y30250D01*
X-15389Y31102D01*
X-15950Y31833D01*
X-16681Y32394D01*
X-17533Y32747D01*
X-17946Y32801D01*
D02*
G37*
G36*
X-18946D02*
X-19360Y32747D01*
X-20211Y32394D01*
X-20943Y31833D01*
X-21504Y31102D01*
X-21856Y30250D01*
X-21911Y29837D01*
X-18946D01*
Y32801D01*
D02*
G37*
G36*
Y28837D02*
X-21911D01*
X-21856Y28423D01*
X-21504Y27572D01*
X-20943Y26841D01*
X-20211Y26280D01*
X-19360Y25927D01*
X-18946Y25872D01*
Y28837D01*
D02*
G37*
G36*
X-34667D02*
X-37631D01*
Y25872D01*
X-37218Y25927D01*
X-36366Y26280D01*
X-35635Y26841D01*
X-35074Y27572D01*
X-34722Y28423D01*
X-34667Y28837D01*
D02*
G37*
G36*
X108606Y31591D02*
X95606D01*
Y29594D01*
X108606D01*
Y31591D01*
D02*
G37*
G36*
X-14982Y28837D02*
X-17946D01*
Y25872D01*
X-17533Y25927D01*
X-16681Y26280D01*
X-15950Y26841D01*
X-15389Y27572D01*
X-15036Y28423D01*
X-14982Y28837D01*
D02*
G37*
G36*
X-24825Y48522D02*
X-27789D01*
Y45557D01*
X-27375Y45612D01*
X-26524Y45965D01*
X-25793Y46526D01*
X-25232Y47257D01*
X-24879Y48108D01*
X-24825Y48522D01*
D02*
G37*
G36*
X-28789D02*
X-31753D01*
X-31699Y48108D01*
X-31346Y47257D01*
X-30785Y46526D01*
X-30054Y45965D01*
X-29203Y45612D01*
X-28789Y45557D01*
Y48522D01*
D02*
G37*
G36*
X53916D02*
X50951D01*
Y45557D01*
X51365Y45612D01*
X52216Y45965D01*
X52947Y46526D01*
X53508Y47257D01*
X53861Y48108D01*
X53916Y48522D01*
D02*
G37*
G36*
X49951D02*
X46987D01*
X47041Y48108D01*
X47394Y47257D01*
X47955Y46526D01*
X48686Y45965D01*
X49538Y45612D01*
X49951Y45557D01*
Y48522D01*
D02*
G37*
G36*
X63455Y36500D02*
X60000D01*
Y34485D01*
X63455D01*
Y36500D01*
D02*
G37*
G36*
X59000D02*
X55545D01*
Y34485D01*
X59000D01*
Y36500D01*
D02*
G37*
G36*
X-5000Y48650D02*
X-7015D01*
Y45195D01*
X-5000D01*
Y48650D01*
D02*
G37*
G36*
X30000Y44250D02*
X27000D01*
Y42000D01*
X30000D01*
Y44250D01*
D02*
G37*
G36*
X-9104Y13116D02*
X-9518Y13062D01*
X-10369Y12709D01*
X-11100Y12148D01*
X-11661Y11417D01*
X-12014Y10565D01*
X-12068Y10152D01*
X-9104D01*
Y13116D01*
D02*
G37*
G36*
X121250Y11000D02*
X119000D01*
Y8000D01*
X121250D01*
Y11000D01*
D02*
G37*
G36*
X152785Y18500D02*
X146000D01*
Y11715D01*
X146931Y11806D01*
X148307Y12224D01*
X149575Y12902D01*
X150686Y13814D01*
X151598Y14925D01*
X152276Y16193D01*
X152694Y17569D01*
X152785Y18500D01*
D02*
G37*
G36*
X-8104Y13116D02*
Y10152D01*
X-5139D01*
X-5194Y10565D01*
X-5547Y11417D01*
X-6108Y12148D01*
X-6839Y12709D01*
X-7690Y13062D01*
X-8104Y13116D01*
D02*
G37*
G36*
X-9104Y9152D02*
X-12068D01*
X-12014Y8738D01*
X-11661Y7887D01*
X-11100Y7156D01*
X-10369Y6595D01*
X-9518Y6242D01*
X-9104Y6187D01*
Y9152D01*
D02*
G37*
G36*
X-28053Y18134D02*
X-29327Y18009D01*
X-30551Y17637D01*
X-31680Y17034D01*
X-32669Y16222D01*
X-33481Y15233D01*
X-34084Y14105D01*
X-34455Y12880D01*
X-34581Y11607D01*
X-34455Y10333D01*
X-34084Y9109D01*
X-33481Y7980D01*
X-32669Y6991D01*
X-31680Y6179D01*
X-30551Y5576D01*
X-29327Y5205D01*
X-28053Y5079D01*
X-26780Y5205D01*
X-25555Y5576D01*
X-24427Y6179D01*
X-23438Y6991D01*
X-22626Y7980D01*
X-22023Y9109D01*
X-21651Y10333D01*
X-21526Y11607D01*
X-21651Y12880D01*
X-22023Y14105D01*
X-22626Y15233D01*
X-23438Y16222D01*
X-24427Y17034D01*
X-25555Y17637D01*
X-26780Y18009D01*
X-28053Y18134D01*
D02*
G37*
G36*
X144626Y28228D02*
X138614D01*
Y17090D01*
X138114D01*
Y16590D01*
X131602D01*
Y6870D01*
X130482D01*
X129825Y7527D01*
Y11575D01*
X123175D01*
Y3425D01*
X127223D01*
X127824Y2824D01*
X128484Y2383D01*
X128525Y1968D01*
X128502Y1854D01*
X127223Y575D01*
X123175D01*
Y-7575D01*
X129825D01*
Y-3527D01*
X131482Y-1870D01*
X145518D01*
X148966Y-5318D01*
X149735Y-5832D01*
X150642Y-6012D01*
X152074D01*
X152235Y-6486D01*
X152094Y-6594D01*
X151441Y-7445D01*
X151030Y-8436D01*
X150890Y-9500D01*
X151030Y-10564D01*
X151441Y-11555D01*
X152094Y-12406D01*
X152945Y-13059D01*
X153936Y-13470D01*
X155000Y-13610D01*
X156064Y-13470D01*
X156304Y-13370D01*
X160217D01*
X161124Y-13190D01*
X161829Y-12719D01*
X165075D01*
Y-7285D01*
Y-1281D01*
X160909D01*
X160858Y-1271D01*
X158075D01*
X157854Y-823D01*
X158059Y-555D01*
X158470Y436D01*
X158533Y913D01*
X159500D01*
X160407Y1094D01*
X160688Y1281D01*
X165075D01*
Y6715D01*
Y12719D01*
X157925D01*
Y11087D01*
X152717D01*
X151810Y10907D01*
X151040Y10393D01*
X147518Y6870D01*
X144626D01*
Y11379D01*
X144997Y11715D01*
X145000Y11715D01*
Y19000D01*
Y26285D01*
X144997Y26285D01*
X144626Y26621D01*
Y28228D01*
D02*
G37*
G36*
X-5139Y9152D02*
X-8104D01*
Y6187D01*
X-7690Y6242D01*
X-6839Y6595D01*
X-6108Y7156D01*
X-5547Y7887D01*
X-5194Y8738D01*
X-5139Y9152D01*
D02*
G37*
G36*
X20750Y25500D02*
X18500D01*
Y22500D01*
X20750D01*
Y25500D01*
D02*
G37*
G36*
X-118000Y26890D02*
Y20500D01*
X-111610D01*
X-111694Y21354D01*
X-112089Y22655D01*
X-112731Y23855D01*
X-113593Y24907D01*
X-114645Y25769D01*
X-115845Y26411D01*
X-117146Y26806D01*
X-118000Y26890D01*
D02*
G37*
G36*
X-38631Y28837D02*
X-41596D01*
X-41541Y28423D01*
X-41189Y27572D01*
X-40628Y26841D01*
X-39897Y26280D01*
X-39045Y25927D01*
X-38631Y25872D01*
Y28837D01*
D02*
G37*
G36*
X58000Y26250D02*
X54500D01*
Y24500D01*
X58000D01*
Y26250D01*
D02*
G37*
G36*
X137614Y28228D02*
X131602D01*
Y17591D01*
X137614D01*
Y28228D01*
D02*
G37*
G36*
X-79500Y20494D02*
X-80764Y20370D01*
X-82461Y19855D01*
X-84024Y19019D01*
X-85395Y17895D01*
X-86519Y16524D01*
X-87355Y14961D01*
X-87870Y13264D01*
X-87994Y12000D01*
X-79500D01*
Y20494D01*
D02*
G37*
G36*
X-119000Y26890D02*
X-119854Y26806D01*
X-121155Y26411D01*
X-122355Y25769D01*
X-123407Y24907D01*
X-124269Y23855D01*
X-124911Y22655D01*
X-125306Y21354D01*
X-125390Y20500D01*
X-119000D01*
Y26890D01*
D02*
G37*
G36*
X146000Y26285D02*
Y19500D01*
X152785D01*
X152694Y20431D01*
X152276Y21807D01*
X151598Y23075D01*
X150686Y24186D01*
X149575Y25098D01*
X148307Y25776D01*
X146931Y26194D01*
X146000Y26285D01*
D02*
G37*
G36*
X2004Y-48500D02*
X-2827D01*
Y-51500D01*
X2004D01*
Y-48500D01*
D02*
G37*
G36*
X59794Y-124679D02*
X59380Y-124734D01*
X58529Y-125086D01*
X57797Y-125647D01*
X57236Y-126378D01*
X56884Y-127230D01*
X56829Y-127644D01*
X59794D01*
Y-124679D01*
D02*
G37*
G36*
X41109D02*
Y-127644D01*
X44073D01*
X44019Y-127230D01*
X43666Y-126378D01*
X43105Y-125647D01*
X42374Y-125086D01*
X41522Y-124734D01*
X41109Y-124679D01*
D02*
G37*
G36*
X79479D02*
X79065Y-124734D01*
X78214Y-125086D01*
X77482Y-125647D01*
X76921Y-126378D01*
X76569Y-127230D01*
X76514Y-127644D01*
X79479D01*
Y-124679D01*
D02*
G37*
G36*
X60794D02*
Y-127644D01*
X63758D01*
X63704Y-127230D01*
X63351Y-126378D01*
X62790Y-125647D01*
X62059Y-125086D01*
X61207Y-124734D01*
X60794Y-124679D01*
D02*
G37*
G36*
X20424D02*
X20010Y-124734D01*
X19159Y-125086D01*
X18427Y-125647D01*
X17866Y-126378D01*
X17514Y-127230D01*
X17459Y-127644D01*
X20424D01*
Y-124679D01*
D02*
G37*
G36*
X1739D02*
Y-127644D01*
X4703D01*
X4648Y-127230D01*
X4296Y-126378D01*
X3735Y-125647D01*
X3004Y-125086D01*
X2152Y-124734D01*
X1739Y-124679D01*
D02*
G37*
G36*
X40109D02*
X39695Y-124734D01*
X38844Y-125086D01*
X38113Y-125647D01*
X37551Y-126378D01*
X37199Y-127230D01*
X37144Y-127644D01*
X40109D01*
Y-124679D01*
D02*
G37*
G36*
X21424D02*
Y-127644D01*
X24388D01*
X24333Y-127230D01*
X23981Y-126378D01*
X23420Y-125647D01*
X22689Y-125086D01*
X21837Y-124734D01*
X21424Y-124679D01*
D02*
G37*
G36*
X138534D02*
X138120Y-124734D01*
X137269Y-125086D01*
X136538Y-125647D01*
X135977Y-126378D01*
X135624Y-127230D01*
X135570Y-127644D01*
X138534D01*
Y-124679D01*
D02*
G37*
G36*
X119849D02*
Y-127644D01*
X122813D01*
X122759Y-127230D01*
X122406Y-126378D01*
X121845Y-125647D01*
X121114Y-125086D01*
X120263Y-124734D01*
X119849Y-124679D01*
D02*
G37*
G36*
X148376Y-108958D02*
X145412D01*
X145466Y-109372D01*
X145819Y-110223D01*
X146380Y-110955D01*
X147111Y-111516D01*
X147963Y-111868D01*
X148376Y-111923D01*
Y-108958D01*
D02*
G37*
G36*
X139534Y-124679D02*
Y-127644D01*
X142498D01*
X142444Y-127230D01*
X142091Y-126378D01*
X141530Y-125647D01*
X140799Y-125086D01*
X139948Y-124734D01*
X139534Y-124679D01*
D02*
G37*
G36*
X99164D02*
X98750Y-124734D01*
X97899Y-125086D01*
X97168Y-125647D01*
X96607Y-126378D01*
X96254Y-127230D01*
X96199Y-127644D01*
X99164D01*
Y-124679D01*
D02*
G37*
G36*
X80479D02*
Y-127644D01*
X83443D01*
X83389Y-127230D01*
X83036Y-126378D01*
X82475Y-125647D01*
X81744Y-125086D01*
X80892Y-124734D01*
X80479Y-124679D01*
D02*
G37*
G36*
X118849D02*
X118435Y-124734D01*
X117584Y-125086D01*
X116853Y-125647D01*
X116292Y-126378D01*
X115939Y-127230D01*
X115884Y-127644D01*
X118849D01*
Y-124679D01*
D02*
G37*
G36*
X100164D02*
Y-127644D01*
X103128D01*
X103074Y-127230D01*
X102721Y-126378D01*
X102160Y-125647D01*
X101429Y-125086D01*
X100577Y-124734D01*
X100164Y-124679D01*
D02*
G37*
G36*
X739D02*
X325Y-124734D01*
X-526Y-125086D01*
X-1258Y-125647D01*
X-1819Y-126378D01*
X-2171Y-127230D01*
X-2226Y-127644D01*
X739D01*
Y-124679D01*
D02*
G37*
G36*
X44073Y-128644D02*
X41109D01*
Y-131608D01*
X41522Y-131553D01*
X42374Y-131201D01*
X43105Y-130640D01*
X43666Y-129909D01*
X44019Y-129057D01*
X44073Y-128644D01*
D02*
G37*
G36*
X40109D02*
X37144D01*
X37199Y-129057D01*
X37551Y-129909D01*
X38113Y-130640D01*
X38844Y-131201D01*
X39695Y-131553D01*
X40109Y-131608D01*
Y-128644D01*
D02*
G37*
G36*
X63758D02*
X60794D01*
Y-131608D01*
X61207Y-131553D01*
X62059Y-131201D01*
X62790Y-130640D01*
X63351Y-129909D01*
X63704Y-129057D01*
X63758Y-128644D01*
D02*
G37*
G36*
X59794D02*
X56829D01*
X56884Y-129057D01*
X57236Y-129909D01*
X57797Y-130640D01*
X58529Y-131201D01*
X59380Y-131553D01*
X59794Y-131608D01*
Y-128644D01*
D02*
G37*
G36*
X4703D02*
X1739D01*
Y-131608D01*
X2152Y-131553D01*
X3004Y-131201D01*
X3735Y-130640D01*
X4296Y-129909D01*
X4648Y-129057D01*
X4703Y-128644D01*
D02*
G37*
G36*
X739D02*
X-2226D01*
X-2171Y-129057D01*
X-1819Y-129909D01*
X-1258Y-130640D01*
X-526Y-131201D01*
X325Y-131553D01*
X739Y-131608D01*
Y-128644D01*
D02*
G37*
G36*
X24388D02*
X21424D01*
Y-131608D01*
X21837Y-131553D01*
X22689Y-131201D01*
X23420Y-130640D01*
X23981Y-129909D01*
X24333Y-129057D01*
X24388Y-128644D01*
D02*
G37*
G36*
X20424D02*
X17459D01*
X17514Y-129057D01*
X17866Y-129909D01*
X18427Y-130640D01*
X19159Y-131201D01*
X20010Y-131553D01*
X20424Y-131608D01*
Y-128644D01*
D02*
G37*
G36*
X122813D02*
X119849D01*
Y-131608D01*
X120263Y-131553D01*
X121114Y-131201D01*
X121845Y-130640D01*
X122406Y-129909D01*
X122759Y-129057D01*
X122813Y-128644D01*
D02*
G37*
G36*
X118849D02*
X115884D01*
X115939Y-129057D01*
X116292Y-129909D01*
X116853Y-130640D01*
X117584Y-131201D01*
X118435Y-131553D01*
X118849Y-131608D01*
Y-128644D01*
D02*
G37*
G36*
X151575Y-123968D02*
X149645Y-124158D01*
X147790Y-124721D01*
X146080Y-125635D01*
X144581Y-126865D01*
X143351Y-128364D01*
X142927Y-129158D01*
X142451Y-129005D01*
X142498Y-128644D01*
X139534D01*
Y-131608D01*
X139948Y-131553D01*
X140799Y-131201D01*
X141530Y-130640D01*
X141896Y-130162D01*
X142341Y-130391D01*
X141875Y-131929D01*
X141685Y-133858D01*
X141875Y-135788D01*
X142438Y-137643D01*
X143351Y-139353D01*
X144581Y-140852D01*
X146080Y-142081D01*
X147790Y-142996D01*
X149645Y-143558D01*
X151575Y-143748D01*
X153504Y-143558D01*
X155360Y-142996D01*
X157070Y-142081D01*
X158568Y-140852D01*
X159798Y-139353D01*
X160712Y-137643D01*
X161275Y-135788D01*
X161465Y-133858D01*
X161275Y-131929D01*
X160712Y-130073D01*
X159798Y-128364D01*
X158568Y-126865D01*
X157070Y-125635D01*
X155360Y-124721D01*
X153504Y-124158D01*
X151575Y-123968D01*
D02*
G37*
G36*
X138534Y-128644D02*
X135570D01*
X135624Y-129057D01*
X135977Y-129909D01*
X136538Y-130640D01*
X137269Y-131201D01*
X138120Y-131553D01*
X138534Y-131608D01*
Y-128644D01*
D02*
G37*
G36*
X83443D02*
X80479D01*
Y-131608D01*
X80892Y-131553D01*
X81744Y-131201D01*
X82475Y-130640D01*
X83036Y-129909D01*
X83389Y-129057D01*
X83443Y-128644D01*
D02*
G37*
G36*
X79479D02*
X76514D01*
X76569Y-129057D01*
X76921Y-129909D01*
X77482Y-130640D01*
X78214Y-131201D01*
X79065Y-131553D01*
X79479Y-131608D01*
Y-128644D01*
D02*
G37*
G36*
X103128D02*
X100164D01*
Y-131608D01*
X100577Y-131553D01*
X101429Y-131201D01*
X102160Y-130640D01*
X102721Y-129909D01*
X103074Y-129057D01*
X103128Y-128644D01*
D02*
G37*
G36*
X99164D02*
X96199D01*
X96254Y-129057D01*
X96607Y-129909D01*
X97168Y-130640D01*
X97899Y-131201D01*
X98750Y-131553D01*
X99164Y-131608D01*
Y-128644D01*
D02*
G37*
G36*
X152341Y-108958D02*
X149376D01*
Y-111923D01*
X149790Y-111868D01*
X150642Y-111516D01*
X151373Y-110955D01*
X151934Y-110223D01*
X152286Y-109372D01*
X152341Y-108958D01*
D02*
G37*
G36*
X51964Y-74500D02*
X49000D01*
Y-77464D01*
X49414Y-77410D01*
X50265Y-77057D01*
X50996Y-76496D01*
X51557Y-75765D01*
X51910Y-74914D01*
X51964Y-74500D01*
D02*
G37*
G36*
X48000D02*
X45036D01*
X45090Y-74914D01*
X45443Y-75765D01*
X46004Y-76496D01*
X46735Y-77057D01*
X47586Y-77410D01*
X48000Y-77464D01*
Y-74500D01*
D02*
G37*
G36*
X49000Y-70536D02*
Y-73500D01*
X51964D01*
X51910Y-73086D01*
X51557Y-72235D01*
X50996Y-71504D01*
X50265Y-70943D01*
X49414Y-70590D01*
X49000Y-70536D01*
D02*
G37*
G36*
X48000D02*
X47586Y-70590D01*
X46735Y-70943D01*
X46004Y-71504D01*
X45443Y-72235D01*
X45090Y-73086D01*
X45036Y-73500D01*
X48000D01*
Y-70536D01*
D02*
G37*
G36*
X65000Y-80429D02*
X62728D01*
Y-85665D01*
X62280Y-85886D01*
X62059Y-85716D01*
X61207Y-85364D01*
X60794Y-85309D01*
Y-88773D01*
Y-92238D01*
X61207Y-92183D01*
X62059Y-91831D01*
X62280Y-91661D01*
X62728Y-91882D01*
Y-96012D01*
X65000D01*
Y-88220D01*
Y-80429D01*
D02*
G37*
G36*
X153285Y-80681D02*
X146500D01*
Y-87466D01*
X147431Y-87375D01*
X148807Y-86957D01*
X150075Y-86279D01*
X151186Y-85367D01*
X152098Y-84256D01*
X152776Y-82988D01*
X153194Y-81612D01*
X153285Y-80681D01*
D02*
G37*
G36*
X146500Y-72896D02*
Y-79681D01*
X153285D01*
X153194Y-78750D01*
X152776Y-77374D01*
X152098Y-76106D01*
X151186Y-74995D01*
X150075Y-74083D01*
X148807Y-73405D01*
X147431Y-72988D01*
X146500Y-72896D01*
D02*
G37*
G36*
X138114Y-70953D02*
X132102D01*
Y-81590D01*
X138114D01*
Y-70953D01*
D02*
G37*
G36*
X7835Y-52500D02*
X3004D01*
Y-55500D01*
X7835D01*
Y-52500D01*
D02*
G37*
G36*
X2004D02*
X-2827D01*
Y-55500D01*
X2004D01*
Y-52500D01*
D02*
G37*
G36*
X16464Y-52000D02*
X13500D01*
Y-54964D01*
X13914Y-54910D01*
X14765Y-54557D01*
X15496Y-53996D01*
X16057Y-53265D01*
X16410Y-52414D01*
X16464Y-52000D01*
D02*
G37*
G36*
X12500D02*
X9536D01*
X9590Y-52414D01*
X9943Y-53265D01*
X10504Y-53996D01*
X11235Y-54557D01*
X12086Y-54910D01*
X12500Y-54964D01*
Y-52000D01*
D02*
G37*
G36*
X152341Y-69588D02*
X149376D01*
Y-72553D01*
X149790Y-72498D01*
X150642Y-72146D01*
X151373Y-71585D01*
X151934Y-70854D01*
X152286Y-70002D01*
X152341Y-69588D01*
D02*
G37*
G36*
X148376D02*
X145412D01*
X145466Y-70002D01*
X145819Y-70854D01*
X146380Y-71585D01*
X147111Y-72146D01*
X147963Y-72498D01*
X148376Y-72553D01*
Y-69588D01*
D02*
G37*
G36*
X44417Y-64925D02*
X38799D01*
Y-67000D01*
X44417D01*
Y-64925D01*
D02*
G37*
G36*
Y-68000D02*
X38799D01*
Y-70075D01*
X44417D01*
Y-68000D01*
D02*
G37*
G36*
X145126Y-70953D02*
X139114D01*
Y-82091D01*
Y-93228D01*
X145126D01*
Y-87802D01*
X145496Y-87466D01*
X145500Y-87466D01*
Y-80181D01*
Y-72896D01*
X145496Y-72896D01*
X145126Y-72560D01*
Y-70953D01*
D02*
G37*
G36*
X4250Y-94500D02*
X2250D01*
Y-97000D01*
X4250D01*
Y-94500D01*
D02*
G37*
G36*
Y-98000D02*
X2250D01*
Y-100500D01*
X4250D01*
Y-98000D01*
D02*
G37*
G36*
X109000Y-84390D02*
X107936Y-84530D01*
X106945Y-84941D01*
X106094Y-85594D01*
X105441Y-86445D01*
X105030Y-87436D01*
X104890Y-88500D01*
X104972Y-89122D01*
X104925Y-89175D01*
X104925D01*
Y-93043D01*
X104477Y-93264D01*
X104055Y-92941D01*
X103064Y-92530D01*
X102000Y-92390D01*
X101082Y-92511D01*
X100953Y-92028D01*
X101429Y-91831D01*
X102160Y-91270D01*
X102721Y-90539D01*
X103074Y-89687D01*
X103128Y-89273D01*
X96199D01*
X96254Y-89687D01*
X96607Y-90539D01*
X97168Y-91270D01*
X97899Y-91831D01*
X98150Y-91935D01*
X98053Y-92425D01*
X93675D01*
Y-100575D01*
Y-108575D01*
X100325D01*
Y-108575D01*
X100594Y-108395D01*
X100936Y-108537D01*
X102000Y-108677D01*
X103064Y-108537D01*
X104055Y-108126D01*
X104906Y-107473D01*
X105559Y-106622D01*
X105970Y-105631D01*
X106110Y-104567D01*
X106062Y-104201D01*
X106392Y-103825D01*
X106709D01*
X106885Y-104000D01*
X106885Y-104000D01*
D01*
X107046Y-104809D01*
X107504Y-105496D01*
X111500Y-109492D01*
X112186Y-109950D01*
X112996Y-110111D01*
X129925D01*
Y-113901D01*
X138075D01*
Y-102091D01*
X129925D01*
Y-105880D01*
X113872D01*
X112278Y-104287D01*
X112470Y-103825D01*
X113075D01*
Y-97175D01*
X106400D01*
X106071Y-96799D01*
X106110Y-96500D01*
X106071Y-96201D01*
X106400Y-95825D01*
X113075D01*
Y-89175D01*
X113075D01*
X113028Y-89122D01*
X113110Y-88500D01*
X112970Y-87436D01*
X112559Y-86445D01*
X111906Y-85594D01*
X111055Y-84941D01*
X110064Y-84530D01*
X109000Y-84390D01*
D02*
G37*
G36*
X68272Y-88720D02*
X66000D01*
Y-96012D01*
X68272D01*
Y-88720D01*
D02*
G37*
G36*
X164000Y-109717D02*
X161500D01*
Y-111644D01*
X164000D01*
Y-109717D01*
D02*
G37*
G36*
X160500D02*
X158000D01*
Y-111644D01*
X160500D01*
Y-109717D01*
D02*
G37*
G36*
X124000Y-84390D02*
X122936Y-84530D01*
X121945Y-84941D01*
X121094Y-85594D01*
X120441Y-86445D01*
X120030Y-87436D01*
X119890Y-88500D01*
X119963Y-89055D01*
X119925Y-89099D01*
X119925D01*
Y-100909D01*
X128075D01*
Y-89099D01*
X128075D01*
X128037Y-89055D01*
X128110Y-88500D01*
X127970Y-87436D01*
X127559Y-86445D01*
X126906Y-85594D01*
X126055Y-84941D01*
X125064Y-84530D01*
X124000Y-84390D01*
D02*
G37*
G36*
X148376Y-104994D02*
X147963Y-105049D01*
X147111Y-105401D01*
X146380Y-105962D01*
X145819Y-106693D01*
X145466Y-107545D01*
X145412Y-107958D01*
X148376D01*
Y-104994D01*
D02*
G37*
G36*
X99164Y-85309D02*
X98750Y-85364D01*
X97899Y-85716D01*
X97168Y-86277D01*
X96607Y-87008D01*
X96254Y-87860D01*
X96199Y-88273D01*
X99164D01*
Y-85309D01*
D02*
G37*
G36*
X80479D02*
Y-88273D01*
X83443D01*
X83389Y-87860D01*
X83036Y-87008D01*
X82475Y-86277D01*
X81744Y-85716D01*
X80892Y-85364D01*
X80479Y-85309D01*
D02*
G37*
G36*
X68272Y-80429D02*
X66000D01*
Y-87720D01*
X68272D01*
Y-80429D01*
D02*
G37*
G36*
X100164Y-85309D02*
Y-88273D01*
X103128D01*
X103074Y-87860D01*
X102721Y-87008D01*
X102160Y-86277D01*
X101429Y-85716D01*
X100577Y-85364D01*
X100164Y-85309D01*
D02*
G37*
G36*
X59794Y-89273D02*
X56829D01*
X56884Y-89687D01*
X57236Y-90539D01*
X57797Y-91270D01*
X58529Y-91831D01*
X59380Y-92183D01*
X59794Y-92238D01*
Y-89273D01*
D02*
G37*
G36*
X138114Y-82591D02*
X132102D01*
Y-93228D01*
X138114D01*
Y-82591D01*
D02*
G37*
G36*
X79479Y-85309D02*
X79065Y-85364D01*
X78214Y-85716D01*
X77482Y-86277D01*
X76921Y-87008D01*
X76569Y-87860D01*
X76514Y-88273D01*
X79479D01*
Y-85309D01*
D02*
G37*
G36*
X59794D02*
X59380Y-85364D01*
X58529Y-85716D01*
X57797Y-86277D01*
X57236Y-87008D01*
X56884Y-87860D01*
X56829Y-88273D01*
X59794D01*
Y-85309D01*
D02*
G37*
G36*
X128691Y48522D02*
X125727D01*
X125781Y48108D01*
X126134Y47257D01*
X126695Y46526D01*
X127426Y45965D01*
X128278Y45612D01*
X128691Y45557D01*
Y48522D01*
D02*
G37*
G36*
X20424Y111541D02*
X20010Y111487D01*
X19159Y111134D01*
X18427Y110573D01*
X17866Y109842D01*
X17514Y108991D01*
X17459Y108577D01*
X20424D01*
Y111541D01*
D02*
G37*
G36*
X1739D02*
Y108577D01*
X4703D01*
X4648Y108991D01*
X4296Y109842D01*
X3735Y110573D01*
X3004Y111134D01*
X2152Y111487D01*
X1739Y111541D01*
D02*
G37*
G36*
X79479D02*
X79065Y111487D01*
X78214Y111134D01*
X77482Y110573D01*
X76921Y109842D01*
X76569Y108991D01*
X76514Y108577D01*
X79479D01*
Y111541D01*
D02*
G37*
G36*
X21424D02*
Y108577D01*
X24388D01*
X24333Y108991D01*
X23981Y109842D01*
X23420Y110573D01*
X22689Y111134D01*
X21837Y111487D01*
X21424Y111541D01*
D02*
G37*
G36*
X-18946D02*
X-19360Y111487D01*
X-20211Y111134D01*
X-20943Y110573D01*
X-21504Y109842D01*
X-21856Y108991D01*
X-21911Y108577D01*
X-18946D01*
Y111541D01*
D02*
G37*
G36*
X-37631D02*
Y108577D01*
X-34667D01*
X-34722Y108991D01*
X-35074Y109842D01*
X-35635Y110573D01*
X-36366Y111134D01*
X-37218Y111487D01*
X-37631Y111541D01*
D02*
G37*
G36*
X739D02*
X325Y111487D01*
X-526Y111134D01*
X-1258Y110573D01*
X-1819Y109842D01*
X-2171Y108991D01*
X-2226Y108577D01*
X739D01*
Y111541D01*
D02*
G37*
G36*
X-17946D02*
Y108577D01*
X-14982D01*
X-15036Y108991D01*
X-15389Y109842D01*
X-15950Y110573D01*
X-16681Y111134D01*
X-17533Y111487D01*
X-17946Y111541D01*
D02*
G37*
G36*
X-28789Y127262D02*
X-31753D01*
X-31699Y126848D01*
X-31346Y125997D01*
X-30785Y125266D01*
X-30054Y124705D01*
X-29203Y124352D01*
X-28789Y124298D01*
Y127262D01*
D02*
G37*
G36*
X151575Y143748D02*
X149645Y143558D01*
X147790Y142996D01*
X146080Y142081D01*
X144581Y140852D01*
X143351Y139353D01*
X142438Y137643D01*
X141875Y135788D01*
X141685Y133858D01*
X141875Y131929D01*
X142438Y130073D01*
X143351Y128364D01*
X144581Y126865D01*
X146080Y125635D01*
X147790Y124721D01*
X149645Y124158D01*
X151575Y123968D01*
X153504Y124158D01*
X155360Y124721D01*
X157070Y125635D01*
X158568Y126865D01*
X159798Y128364D01*
X160712Y130073D01*
X161275Y131929D01*
X161465Y133858D01*
X161275Y135788D01*
X160712Y137643D01*
X159798Y139353D01*
X158568Y140852D01*
X157070Y142081D01*
X155360Y142996D01*
X153504Y143558D01*
X151575Y143748D01*
D02*
G37*
G36*
X-9104Y127262D02*
X-12068D01*
X-12014Y126848D01*
X-11661Y125997D01*
X-11100Y125266D01*
X-10369Y124705D01*
X-9518Y124352D01*
X-9104Y124298D01*
Y127262D01*
D02*
G37*
G36*
X-24825D02*
X-27789D01*
Y124298D01*
X-27375Y124352D01*
X-26524Y124705D01*
X-25793Y125266D01*
X-25232Y125997D01*
X-24879Y126848D01*
X-24825Y127262D01*
D02*
G37*
G36*
X99164Y111541D02*
X98750Y111487D01*
X97899Y111134D01*
X97168Y110573D01*
X96607Y109842D01*
X96254Y108991D01*
X96199Y108577D01*
X99164D01*
Y111541D01*
D02*
G37*
G36*
X80479D02*
Y108577D01*
X83443D01*
X83389Y108991D01*
X83036Y109842D01*
X82475Y110573D01*
X81744Y111134D01*
X80892Y111487D01*
X80479Y111541D01*
D02*
G37*
G36*
X129000Y120574D02*
X128075Y120452D01*
X127213Y120095D01*
X126473Y119527D01*
X125905Y118787D01*
X125548Y117925D01*
X125426Y117000D01*
X125548Y116075D01*
X125905Y115213D01*
X126473Y114473D01*
X127213Y113905D01*
X128075Y113548D01*
X129000Y113426D01*
X129925Y113548D01*
X130787Y113905D01*
X131527Y114473D01*
X132095Y115213D01*
X132452Y116075D01*
X132574Y117000D01*
X132452Y117925D01*
X132095Y118787D01*
X131527Y119527D01*
X130787Y120095D01*
X129925Y120452D01*
X129000Y120574D01*
D02*
G37*
G36*
X100164Y111541D02*
Y108577D01*
X103128D01*
X103074Y108991D01*
X102721Y109842D01*
X102160Y110573D01*
X101429Y111134D01*
X100577Y111487D01*
X100164Y111541D01*
D02*
G37*
G36*
X-38631D02*
X-39045Y111487D01*
X-39897Y111134D01*
X-40628Y110573D01*
X-41189Y109842D01*
X-41541Y108991D01*
X-41596Y108577D01*
X-38631D01*
Y111541D01*
D02*
G37*
G36*
X110006Y91856D02*
Y88892D01*
X112971D01*
X112916Y89306D01*
X112564Y90157D01*
X112003Y90888D01*
X111271Y91449D01*
X110420Y91802D01*
X110006Y91856D01*
D02*
G37*
G36*
X109006D02*
X108593Y91802D01*
X107741Y91449D01*
X107010Y90888D01*
X106449Y90157D01*
X106096Y89306D01*
X106042Y88892D01*
X109006D01*
Y91856D01*
D02*
G37*
G36*
X137614Y93228D02*
X131602D01*
Y91519D01*
X131154Y91298D01*
X130956Y91449D01*
X130105Y91802D01*
X129691Y91856D01*
Y88392D01*
Y84928D01*
X130105Y84982D01*
X130956Y85335D01*
X131154Y85486D01*
X131602Y85265D01*
Y82591D01*
X137614D01*
Y93228D01*
D02*
G37*
G36*
X128691Y91856D02*
X128278Y91802D01*
X127426Y91449D01*
X126695Y90888D01*
X126134Y90157D01*
X125781Y89306D01*
X125727Y88892D01*
X128691D01*
Y91856D01*
D02*
G37*
G36*
X70636D02*
Y88892D01*
X73601D01*
X73546Y89306D01*
X73194Y90157D01*
X72632Y90888D01*
X71901Y91449D01*
X71050Y91802D01*
X70636Y91856D01*
D02*
G37*
G36*
X69636D02*
X69223Y91802D01*
X68371Y91449D01*
X67640Y90888D01*
X67079Y90157D01*
X66726Y89306D01*
X66672Y88892D01*
X69636D01*
Y91856D01*
D02*
G37*
G36*
X90321D02*
Y88892D01*
X93286D01*
X93231Y89306D01*
X92879Y90157D01*
X92317Y90888D01*
X91586Y91449D01*
X90735Y91802D01*
X90321Y91856D01*
D02*
G37*
G36*
X89321D02*
X88908Y91802D01*
X88056Y91449D01*
X87325Y90888D01*
X86764Y90157D01*
X86411Y89306D01*
X86357Y88892D01*
X89321D01*
Y91856D01*
D02*
G37*
G36*
X83443Y107577D02*
X80479D01*
Y104613D01*
X80892Y104667D01*
X81744Y105020D01*
X82475Y105581D01*
X83036Y106312D01*
X83389Y107163D01*
X83443Y107577D01*
D02*
G37*
G36*
X79479D02*
X76514D01*
X76569Y107163D01*
X76921Y106312D01*
X77482Y105581D01*
X78214Y105020D01*
X79065Y104667D01*
X79479Y104613D01*
Y107577D01*
D02*
G37*
G36*
X103128D02*
X100164D01*
Y104613D01*
X100577Y104667D01*
X101429Y105020D01*
X102160Y105581D01*
X102721Y106312D01*
X103074Y107163D01*
X103128Y107577D01*
D02*
G37*
G36*
X99164D02*
X96199D01*
X96254Y107163D01*
X96607Y106312D01*
X97168Y105581D01*
X97899Y105020D01*
X98750Y104667D01*
X99164Y104613D01*
Y107577D01*
D02*
G37*
G36*
X-117500Y101890D02*
Y95500D01*
X-111110D01*
X-111194Y96354D01*
X-111589Y97655D01*
X-112231Y98855D01*
X-113093Y99907D01*
X-114145Y100769D01*
X-115345Y101411D01*
X-116646Y101806D01*
X-117500Y101890D01*
D02*
G37*
G36*
X-118500D02*
X-119354Y101806D01*
X-120655Y101411D01*
X-121855Y100769D01*
X-122907Y99907D01*
X-123769Y98855D01*
X-124411Y97655D01*
X-124806Y96354D01*
X-124890Y95500D01*
X-118500D01*
Y101890D01*
D02*
G37*
G36*
X24388Y107577D02*
X21424D01*
Y104613D01*
X21837Y104667D01*
X22689Y105020D01*
X23420Y105581D01*
X23981Y106312D01*
X24333Y107163D01*
X24388Y107577D01*
D02*
G37*
G36*
X20424D02*
X17459D01*
X17514Y107163D01*
X17866Y106312D01*
X18427Y105581D01*
X19159Y105020D01*
X20010Y104667D01*
X20424Y104613D01*
Y107577D01*
D02*
G37*
G36*
X31266Y131226D02*
Y128262D01*
X34231D01*
X34176Y128676D01*
X33823Y129527D01*
X33262Y130258D01*
X32531Y130819D01*
X31680Y131172D01*
X31266Y131226D01*
D02*
G37*
G36*
X30266D02*
X29853Y131172D01*
X29001Y130819D01*
X28270Y130258D01*
X27709Y129527D01*
X27356Y128676D01*
X27302Y128262D01*
X30266D01*
Y131226D01*
D02*
G37*
G36*
X50951D02*
Y128262D01*
X53916D01*
X53861Y128676D01*
X53508Y129527D01*
X52947Y130258D01*
X52216Y130819D01*
X51365Y131172D01*
X50951Y131226D01*
D02*
G37*
G36*
X49951D02*
X49538Y131172D01*
X48686Y130819D01*
X47955Y130258D01*
X47394Y129527D01*
X47041Y128676D01*
X46987Y128262D01*
X49951D01*
Y131226D01*
D02*
G37*
G36*
X-8104D02*
Y128262D01*
X-5139D01*
X-5194Y128676D01*
X-5547Y129527D01*
X-6108Y130258D01*
X-6839Y130819D01*
X-7690Y131172D01*
X-8104Y131226D01*
D02*
G37*
G36*
X-9104D02*
X-9518Y131172D01*
X-10369Y130819D01*
X-11100Y130258D01*
X-11661Y129527D01*
X-12014Y128676D01*
X-12068Y128262D01*
X-9104D01*
Y131226D01*
D02*
G37*
G36*
X11581D02*
Y128262D01*
X14546D01*
X14491Y128676D01*
X14138Y129527D01*
X13577Y130258D01*
X12846Y130819D01*
X11995Y131172D01*
X11581Y131226D01*
D02*
G37*
G36*
X10581D02*
X10167Y131172D01*
X9316Y130819D01*
X8585Y130258D01*
X8024Y129527D01*
X7671Y128676D01*
X7617Y128262D01*
X10581D01*
Y131226D01*
D02*
G37*
G36*
X110006D02*
Y128262D01*
X112971D01*
X112916Y128676D01*
X112564Y129527D01*
X112003Y130258D01*
X111271Y130819D01*
X110420Y131172D01*
X110006Y131226D01*
D02*
G37*
G36*
X109006D02*
X108593Y131172D01*
X107741Y130819D01*
X107010Y130258D01*
X106449Y129527D01*
X106096Y128676D01*
X106042Y128262D01*
X109006D01*
Y131226D01*
D02*
G37*
G36*
X129691D02*
Y128262D01*
X132656D01*
X132601Y128676D01*
X132249Y129527D01*
X131688Y130258D01*
X130956Y130819D01*
X130105Y131172D01*
X129691Y131226D01*
D02*
G37*
G36*
X128691D02*
X128278Y131172D01*
X127426Y130819D01*
X126695Y130258D01*
X126134Y129527D01*
X125781Y128676D01*
X125727Y128262D01*
X128691D01*
Y131226D01*
D02*
G37*
G36*
X70636D02*
Y128262D01*
X73601D01*
X73546Y128676D01*
X73194Y129527D01*
X72632Y130258D01*
X71901Y130819D01*
X71050Y131172D01*
X70636Y131226D01*
D02*
G37*
G36*
X69636D02*
X69223Y131172D01*
X68371Y130819D01*
X67640Y130258D01*
X67079Y129527D01*
X66726Y128676D01*
X66672Y128262D01*
X69636D01*
Y131226D01*
D02*
G37*
G36*
X90321D02*
Y128262D01*
X93286D01*
X93231Y128676D01*
X92879Y129527D01*
X92317Y130258D01*
X91586Y130819D01*
X90735Y131172D01*
X90321Y131226D01*
D02*
G37*
G36*
X89321D02*
X88908Y131172D01*
X88056Y130819D01*
X87325Y130258D01*
X86764Y129527D01*
X86411Y128676D01*
X86357Y128262D01*
X89321D01*
Y131226D01*
D02*
G37*
G36*
X-27789D02*
Y128262D01*
X-24825D01*
X-24879Y128676D01*
X-25232Y129527D01*
X-25793Y130258D01*
X-26524Y130819D01*
X-27375Y131172D01*
X-27789Y131226D01*
D02*
G37*
G36*
X49951Y127262D02*
X46987D01*
X47041Y126848D01*
X47394Y125997D01*
X47955Y125266D01*
X48686Y124705D01*
X49538Y124352D01*
X49951Y124298D01*
Y127262D01*
D02*
G37*
G36*
X34231D02*
X31266D01*
Y124298D01*
X31680Y124352D01*
X32531Y124705D01*
X33262Y125266D01*
X33823Y125997D01*
X34176Y126848D01*
X34231Y127262D01*
D02*
G37*
G36*
X69636D02*
X66672D01*
X66726Y126848D01*
X67079Y125997D01*
X67640Y125266D01*
X68371Y124705D01*
X69223Y124352D01*
X69636Y124298D01*
Y127262D01*
D02*
G37*
G36*
X53916D02*
X50951D01*
Y124298D01*
X51365Y124352D01*
X52216Y124705D01*
X52947Y125266D01*
X53508Y125997D01*
X53861Y126848D01*
X53916Y127262D01*
D02*
G37*
G36*
X10581D02*
X7617D01*
X7671Y126848D01*
X8024Y125997D01*
X8585Y125266D01*
X9316Y124705D01*
X10167Y124352D01*
X10581Y124298D01*
Y127262D01*
D02*
G37*
G36*
X-5139D02*
X-8104D01*
Y124298D01*
X-7690Y124352D01*
X-6839Y124705D01*
X-6108Y125266D01*
X-5547Y125997D01*
X-5194Y126848D01*
X-5139Y127262D01*
D02*
G37*
G36*
X30266D02*
X27302D01*
X27356Y126848D01*
X27709Y125997D01*
X28270Y125266D01*
X29001Y124705D01*
X29853Y124352D01*
X30266Y124298D01*
Y127262D01*
D02*
G37*
G36*
X14546D02*
X11581D01*
Y124298D01*
X11995Y124352D01*
X12846Y124705D01*
X13577Y125266D01*
X14138Y125997D01*
X14491Y126848D01*
X14546Y127262D01*
D02*
G37*
G36*
X128691D02*
X125727D01*
X125781Y126848D01*
X126134Y125997D01*
X126695Y125266D01*
X127426Y124705D01*
X128278Y124352D01*
X128691Y124298D01*
Y127262D01*
D02*
G37*
G36*
X112971D02*
X110006D01*
Y124298D01*
X110420Y124352D01*
X111271Y124705D01*
X112003Y125266D01*
X112564Y125997D01*
X112916Y126848D01*
X112971Y127262D01*
D02*
G37*
G36*
X-28789Y131226D02*
X-29203Y131172D01*
X-30054Y130819D01*
X-30785Y130258D01*
X-31346Y129527D01*
X-31699Y128676D01*
X-31753Y128262D01*
X-28789D01*
Y131226D01*
D02*
G37*
G36*
X132656Y127262D02*
X129691D01*
Y124298D01*
X130105Y124352D01*
X130956Y124705D01*
X131688Y125266D01*
X132249Y125997D01*
X132601Y126848D01*
X132656Y127262D01*
D02*
G37*
G36*
X89321D02*
X86357D01*
X86411Y126848D01*
X86764Y125997D01*
X87325Y125266D01*
X88056Y124705D01*
X88908Y124352D01*
X89321Y124298D01*
Y127262D01*
D02*
G37*
G36*
X73601D02*
X70636D01*
Y124298D01*
X71050Y124352D01*
X71901Y124705D01*
X72632Y125266D01*
X73194Y125997D01*
X73546Y126848D01*
X73601Y127262D01*
D02*
G37*
G36*
X109006D02*
X106042D01*
X106096Y126848D01*
X106449Y125997D01*
X107010Y125266D01*
X107741Y124705D01*
X108593Y124352D01*
X109006Y124298D01*
Y127262D01*
D02*
G37*
G36*
X93286D02*
X90321D01*
Y124298D01*
X90735Y124352D01*
X91586Y124705D01*
X92317Y125266D01*
X92879Y125997D01*
X93231Y126848D01*
X93286Y127262D01*
D02*
G37*
G36*
X50951Y91856D02*
Y88892D01*
X53916D01*
X53861Y89306D01*
X53508Y90157D01*
X52947Y90888D01*
X52216Y91449D01*
X51365Y91802D01*
X50951Y91856D01*
D02*
G37*
G36*
X73000Y64750D02*
X70000D01*
Y62500D01*
X73000D01*
Y64750D01*
D02*
G37*
G36*
X69000D02*
X66000D01*
Y62500D01*
X69000D01*
Y64750D01*
D02*
G37*
G36*
X-70006Y71000D02*
X-78500D01*
Y62506D01*
X-77236Y62630D01*
X-75539Y63145D01*
X-73976Y63981D01*
X-72605Y65105D01*
X-71481Y66476D01*
X-70645Y68039D01*
X-70130Y69736D01*
X-70006Y71000D01*
D02*
G37*
G36*
X-79500D02*
X-87994D01*
X-87870Y69736D01*
X-87355Y68039D01*
X-86519Y66476D01*
X-85395Y65105D01*
X-84024Y63981D01*
X-82461Y63145D01*
X-80764Y62630D01*
X-79500Y62506D01*
Y71000D01*
D02*
G37*
G36*
X43500Y64500D02*
X41250D01*
Y61500D01*
X43500D01*
Y64500D01*
D02*
G37*
G36*
X73000Y61500D02*
X70000D01*
Y59250D01*
X73000D01*
Y61500D01*
D02*
G37*
G36*
X5437Y85972D02*
X-2437D01*
Y69831D01*
X-1478D01*
Y69000D01*
X-1377Y68229D01*
X-1079Y67511D01*
X-606Y66894D01*
X1894Y64394D01*
X1894Y64394D01*
X2511Y63921D01*
X3229Y63623D01*
X3675Y63564D01*
Y62425D01*
X10325D01*
Y70575D01*
X5437D01*
Y85972D01*
D02*
G37*
G36*
X46750Y64500D02*
X44500D01*
Y61500D01*
X46750D01*
Y64500D01*
D02*
G37*
G36*
X118849Y68207D02*
X115884D01*
X115939Y67793D01*
X116292Y66942D01*
X116853Y66211D01*
X117584Y65650D01*
X118435Y65297D01*
X118849Y65243D01*
Y68207D01*
D02*
G37*
G36*
X44073D02*
X41109D01*
Y65243D01*
X41522Y65297D01*
X42374Y65650D01*
X43105Y66211D01*
X43666Y66942D01*
X44019Y67793D01*
X44073Y68207D01*
D02*
G37*
G36*
X94606Y69587D02*
X81606D01*
Y67590D01*
X94606D01*
Y69587D01*
D02*
G37*
G36*
X122813Y68207D02*
X119849D01*
Y65243D01*
X120263Y65297D01*
X121114Y65650D01*
X121845Y66211D01*
X122406Y66942D01*
X122759Y67793D01*
X122813Y68207D01*
D02*
G37*
G36*
X-38631D02*
X-41596D01*
X-41541Y67793D01*
X-41189Y66942D01*
X-40628Y66211D01*
X-39897Y65650D01*
X-39045Y65297D01*
X-38631Y65243D01*
Y68207D01*
D02*
G37*
G36*
X108606Y66590D02*
X81606D01*
Y64940D01*
X81606Y64940D01*
X81606D01*
X81606Y64595D01*
Y64591D01*
Y64587D01*
X81606Y64241D01*
X81606Y64241D01*
X81606D01*
Y62590D01*
X108606D01*
Y64241D01*
X108606Y64241D01*
D01*
D01*
X108606Y64587D01*
Y64587D01*
Y64591D01*
X108606Y64595D01*
X108606Y64940D01*
X108606Y64940D01*
X108606D01*
Y66590D01*
D02*
G37*
G36*
X40109Y68207D02*
X37144D01*
X37199Y67793D01*
X37551Y66942D01*
X38113Y66211D01*
X38844Y65650D01*
X39695Y65297D01*
X40109Y65243D01*
Y68207D01*
D02*
G37*
G36*
X-14982D02*
X-17946D01*
Y65243D01*
X-17533Y65297D01*
X-16681Y65650D01*
X-15950Y66211D01*
X-15389Y66942D01*
X-15036Y67793D01*
X-14982Y68207D01*
D02*
G37*
G36*
X69000Y61500D02*
X66000D01*
Y59250D01*
X69000D01*
Y61500D01*
D02*
G37*
G36*
X49951Y52486D02*
X49538Y52432D01*
X48686Y52079D01*
X47955Y51518D01*
X47394Y50787D01*
X47041Y49936D01*
X46987Y49522D01*
X49951D01*
Y52486D01*
D02*
G37*
G36*
X-27789D02*
Y49522D01*
X-24825D01*
X-24879Y49936D01*
X-25232Y50787D01*
X-25793Y51518D01*
X-26524Y52079D01*
X-27375Y52432D01*
X-27789Y52486D01*
D02*
G37*
G36*
X128691D02*
X128278Y52432D01*
X127426Y52079D01*
X126695Y51518D01*
X126134Y50787D01*
X125781Y49936D01*
X125727Y49522D01*
X128691D01*
Y52486D01*
D02*
G37*
G36*
X50951D02*
Y49522D01*
X53916D01*
X53861Y49936D01*
X53508Y50787D01*
X52947Y51518D01*
X52216Y52079D01*
X51365Y52432D01*
X50951Y52486D01*
D02*
G37*
G36*
X148376Y48522D02*
X145412D01*
X145466Y48108D01*
X145819Y47257D01*
X146380Y46526D01*
X147111Y45965D01*
X147963Y45612D01*
X148376Y45557D01*
Y48522D01*
D02*
G37*
G36*
X132656D02*
X129691D01*
Y45557D01*
X130105Y45612D01*
X130956Y45965D01*
X131688Y46526D01*
X132249Y47257D01*
X132601Y48108D01*
X132656Y48522D01*
D02*
G37*
G36*
X-28789Y52486D02*
X-29203Y52432D01*
X-30054Y52079D01*
X-30785Y51518D01*
X-31346Y50787D01*
X-31699Y49936D01*
X-31753Y49522D01*
X-28789D01*
Y52486D01*
D02*
G37*
G36*
X152341Y48522D02*
X149376D01*
Y45557D01*
X149790Y45612D01*
X150642Y45965D01*
X151373Y46526D01*
X151934Y47257D01*
X152286Y48108D01*
X152341Y48522D01*
D02*
G37*
G36*
X43500Y60500D02*
X41250D01*
Y57500D01*
X43500D01*
Y60500D01*
D02*
G37*
G36*
X-750D02*
X-3000D01*
Y57500D01*
X-750D01*
Y60500D01*
D02*
G37*
G36*
X108606Y61590D02*
X81606D01*
Y59940D01*
X81606Y59940D01*
X81606D01*
X81606Y59595D01*
Y59591D01*
Y59587D01*
X81606Y59241D01*
X81606Y59241D01*
X81606D01*
Y57591D01*
X108606D01*
Y59241D01*
X108606Y59241D01*
D01*
D01*
X108606Y59587D01*
Y59587D01*
Y59591D01*
X108606Y59595D01*
X108606Y59940D01*
X108606Y59940D01*
X108606D01*
Y61590D01*
D02*
G37*
G36*
X46750Y60500D02*
X44500D01*
Y57500D01*
X46750D01*
Y60500D01*
D02*
G37*
G36*
X148376Y52486D02*
X147963Y52432D01*
X147111Y52079D01*
X146380Y51518D01*
X145819Y50787D01*
X145466Y49936D01*
X145412Y49522D01*
X148376D01*
Y52486D01*
D02*
G37*
G36*
X129691D02*
Y49522D01*
X132656D01*
X132601Y49936D01*
X132249Y50787D01*
X131688Y51518D01*
X130956Y52079D01*
X130105Y52432D01*
X129691Y52486D01*
D02*
G37*
G36*
X-4000Y60500D02*
X-6250D01*
Y57500D01*
X-4000D01*
Y60500D01*
D02*
G37*
G36*
X149376Y52486D02*
Y49522D01*
X152341D01*
X152286Y49936D01*
X151934Y50787D01*
X151373Y51518D01*
X150642Y52079D01*
X149790Y52432D01*
X149376Y52486D01*
D02*
G37*
G36*
X89321Y87892D02*
X86357D01*
X86411Y87478D01*
X86764Y86627D01*
X87325Y85896D01*
X88056Y85335D01*
X88908Y84982D01*
X89321Y84928D01*
Y87892D01*
D02*
G37*
G36*
X73601D02*
X70636D01*
Y84928D01*
X71050Y84982D01*
X71901Y85335D01*
X72632Y85896D01*
X73194Y86627D01*
X73546Y87478D01*
X73601Y87892D01*
D02*
G37*
G36*
X109006D02*
X106042D01*
X106096Y87478D01*
X106449Y86627D01*
X107010Y85896D01*
X107741Y85335D01*
X108593Y84982D01*
X109006Y84928D01*
Y87892D01*
D02*
G37*
G36*
X93286D02*
X90321D01*
Y84928D01*
X90735Y84982D01*
X91586Y85335D01*
X92317Y85896D01*
X92879Y86627D01*
X93231Y87478D01*
X93286Y87892D01*
D02*
G37*
G36*
X14546D02*
X11581D01*
Y84928D01*
X11995Y84982D01*
X12846Y85335D01*
X13577Y85896D01*
X14138Y86627D01*
X14491Y87478D01*
X14546Y87892D01*
D02*
G37*
G36*
X10581D02*
X7617D01*
X7671Y87478D01*
X8024Y86627D01*
X8585Y85896D01*
X9316Y85335D01*
X10167Y84982D01*
X10581Y84928D01*
Y87892D01*
D02*
G37*
G36*
X69636D02*
X66672D01*
X66726Y87478D01*
X67079Y86627D01*
X67640Y85896D01*
X68371Y85335D01*
X69223Y84982D01*
X69636Y84928D01*
Y87892D01*
D02*
G37*
G36*
X53916D02*
X50951D01*
Y84928D01*
X51365Y84982D01*
X52216Y85335D01*
X52947Y85896D01*
X53508Y86627D01*
X53861Y87478D01*
X53916Y87892D01*
D02*
G37*
G36*
X10581Y91856D02*
X10167Y91802D01*
X9316Y91449D01*
X8585Y90888D01*
X8024Y90157D01*
X7671Y89306D01*
X7617Y88892D01*
X10581D01*
Y91856D01*
D02*
G37*
G36*
X-14982Y107577D02*
X-21911D01*
X-21856Y107163D01*
X-21504Y106312D01*
X-21460Y106255D01*
X-21682Y105807D01*
X-25646D01*
Y94193D01*
X-19251D01*
X-16952Y91894D01*
X-16335Y91421D01*
X-15617Y91123D01*
X-14846Y91022D01*
X-12075D01*
Y90675D01*
X-11829D01*
X-11608Y90227D01*
X-11661Y90157D01*
X-12014Y89306D01*
X-12068Y88892D01*
X-5139D01*
X-5194Y89306D01*
X-5547Y90157D01*
X-5600Y90227D01*
X-5379Y90675D01*
X-3925D01*
Y97325D01*
X-12075D01*
Y96978D01*
X-13047D01*
Y105807D01*
X-15211D01*
X-15432Y106255D01*
X-15389Y106312D01*
X-15036Y107163D01*
X-14982Y107577D01*
D02*
G37*
G36*
X49951Y91856D02*
X49538Y91802D01*
X48686Y91449D01*
X47955Y90888D01*
X47394Y90157D01*
X47041Y89306D01*
X46987Y88892D01*
X49951D01*
Y91856D01*
D02*
G37*
G36*
X11581D02*
Y88892D01*
X14546D01*
X14491Y89306D01*
X14138Y90157D01*
X13577Y90888D01*
X12846Y91449D01*
X11995Y91802D01*
X11581Y91856D01*
D02*
G37*
G36*
X128691Y87892D02*
X125727D01*
X125781Y87478D01*
X126134Y86627D01*
X126695Y85896D01*
X127426Y85335D01*
X128278Y84982D01*
X128691Y84928D01*
Y87892D01*
D02*
G37*
G36*
X112971D02*
X110006D01*
Y84928D01*
X110420Y84982D01*
X111271Y85335D01*
X112003Y85896D01*
X112564Y86627D01*
X112916Y87478D01*
X112971Y87892D01*
D02*
G37*
G36*
X-27789Y91856D02*
Y88892D01*
X-24825D01*
X-24879Y89306D01*
X-25232Y90157D01*
X-25793Y90888D01*
X-26524Y91449D01*
X-27375Y91802D01*
X-27789Y91856D01*
D02*
G37*
G36*
X-28789D02*
X-29203Y91802D01*
X-30054Y91449D01*
X-30785Y90888D01*
X-31346Y90157D01*
X-31699Y89306D01*
X-31753Y88892D01*
X-28789D01*
Y91856D01*
D02*
G37*
G36*
X-5139Y87892D02*
X-8104D01*
Y84928D01*
X-7690Y84982D01*
X-6839Y85335D01*
X-6108Y85896D01*
X-5547Y86627D01*
X-5194Y87478D01*
X-5139Y87892D01*
D02*
G37*
G36*
X119849Y72171D02*
Y69207D01*
X122813D01*
X122759Y69621D01*
X122406Y70472D01*
X121845Y71203D01*
X121114Y71764D01*
X120263Y72117D01*
X119849Y72171D01*
D02*
G37*
G36*
X118849D02*
X118435Y72117D01*
X117584Y71764D01*
X116853Y71203D01*
X116292Y70472D01*
X115939Y69621D01*
X115884Y69207D01*
X118849D01*
Y72171D01*
D02*
G37*
G36*
X137614Y81590D02*
X131602D01*
Y70953D01*
X137614D01*
Y81590D01*
D02*
G37*
G36*
X-34667Y107577D02*
X-41596D01*
X-41541Y107163D01*
X-41189Y106312D01*
X-41146Y106255D01*
X-41367Y105807D01*
X-43953D01*
Y94193D01*
X-41227D01*
Y80993D01*
X-41105Y80068D01*
X-40896Y79563D01*
X-40749Y79207D01*
X-40181Y78466D01*
X-34438Y72724D01*
X-34455Y72667D01*
X-34581Y71393D01*
X-34475Y70317D01*
X-34960Y70196D01*
X-35074Y70472D01*
X-35635Y71203D01*
X-36366Y71764D01*
X-37218Y72117D01*
X-37631Y72171D01*
Y68707D01*
Y65243D01*
X-37218Y65297D01*
X-36366Y65650D01*
X-35635Y66211D01*
X-35074Y66942D01*
X-34722Y67793D01*
X-34601Y68707D01*
X-34642Y69020D01*
X-34154Y69125D01*
X-34084Y68895D01*
X-33481Y67767D01*
X-32669Y66778D01*
X-31680Y65966D01*
X-30551Y65363D01*
X-29327Y64991D01*
X-28053Y64866D01*
X-26780Y64991D01*
X-25555Y65363D01*
X-24427Y65966D01*
X-23438Y66778D01*
X-22626Y67767D01*
X-22391Y68207D01*
X-21899Y68117D01*
X-21856Y67793D01*
X-21504Y66942D01*
X-20943Y66211D01*
X-20211Y65650D01*
X-19360Y65297D01*
X-18946Y65243D01*
Y68707D01*
Y72171D01*
X-19360Y72117D01*
X-20211Y71764D01*
X-20943Y71203D01*
X-21079Y71026D01*
X-21544Y71209D01*
X-21526Y71393D01*
X-21651Y72667D01*
X-22023Y73891D01*
X-22626Y75020D01*
X-23438Y76009D01*
X-24427Y76821D01*
X-25555Y77424D01*
X-26780Y77795D01*
X-28053Y77921D01*
X-29327Y77795D01*
X-29384Y77778D01*
X-34080Y82474D01*
Y94193D01*
X-31354D01*
Y105807D01*
X-34896D01*
X-35118Y106255D01*
X-35074Y106312D01*
X-34722Y107163D01*
X-34667Y107577D01*
D02*
G37*
G36*
X-38631Y72171D02*
X-39045Y72117D01*
X-39897Y71764D01*
X-40628Y71203D01*
X-41189Y70472D01*
X-41541Y69621D01*
X-41596Y69207D01*
X-38631D01*
Y72171D01*
D02*
G37*
G36*
X108606Y69587D02*
X95606D01*
Y67590D01*
X108606D01*
Y69587D01*
D02*
G37*
G36*
X41109Y72171D02*
Y69207D01*
X44073D01*
X44019Y69621D01*
X43666Y70472D01*
X43105Y71203D01*
X42374Y71764D01*
X41522Y72117D01*
X41109Y72171D01*
D02*
G37*
G36*
X-17946D02*
Y69207D01*
X-14982D01*
X-15036Y69621D01*
X-15389Y70472D01*
X-15950Y71203D01*
X-16681Y71764D01*
X-17533Y72117D01*
X-17946Y72171D01*
D02*
G37*
G36*
X-28789Y87892D02*
X-31753D01*
X-31699Y87478D01*
X-31346Y86627D01*
X-30785Y85896D01*
X-30054Y85335D01*
X-29203Y84982D01*
X-28789Y84928D01*
Y87892D01*
D02*
G37*
G36*
X146000Y87466D02*
Y80681D01*
X152785D01*
X152694Y81612D01*
X152276Y82988D01*
X151598Y84256D01*
X150686Y85367D01*
X149575Y86279D01*
X148307Y86957D01*
X146931Y87375D01*
X146000Y87466D01*
D02*
G37*
G36*
X-9104Y87892D02*
X-12068D01*
X-12014Y87478D01*
X-11661Y86627D01*
X-11100Y85896D01*
X-10369Y85335D01*
X-9518Y84982D01*
X-9104Y84928D01*
Y87892D01*
D02*
G37*
G36*
X-24825D02*
X-27789D01*
Y84928D01*
X-27375Y84982D01*
X-26524Y85335D01*
X-25793Y85896D01*
X-25232Y86627D01*
X-24879Y87478D01*
X-24825Y87892D01*
D02*
G37*
G36*
X-78500Y80494D02*
Y72000D01*
X-70006D01*
X-70130Y73264D01*
X-70645Y74961D01*
X-71481Y76524D01*
X-72605Y77895D01*
X-73976Y79019D01*
X-75539Y79855D01*
X-77236Y80370D01*
X-78500Y80494D01*
D02*
G37*
G36*
X-79500D02*
X-80764Y80370D01*
X-82461Y79855D01*
X-84024Y79019D01*
X-85395Y77895D01*
X-86519Y76524D01*
X-87355Y74961D01*
X-87870Y73264D01*
X-87994Y72000D01*
X-79500D01*
Y80494D01*
D02*
G37*
G36*
X152785Y79681D02*
X146000D01*
Y72896D01*
X146931Y72988D01*
X148307Y73405D01*
X149575Y74083D01*
X150686Y74995D01*
X151598Y76106D01*
X152276Y77374D01*
X152694Y78750D01*
X152785Y79681D01*
D02*
G37*
G36*
X144626Y93228D02*
X138614D01*
Y82091D01*
Y70953D01*
X144626D01*
Y72560D01*
X144997Y72896D01*
X145000Y72896D01*
Y80181D01*
Y87466D01*
X144997Y87466D01*
X144626Y87802D01*
Y93228D01*
D02*
G37*
%LPD*%
D10*
X-119000Y-134000D02*
D03*
X129000Y117000D02*
D03*
D11*
X95606Y-57092D02*
D03*
Y-52091D02*
D03*
X95106Y42089D02*
D03*
Y47091D02*
D03*
X95606Y-67090D02*
D03*
Y-62090D02*
D03*
Y-47091D02*
D03*
Y-42091D02*
D03*
Y-37091D02*
D03*
Y-32091D02*
D03*
X95106Y67090D02*
D03*
Y62090D02*
D03*
Y57091D02*
D03*
Y52091D02*
D03*
Y37091D02*
D03*
Y32091D02*
D03*
D12*
X78500Y48500D02*
D03*
Y40500D02*
D03*
X44000Y61000D02*
D03*
X52000D02*
D03*
X97000Y-104500D02*
D03*
X89000D02*
D03*
X118500Y7500D02*
D03*
X126500D02*
D03*
X26000Y22000D02*
D03*
X18000D02*
D03*
X-3500Y57000D02*
D03*
X4500D02*
D03*
X15000Y66500D02*
D03*
X7000D02*
D03*
X89000Y-96500D02*
D03*
X97000D02*
D03*
X26000Y14000D02*
D03*
X18000D02*
D03*
X26000Y5500D02*
D03*
X18000D02*
D03*
X67500Y-6000D02*
D03*
X75500D02*
D03*
X29000D02*
D03*
X21000D02*
D03*
X118500Y-3500D02*
D03*
X126500D02*
D03*
X70500Y48500D02*
D03*
Y40500D02*
D03*
D13*
X59500Y42000D02*
D03*
Y47000D02*
D03*
Y52000D02*
D03*
Y37000D02*
D03*
X36500D02*
D03*
Y42000D02*
D03*
Y47000D02*
D03*
Y52000D02*
D03*
D14*
X138614Y-82091D02*
D03*
Y-17090D02*
D03*
X138114Y82091D02*
D03*
Y17090D02*
D03*
D15*
X-8000Y102000D02*
D03*
Y94000D02*
D03*
X18500Y42500D02*
D03*
Y34500D02*
D03*
X109000Y-100500D02*
D03*
Y-92500D02*
D03*
X69500Y27000D02*
D03*
Y35000D02*
D03*
Y62000D02*
D03*
Y54000D02*
D03*
X26500Y41500D02*
D03*
Y49500D02*
D03*
X25000Y-38500D02*
D03*
Y-30500D02*
D03*
X-97000Y-26500D02*
D03*
Y-18500D02*
D03*
X-54500Y-27000D02*
D03*
Y-19000D02*
D03*
X-500D02*
D03*
Y-27000D02*
D03*
D16*
X5500Y-82000D02*
D03*
X9250Y-74000D02*
D03*
X1750D02*
D03*
X5500Y-105500D02*
D03*
X9250Y-97500D02*
D03*
X1750D02*
D03*
X-44000Y-27000D02*
D03*
X-40250Y-19000D02*
D03*
X-47750D02*
D03*
D17*
X65500Y-65780D02*
D03*
Y-88220D02*
D03*
X61000Y102220D02*
D03*
Y79780D02*
D03*
D18*
X50000Y-38000D02*
D03*
X45000D02*
D03*
Y-33000D02*
D03*
Y-28000D02*
D03*
X50000Y-33000D02*
D03*
Y-28000D02*
D03*
D19*
X161000Y-109217D02*
D03*
Y-103783D02*
D03*
X161500Y4283D02*
D03*
Y9717D02*
D03*
Y-4283D02*
D03*
Y-9717D02*
D03*
X161000Y-91283D02*
D03*
Y-96717D02*
D03*
D20*
X-32417Y-18000D02*
D03*
Y-28000D02*
D03*
X-9583Y-18000D02*
D03*
Y-28000D02*
D03*
D21*
X21500Y77902D02*
D03*
X1500D02*
D03*
X11500Y103098D02*
D03*
D22*
X-84500Y-16595D02*
D03*
Y-28405D02*
D03*
D23*
X-67000Y-13346D02*
D03*
Y-31654D02*
D03*
X36500Y100654D02*
D03*
Y82346D02*
D03*
D24*
X-37653Y100000D02*
D03*
X-19346D02*
D03*
D25*
X15496Y-42000D02*
D03*
X2504Y-52000D02*
D03*
D03*
D26*
X124000Y-95004D02*
D03*
X134000Y-107996D02*
D03*
D03*
D27*
X10500Y49150D02*
D03*
X5500D02*
D03*
X500D02*
D03*
X-4500D02*
D03*
Y27500D02*
D03*
X500D02*
D03*
X5500D02*
D03*
X10500D02*
D03*
D28*
X44250Y-101560D02*
D03*
Y-92500D02*
D03*
Y-83440D02*
D03*
D29*
X19750Y-92560D02*
D03*
D30*
X38299Y-67500D02*
D03*
X25701D02*
D03*
D31*
X37500Y24000D02*
D03*
Y19000D02*
D03*
Y14000D02*
D03*
Y9000D02*
D03*
Y4000D02*
D03*
Y-1000D02*
D03*
Y-6000D02*
D03*
X58500Y4000D02*
D03*
Y9000D02*
D03*
Y14000D02*
D03*
Y19000D02*
D03*
Y24000D02*
D03*
Y-6000D02*
D03*
Y-1000D02*
D03*
D32*
X47500Y-25500D02*
Y-18500D01*
X154500Y-96500D02*
X160783D01*
X161000Y-96717D01*
X154717Y-103783D02*
X161000D01*
X97000Y-104500D02*
X101500D01*
X97000Y-96500D02*
X102000D01*
X101500Y-104500D02*
X101717Y-104283D01*
X102000Y-104567D01*
X109000Y-104000D02*
Y-100500D01*
Y-104000D02*
X112996Y-107996D01*
X134000D01*
X47500Y-25500D02*
X50000Y-28000D01*
X58500Y14000D02*
X64500D01*
X43850Y-39150D02*
X45000Y-38000D01*
X31000Y-49500D02*
X42000D01*
X43850Y-47650D01*
Y-39150D01*
X41291Y-36709D02*
X45000Y-33000D01*
X32791Y-36709D02*
X41291D01*
X31000Y-34917D02*
X32791Y-36709D01*
X31000Y-34917D02*
Y-26500D01*
X38000Y-19500D01*
X25000Y-43500D02*
Y-38500D01*
X25250Y-43750D02*
X31000Y-49500D01*
X52500Y19000D02*
X58500D01*
X64500Y14000D02*
Y15500D01*
X50000Y-33000D02*
X53709Y-36709D01*
X60072D01*
X60280Y-36500D01*
X65500D01*
X51150Y-47850D02*
Y-39150D01*
X50000Y-38000D02*
X51150Y-39150D01*
X2504Y-52000D02*
X12500D01*
X13000Y-51500D01*
X38299Y-67500D02*
X47500D01*
X48500Y-68500D01*
Y-74000D02*
Y-68500D01*
X25000Y-30500D02*
Y-24000D01*
X37000Y-12000D01*
X39000D01*
X47000Y-4000D01*
X26500Y39500D02*
Y41500D01*
Y39500D02*
X27500Y38500D01*
X50500Y-48500D02*
X51150Y-47850D01*
X50500Y-48500D02*
Y-47500D01*
D33*
X152717Y8717D02*
X159500D01*
X160500Y9717D02*
X161500D01*
X159500Y8717D02*
X160500Y9717D01*
X156283Y3283D02*
X159500D01*
X160500Y4283D02*
X161500D01*
X159500Y3283D02*
X160500Y4283D01*
X150642Y-3642D02*
X160858D01*
X161500Y-4283D01*
X154500Y-11000D02*
X160217D01*
X93988Y42089D02*
X94898Y42999D01*
X70500Y36500D02*
Y40500D01*
X69500Y35500D02*
X70500Y36500D01*
X69500Y55500D02*
X70500Y54500D01*
Y49500D02*
Y54500D01*
X146500Y500D02*
X150642Y-3642D01*
X65267Y4000D02*
X66767Y5500D01*
X58500Y4000D02*
X65267D01*
X66767Y5500D02*
X71500D01*
X155000Y-10500D02*
Y-9500D01*
X154500Y-11000D02*
X155000Y-10500D01*
X130500Y500D02*
X146500D01*
X126500Y-3500D02*
X130500Y500D01*
X126500Y7500D02*
X129500Y4500D01*
X148500D02*
X152717Y8717D01*
X129500Y4500D02*
X148500D01*
X58500Y-6000D02*
X67500D01*
X160217Y-11000D02*
X161500Y-9717D01*
X66500Y-1000D02*
X68000Y500D01*
X58500Y-1000D02*
X66500D01*
X-9583Y-18000D02*
X-1500D01*
X-500Y-19000D01*
X29000Y-6000D02*
X37500D01*
X71500Y5500D02*
X75500Y1500D01*
X68000Y500D02*
X68016Y483D01*
X26000Y14000D02*
Y14766D01*
X30233Y19000D01*
X37500D01*
X-500Y-19000D02*
X13000D01*
X17500Y-14500D01*
X74500Y500D02*
X75500Y1500D01*
D34*
X114751Y-55000D02*
X117362Y-52389D01*
X113978Y-55772D02*
X114625Y-55125D01*
X114751Y-55000D02*
X116500Y-56749D01*
Y-57000D02*
Y-56749D01*
X115000Y-51410D02*
Y-48000D01*
X113000Y-53410D02*
X115000Y-51410D01*
X110082Y-53410D02*
X113000D01*
X108762Y-57092D02*
X110082Y-55772D01*
X95606Y-57092D02*
X108762D01*
X110082Y-55772D02*
X113978D01*
X108762Y-52091D02*
X110082Y-53410D01*
X95606Y-52091D02*
X108762D01*
X109000Y-92500D02*
Y-88500D01*
X112000Y-48000D02*
X115000D01*
X124000Y-95004D02*
Y-88500D01*
X78022Y44772D02*
X78500Y45250D01*
X76016Y44772D02*
X78022D01*
X78500Y45250D02*
Y48500D01*
X81262Y41589D02*
X81762Y42089D01*
X93988D02*
X95106D01*
X81762D02*
X93988D01*
X78500Y48500D02*
X81262D01*
Y47591D02*
Y48500D01*
Y47591D02*
X81762Y47091D01*
X95106D01*
X78500Y40500D02*
X81262D01*
Y41589D01*
X67762Y40500D02*
X70500D01*
X66262Y42000D02*
X67762Y40500D01*
X59500Y42000D02*
X66262D01*
X67762Y48500D02*
X70500D01*
X66262Y47000D02*
X67762Y48500D01*
X59500Y47000D02*
X66262D01*
X41762Y52000D02*
X43500Y50262D01*
X36500Y52000D02*
X41762D01*
X43500Y39841D02*
Y50262D01*
X36500Y37000D02*
X43000D01*
X45500Y34500D01*
X46362Y36978D02*
X47862Y35478D01*
X46362Y36978D02*
Y36979D01*
X43500Y39841D02*
X46362Y36979D01*
X37500Y-1000D02*
X41262D01*
X37500Y4000D02*
X42500D01*
X45500Y7000D01*
Y34500D01*
X37500Y19000D02*
X41000D01*
X42500Y20500D01*
Y27000D01*
X10500Y41000D02*
X13000Y38500D01*
X10500Y41000D02*
Y49150D01*
X36500Y33000D02*
X42500Y27000D01*
X26000Y500D02*
Y5500D01*
X41262Y-1000D02*
X47862Y5600D01*
Y35478D01*
X13000Y38500D02*
X21500D01*
X22228Y37772D01*
Y37731D02*
Y37772D01*
Y37731D02*
X26959Y33000D01*
X36500D01*
X76016Y36228D02*
X76138D01*
X74978Y37266D02*
X76016Y36228D01*
X74978Y37266D02*
Y43734D01*
X76016Y44772D01*
X76138Y12522D02*
Y36228D01*
X78500Y13500D02*
Y40500D01*
Y13500D02*
X117362Y-25362D01*
Y-52389D02*
Y-25362D01*
X76138Y12522D02*
X115000Y-26341D01*
Y-48000D02*
Y-26341D01*
D35*
X96457Y-62059D02*
X122441D01*
X122500Y-62000D01*
X96398D02*
X96457Y-62059D01*
X95606Y-67090D02*
X122091D01*
X122500Y-67500D01*
X65000Y27500D02*
X69500D01*
X69559Y27441D01*
X64500Y28000D02*
X65000Y27500D01*
X110500Y-5000D02*
X125500Y-20000D01*
X110500Y-5000D02*
Y33000D01*
X95106Y37091D02*
X109909D01*
X110500Y33000D02*
Y36500D01*
X109909Y37091D02*
X110500Y36500D01*
X109591Y32091D02*
X110500Y33000D01*
X95106Y32091D02*
X109591D01*
X122500Y-67500D02*
Y-63000D01*
X153000D01*
X161000Y-91283D02*
Y-71000D01*
X153000Y-63000D02*
X161000Y-71000D01*
X-14846Y94000D02*
X-8000D01*
X-19346Y98500D02*
Y100000D01*
Y98500D02*
X-14846Y94000D01*
X52000Y61000D02*
X56500D01*
X59500Y58000D01*
Y53500D02*
Y58000D01*
X44250Y-83440D02*
X51560D01*
X4000Y66500D02*
X7000D01*
X1500Y69000D02*
X4000Y66500D01*
X1500Y69000D02*
Y77902D01*
X-4500Y49150D02*
Y56000D01*
X-3500Y57000D01*
X-25970Y-55000D02*
X-9000D01*
X1750Y-65750D01*
Y-74000D02*
Y-65750D01*
X19750Y-92560D02*
Y-83250D01*
X25701Y-77299D01*
Y-67500D01*
X58000Y-66000D02*
X58220Y-65780D01*
X65500D01*
X58000Y-77000D02*
Y-66000D01*
X51560Y-83440D02*
X58000Y-77000D01*
X25701Y-67500D02*
Y-60701D01*
X25500Y-60500D02*
X25701Y-60701D01*
X10000Y-6000D02*
X21000D01*
X75500D02*
X79000D01*
X52000Y61000D02*
Y67000D01*
X10500Y27500D02*
X14000D01*
X18500Y32000D01*
Y34500D01*
X9441Y-5441D02*
X10000Y-6000D01*
X19750Y-104250D02*
Y-92560D01*
Y-104250D02*
X24500Y-109000D01*
X76000D01*
X80500Y-104500D01*
X89000D01*
X10500Y20500D02*
Y27500D01*
X3500Y10000D02*
Y13500D01*
X10500Y20500D01*
X79000Y-6000D02*
X80000Y-5000D01*
X69559Y12941D02*
Y27441D01*
Y12941D02*
X80000Y2500D01*
Y-5000D02*
Y2500D01*
X122500Y-62000D02*
X125500D01*
Y-20000D01*
X77780Y-65780D02*
X79090Y-67090D01*
X95606D01*
X65500Y-65780D02*
X77780D01*
D36*
X26500Y49500D02*
X29500D01*
X36500Y43500D02*
Y47000D01*
X29500Y49500D02*
X32000Y47000D01*
X36500D01*
X-2500Y-90000D02*
X5500Y-82000D01*
X-2500Y-107000D02*
Y-90000D01*
Y-107000D02*
X4000D01*
X-25970Y-102244D02*
X-21214Y-107000D01*
X22000Y100654D02*
X36500D01*
X21500Y100154D02*
X22000Y100654D01*
X21500Y77902D02*
Y100154D01*
X10402Y102000D02*
X11500Y103098D01*
X-8000Y102000D02*
X10402D01*
X11500Y103098D02*
X13945Y100654D01*
X22000D01*
X-117000Y-18500D02*
X-97000D01*
X-118500Y-20000D02*
X-117000Y-18500D01*
X-97000Y-26500D02*
X-95500D01*
X-85595Y-16595D01*
X-84000D01*
X36500Y82346D02*
X48154D01*
X50720Y79780D01*
X61000D01*
X36500Y73500D02*
Y82346D01*
X29500Y66500D02*
X36500Y73500D01*
X15000Y66500D02*
X29500D01*
X5500Y49150D02*
Y56000D01*
X4500Y57000D02*
X5500Y56000D01*
X-54500Y-19000D02*
X-47750D01*
X-42250Y-13500D01*
X-35000D01*
X-32417Y-16083D01*
Y-18000D02*
Y-16083D01*
X-44000Y-27000D02*
X-43000Y-28000D01*
X-32417D01*
X-44000Y-29500D02*
Y-27000D01*
X-46154Y-31654D02*
X-44000Y-29500D01*
X-84500Y-28405D02*
X-80405D01*
X-73750Y-21750D01*
X-67500D01*
X-67000Y-21250D02*
Y-13346D01*
X-67500Y-21750D02*
X-67000Y-21250D01*
X-67500Y-21750D02*
X-60750D01*
X-55500Y-27000D01*
X-54500D01*
X-71654Y-31654D02*
X-67000D01*
X-74000Y-34000D02*
X-71654Y-31654D01*
X-67000D02*
X-46154D01*
X-9583Y-28000D02*
X-1500D01*
X-500Y-27000D01*
X500Y42500D02*
Y49150D01*
X15000Y78000D02*
X21402D01*
X21500Y77902D01*
X15000Y62500D02*
Y66500D01*
X36500Y100654D02*
X51154D01*
X52720Y102220D01*
X61000D01*
X4500Y57000D02*
X13500D01*
X18500Y42500D02*
X19165Y43165D01*
X4000Y-107000D02*
X5500Y-105500D01*
X9250Y-97500D02*
Y-85250D01*
X15000Y-79500D01*
Y-64000D01*
X15496Y-42000D02*
Y-25602D01*
X80500Y-96500D02*
X89000D01*
X26000Y22000D02*
X28000Y24000D01*
X37500D01*
X18000Y5500D02*
Y14000D01*
X19165Y43165D02*
Y51335D01*
X13500Y57000D02*
X19165Y51335D01*
X18000Y14000D02*
X26000Y22000D01*
Y5500D02*
X29000D01*
X32500Y9000D01*
X37500D01*
X29000Y-12098D02*
Y-6000D01*
X15496Y-25602D02*
X29000Y-12098D01*
X70000Y-50500D02*
Y-8500D01*
X67500Y-6000D02*
X70000Y-8500D01*
X18000Y2500D02*
Y5500D01*
X21000Y-6000D02*
Y-500D01*
X18000Y2500D02*
X21000Y-500D01*
X15000Y-64000D02*
X23500Y-55500D01*
X65000D01*
X70000Y-50500D01*
X-21214Y-107000D02*
X-2500D01*
D37*
X-41122Y-78622D02*
X-21878D01*
X-119000Y-86000D02*
X-48500D01*
X-41122Y-78622D01*
X-79000Y11500D02*
Y23000D01*
X-119000Y-66000D02*
X-108000Y-55000D01*
X-74000D01*
D38*
X-21878Y-78622D02*
X-18096D01*
D39*
X-150000Y13000D02*
X-137000Y0D01*
X-118500D01*
X-150000Y13000D02*
Y61500D01*
X-136500Y75000D01*
X-118000D01*
X-124000Y20000D02*
X-118500D01*
X-124000Y20890D02*
Y28000D01*
X-115221Y20000D02*
X-111610Y23610D01*
X-124000Y20890D02*
X-118890Y26000D01*
X-118500Y20000D02*
X-115221D01*
X-124000D02*
Y20890D01*
Y28000D02*
X-116000D01*
X-114000Y26000D01*
X-111610Y23610D01*
X-118890Y26000D02*
X-114000D01*
X-104000D01*
X-89500Y11500D01*
X-79000D01*
D40*
X-37653Y80993D02*
X-28053Y71393D01*
X-37653Y80993D02*
Y100000D01*
D41*
X58500Y9000D02*
X64000D01*
X26500Y49500D02*
Y55000D01*
D42*
X31500Y14000D02*
X37500D01*
X553508Y-671754D02*
X552759Y-670254D01*
X551259Y-668755D01*
X549760Y-668005D01*
X546761D01*
X545261Y-668755D01*
X543762Y-670254D01*
X543012Y-671754D01*
X542262Y-674003D01*
Y-677752D01*
X543012Y-680001D01*
X543762Y-681501D01*
X545261Y-683000D01*
X546761Y-683750D01*
X549760D01*
X551259Y-683000D01*
X552759Y-681501D01*
X553508Y-680001D01*
X557932Y-668005D02*
Y-679251D01*
X558682Y-681501D01*
X560181Y-683000D01*
X562430Y-683750D01*
X563930D01*
X566179Y-683000D01*
X567679Y-681501D01*
X568428Y-679251D01*
Y-668005D01*
X572777D02*
Y-683750D01*
X576076Y-668005D02*
X582074Y-683750D01*
X588072Y-668005D02*
X582074Y-683750D01*
X590096Y-668005D02*
Y-683750D01*
Y-668005D02*
X596844D01*
X599093Y-668755D01*
X599843Y-669505D01*
X600592Y-671004D01*
Y-672504D01*
X599843Y-674003D01*
X599093Y-674753D01*
X596844Y-675503D01*
X590096D01*
X595344D02*
X600592Y-683750D01*
X613863Y-668005D02*
X604116D01*
Y-683750D01*
X613863D01*
X604116Y-675503D02*
X610114D01*
X634106Y-668005D02*
Y-683750D01*
X628858Y-668005D02*
X639354D01*
X645727D02*
X644228Y-668755D01*
X642728Y-670254D01*
X641978Y-671754D01*
X641229Y-674003D01*
Y-677752D01*
X641978Y-680001D01*
X642728Y-681501D01*
X644228Y-683000D01*
X645727Y-683750D01*
X648726D01*
X650226Y-683000D01*
X651725Y-681501D01*
X652475Y-680001D01*
X653225Y-677752D01*
Y-674003D01*
X652475Y-671754D01*
X651725Y-670254D01*
X650226Y-668755D01*
X648726Y-668005D01*
X645727D01*
X656898Y-676252D02*
X663646D01*
X665895Y-675503D01*
X666645Y-674753D01*
X667395Y-673253D01*
Y-671004D01*
X666645Y-669505D01*
X665895Y-668755D01*
X663646Y-668005D01*
X656898D01*
Y-683750D01*
D43*
X-118000Y95000D02*
X-86000D01*
D44*
X-79000Y71500D02*
Y88000D01*
X-86000Y95000D02*
X-79000Y88000D01*
D45*
X146000Y-19000D02*
D03*
Y-80181D02*
D03*
X145500Y19000D02*
D03*
Y80181D02*
D03*
D46*
X-79000Y71500D02*
D03*
Y11500D02*
D03*
D47*
X-28053Y71393D02*
D03*
X-57947Y41500D02*
D03*
X-28053Y11607D02*
D03*
D48*
X-118500Y20000D02*
D03*
Y0D02*
D03*
Y-20000D02*
D03*
X-118000Y55000D02*
D03*
Y75000D02*
D03*
Y95000D02*
D03*
X-119000Y-66000D02*
D03*
Y-86000D02*
D03*
D49*
X57500Y-30500D02*
D03*
X37500D02*
D03*
X57500Y-43000D02*
D03*
X37500D02*
D03*
D50*
X47500D02*
D03*
X43500Y-23000D02*
D03*
X51500D02*
D03*
D51*
X-151575Y133858D02*
D03*
X151575D02*
D03*
Y-133858D02*
D03*
X-151575D02*
D03*
D52*
X-25970Y-102244D02*
D03*
X-74000D02*
D03*
X-25970Y-55000D02*
D03*
X-74000D02*
D03*
X-18096Y-78622D02*
D03*
D53*
X81500Y-21500D02*
D03*
X47500Y-18500D02*
D03*
X63500Y-21500D02*
D03*
X148876Y49022D02*
D03*
Y-29718D02*
D03*
X139034Y-49403D02*
D03*
X148876Y-69088D02*
D03*
Y-108458D02*
D03*
X139034Y-128144D02*
D03*
X129191Y127762D02*
D03*
Y88392D02*
D03*
X119349Y68707D02*
D03*
X129191Y49022D02*
D03*
X119349Y-128144D02*
D03*
X109506Y127762D02*
D03*
X99664Y108077D02*
D03*
X109506Y88392D02*
D03*
X99664Y-88773D02*
D03*
Y-128144D02*
D03*
X89821Y127762D02*
D03*
X79979Y108077D02*
D03*
X89821Y88392D02*
D03*
X79979Y-88773D02*
D03*
Y-128144D02*
D03*
X70136Y127762D02*
D03*
Y88392D02*
D03*
X60294Y-88773D02*
D03*
Y-128144D02*
D03*
X50451Y127762D02*
D03*
Y88392D02*
D03*
X40609Y68707D02*
D03*
X50451Y49022D02*
D03*
X40609Y-128144D02*
D03*
X30766Y127762D02*
D03*
X20924Y108077D02*
D03*
Y-128144D02*
D03*
X11081Y127762D02*
D03*
X1239Y108077D02*
D03*
X11081Y88392D02*
D03*
X1239Y-128144D02*
D03*
X-8604Y127762D02*
D03*
X-18446Y108077D02*
D03*
X-8604Y88392D02*
D03*
X-18446Y68707D02*
D03*
Y29337D02*
D03*
X-8604Y9652D02*
D03*
X-28289Y127762D02*
D03*
X-38131Y108077D02*
D03*
X-28289Y88392D02*
D03*
X-38131Y68707D02*
D03*
X-28289Y49022D02*
D03*
X-38131Y29337D02*
D03*
X116500Y-57000D02*
D03*
X109000Y-88500D02*
D03*
X112000Y-48000D02*
D03*
X124000Y-88500D02*
D03*
X155000Y-9500D02*
D03*
X154500Y1500D02*
D03*
X-74000Y-34000D02*
D03*
X154500Y-96500D02*
D03*
X154717Y-103783D02*
D03*
X102000Y-96500D02*
D03*
Y-104567D02*
D03*
X15000Y78000D02*
D03*
Y62500D02*
D03*
X58000Y-66000D02*
D03*
X38000Y-19500D02*
D03*
X25500Y-60500D02*
D03*
Y-43500D02*
D03*
X52000Y67000D02*
D03*
X500Y42500D02*
D03*
X9441Y-5441D02*
D03*
X80500Y-96500D02*
D03*
X31500Y14000D02*
D03*
X52500Y19000D02*
D03*
X64500Y28000D02*
D03*
X64000Y9000D02*
D03*
X64500Y15500D02*
D03*
X68016Y483D02*
D03*
X26500Y55000D02*
D03*
X17500Y-14500D02*
D03*
X3500Y10000D02*
D03*
X26000Y500D02*
D03*
X13000Y-51500D02*
D03*
X48500Y-74000D02*
D03*
X47000Y-4000D02*
D03*
X27500Y38500D02*
D03*
X50500Y-48000D02*
D03*
X74500Y500D02*
D03*
M02*
