%FSLAX25Y25*%
%MOIN*%
G70*
G01*
G75*
G04 Layer_Color=7307173*
%ADD10C,0.03937*%
%ADD11R,0.25000X0.02992*%
%ADD12R,0.03500X0.05000*%
%ADD13R,0.05910X0.03030*%
%ADD14R,0.11024X0.20276*%
%ADD15R,0.05000X0.03500*%
%ADD16R,0.03000X0.04000*%
%ADD17R,0.03543X0.13583*%
%ADD18C,0.03100*%
%ADD19R,0.04000X0.02854*%
%ADD20R,0.08465X0.02362*%
%ADD21R,0.04724X0.12992*%
%ADD22R,0.11023X0.05000*%
%ADD23R,0.08465X0.09449*%
%ADD24R,0.09449X0.08465*%
%ADD25R,0.08661X0.05000*%
%ADD26R,0.05000X0.08661*%
%ADD27R,0.03030X0.05910*%
%ADD28R,0.08000X0.06000*%
%ADD29R,0.08000X0.15000*%
%ADD30R,0.10236X0.03150*%
%ADD31R,0.06000X0.02500*%
%ADD32C,0.01000*%
%ADD33C,0.01500*%
%ADD34C,0.01181*%
%ADD35C,0.02756*%
%ADD36C,0.01969*%
%ADD37C,0.15748*%
%ADD38C,0.09843*%
%ADD39C,0.11811*%
%ADD40C,0.03937*%
%ADD41C,0.01575*%
%ADD42C,0.02362*%
%ADD43C,0.13780*%
%ADD44C,0.19685*%
%ADD45C,0.12598*%
%ADD46C,0.16000*%
%ADD47C,0.09843*%
%ADD48C,0.11811*%
%ADD49C,0.09055*%
%ADD50C,0.03900*%
%ADD51C,0.16533*%
%ADD52C,0.10000*%
%ADD53C,0.05000*%
%ADD54R,0.16000X0.13000*%
%ADD55R,0.16892X0.02319*%
%ADD56R,0.21000X0.17000*%
%ADD57R,0.31000X0.17000*%
%ADD58R,0.09194X0.12806*%
%ADD59R,0.12000X0.12890*%
%ADD60C,0.00984*%
%ADD61C,0.00787*%
%ADD62C,0.00787*%
%ADD63C,0.11811*%
%ADD64C,0.17000*%
%ADD65C,0.10842*%
D42*
X-318738Y-671505D02*
X-324736Y-687250D01*
X-330734Y-671505D02*
X-324736Y-687250D01*
X-342505Y-671505D02*
X-332758D01*
Y-687250D01*
X-342505D01*
X-332758Y-679003D02*
X-338756D01*
X-345129Y-671505D02*
Y-687250D01*
Y-671505D02*
X-351876D01*
X-354126Y-672255D01*
X-354875Y-673005D01*
X-355625Y-674504D01*
Y-676004D01*
X-354875Y-677503D01*
X-354126Y-678253D01*
X-351876Y-679003D01*
X-345129D01*
X-350377D02*
X-355625Y-687250D01*
X-359149Y-671505D02*
Y-687250D01*
Y-671505D02*
X-369646Y-687250D01*
Y-671505D02*
Y-687250D01*
X-373994Y-671505D02*
Y-687250D01*
X-387789Y-673754D02*
X-386290Y-672255D01*
X-384041Y-671505D01*
X-381042D01*
X-378792Y-672255D01*
X-377293Y-673754D01*
Y-675254D01*
X-378043Y-676753D01*
X-378792Y-677503D01*
X-380292Y-678253D01*
X-384790Y-679752D01*
X-386290Y-680502D01*
X-387040Y-681252D01*
X-387789Y-682751D01*
Y-685001D01*
X-386290Y-686500D01*
X-384041Y-687250D01*
X-381042D01*
X-378792Y-686500D01*
X-377293Y-685001D01*
X-413431Y-671505D02*
X-403684D01*
Y-687250D01*
X-413431D01*
X-403684Y-679003D02*
X-409682D01*
X-416055Y-679752D02*
X-422802D01*
X-425052Y-679003D01*
X-425802Y-678253D01*
X-426551Y-676753D01*
Y-674504D01*
X-425802Y-673005D01*
X-425052Y-672255D01*
X-422802Y-671505D01*
X-416055D01*
Y-687250D01*
X-442071D02*
X-436073Y-671505D01*
X-430075Y-687250D01*
X-432324Y-682002D02*
X-439822D01*
X-445745Y-671505D02*
Y-687250D01*
Y-671505D02*
X-452492D01*
X-454742Y-672255D01*
X-455491Y-673005D01*
X-456241Y-674504D01*
Y-676004D01*
X-455491Y-677503D01*
X-454742Y-678253D01*
X-452492Y-679003D01*
X-445745D01*
X-450993D02*
X-456241Y-687250D01*
X-471011Y-675254D02*
X-470261Y-673754D01*
X-468762Y-672255D01*
X-467262Y-671505D01*
X-464263D01*
X-462764Y-672255D01*
X-461264Y-673754D01*
X-460515Y-675254D01*
X-459765Y-677503D01*
Y-681252D01*
X-460515Y-683501D01*
X-461264Y-685001D01*
X-462764Y-686500D01*
X-464263Y-687250D01*
X-467262D01*
X-468762Y-686500D01*
X-470261Y-685001D01*
X-471011Y-683501D01*
Y-681252D01*
X-467262D02*
X-471011D01*
X-474610Y-671505D02*
Y-687250D01*
Y-671505D02*
X-485106Y-687250D01*
Y-671505D02*
Y-687250D01*
X-499201Y-671505D02*
X-489455D01*
Y-687250D01*
X-499201D01*
X-489455Y-679003D02*
X-495453D01*
X-514196Y-671505D02*
Y-687250D01*
Y-671505D02*
X-520944D01*
X-523193Y-672255D01*
X-523943Y-673005D01*
X-524693Y-674504D01*
Y-676004D01*
X-523943Y-677503D01*
X-523193Y-678253D01*
X-520944Y-679003D01*
X-514196D02*
X-520944D01*
X-523193Y-679752D01*
X-523943Y-680502D01*
X-524693Y-682002D01*
Y-684251D01*
X-523943Y-685750D01*
X-523193Y-686500D01*
X-520944Y-687250D01*
X-514196D01*
X-532715Y-671505D02*
X-531216Y-672255D01*
X-529716Y-673754D01*
X-528966Y-675254D01*
X-528217Y-677503D01*
Y-681252D01*
X-528966Y-683501D01*
X-529716Y-685001D01*
X-531216Y-686500D01*
X-532715Y-687250D01*
X-535714D01*
X-537214Y-686500D01*
X-538713Y-685001D01*
X-539463Y-683501D01*
X-540213Y-681252D01*
Y-677503D01*
X-539463Y-675254D01*
X-538713Y-673754D01*
X-537214Y-672255D01*
X-535714Y-671505D01*
X-532715D01*
X-549135D02*
Y-687250D01*
X-543886Y-671505D02*
X-554383D01*
X-561505D02*
Y-687250D01*
X-556257Y-671505D02*
X-566754D01*
X-573126D02*
X-571627Y-672255D01*
X-570127Y-673754D01*
X-569378Y-675254D01*
X-568628Y-677503D01*
Y-681252D01*
X-569378Y-683501D01*
X-570127Y-685001D01*
X-571627Y-686500D01*
X-573126Y-687250D01*
X-576125D01*
X-577625Y-686500D01*
X-579124Y-685001D01*
X-579874Y-683501D01*
X-580624Y-681252D01*
Y-677503D01*
X-579874Y-675254D01*
X-579124Y-673754D01*
X-577625Y-672255D01*
X-576125Y-671505D01*
X-573126D01*
X-584298D02*
Y-687250D01*
Y-671505D02*
X-590296Y-687250D01*
X-596294Y-671505D02*
X-590296Y-687250D01*
X-596294Y-671505D02*
Y-687250D01*
D45*
X146000Y-19000D02*
D03*
Y-80181D02*
D03*
X145500Y19000D02*
D03*
Y80181D02*
D03*
D48*
X-118500Y20000D02*
D03*
Y0D02*
D03*
Y-20000D02*
D03*
X-118000Y55000D02*
D03*
Y75000D02*
D03*
Y95000D02*
D03*
X-119000Y-66000D02*
D03*
Y-86000D02*
D03*
D49*
X57500Y-30500D02*
D03*
X37500D02*
D03*
X57500Y-43000D02*
D03*
X37500D02*
D03*
D50*
X47500D02*
D03*
X43500Y-23000D02*
D03*
X51500D02*
D03*
D51*
X-151575Y133858D02*
D03*
X151575D02*
D03*
Y-133858D02*
D03*
X-151575D02*
D03*
D52*
X-25970Y-102244D02*
D03*
X-74000D02*
D03*
X-25970Y-55000D02*
D03*
X-74000D02*
D03*
X-18096Y-78622D02*
D03*
D64*
X-79000Y71500D02*
D03*
Y11500D02*
D03*
D65*
X-28053Y71393D02*
D03*
X-57947Y41500D02*
D03*
X-28053Y11607D02*
D03*
M02*
