%FSLAX25Y25*%
%MOIN*%
G70*
G01*
G75*
G04 Layer_Physical_Order=2*
G04 Layer_Color=16711680*
%ADD10C,0.03937*%
%ADD11R,0.25000X0.02992*%
%ADD12R,0.03500X0.05000*%
%ADD13R,0.05910X0.03030*%
%ADD14R,0.11024X0.20276*%
%ADD15R,0.05000X0.03500*%
%ADD16R,0.03000X0.04000*%
%ADD17R,0.03543X0.13583*%
%ADD18C,0.03100*%
%ADD19R,0.04000X0.02854*%
%ADD20R,0.08465X0.02362*%
%ADD21R,0.04724X0.12992*%
%ADD22R,0.11023X0.05000*%
%ADD23R,0.08465X0.09449*%
%ADD24R,0.09449X0.08465*%
%ADD25R,0.08661X0.05000*%
%ADD26R,0.05000X0.08661*%
%ADD27R,0.03030X0.05910*%
%ADD28R,0.08000X0.06000*%
%ADD29R,0.08000X0.15000*%
%ADD30R,0.10236X0.03150*%
%ADD31R,0.06000X0.02500*%
%ADD32C,0.01000*%
%ADD33C,0.01500*%
%ADD34C,0.01181*%
%ADD35C,0.02756*%
%ADD36C,0.01969*%
%ADD37C,0.15748*%
%ADD38C,0.09843*%
%ADD39C,0.11811*%
%ADD40C,0.03937*%
%ADD41C,0.01575*%
%ADD42C,0.02362*%
%ADD43C,0.13780*%
%ADD44C,0.19685*%
%ADD45C,0.12598*%
%ADD46C,0.16000*%
%ADD47C,0.09843*%
%ADD48C,0.11811*%
%ADD49C,0.09055*%
%ADD50C,0.03900*%
%ADD51C,0.16533*%
%ADD52C,0.10000*%
%ADD53C,0.05000*%
%ADD54R,0.16000X0.13000*%
%ADD55R,0.16892X0.02319*%
%ADD56R,0.21000X0.17000*%
%ADD57R,0.31000X0.17000*%
%ADD58R,0.09194X0.12806*%
%ADD59R,0.12000X0.12890*%
G36*
X-122148Y60529D02*
X-122907Y59907D01*
X-123769Y58855D01*
X-124411Y57655D01*
X-124806Y56354D01*
X-124890Y55500D01*
X-118000D01*
Y55000D01*
X-117500D01*
Y48110D01*
X-116646Y48194D01*
X-115345Y48589D01*
X-114841Y48858D01*
X-114543Y48457D01*
X-117000Y46000D01*
X-137000D01*
X-141000Y42000D01*
Y-7000D01*
X-135000Y-14000D01*
X-122816D01*
X-122648Y-14471D01*
X-123407Y-15093D01*
X-124269Y-16145D01*
X-124911Y-17345D01*
X-125306Y-18646D01*
X-125390Y-19500D01*
X-118500D01*
Y-20000D01*
X-118000D01*
Y-26890D01*
X-117146Y-26806D01*
X-115845Y-26411D01*
X-114645Y-25769D01*
X-113593Y-24907D01*
X-113471Y-24757D01*
X-113000Y-24926D01*
Y-32000D01*
X-116000Y-35000D01*
X-151000D01*
X-164000Y-22000D01*
Y52000D01*
X-155000Y61000D01*
X-122316D01*
X-122148Y60529D01*
D02*
G37*
G36*
X7335Y-27547D02*
X21733Y-41945D01*
X21530Y-42436D01*
X21390Y-43500D01*
X21530Y-44564D01*
X21941Y-45555D01*
X22522Y-46312D01*
Y-57688D01*
X21941Y-58445D01*
X21530Y-59436D01*
X21390Y-60500D01*
X21530Y-61564D01*
X21941Y-62555D01*
X21955Y-62573D01*
X21734Y-63022D01*
X11734D01*
X6478Y-57766D01*
Y-54000D01*
X6478Y-54000D01*
X6478Y-54000D01*
Y-54000D01*
Y-27208D01*
X6952Y-27047D01*
X7335Y-27547D01*
D02*
G37*
G36*
X-71000Y25078D02*
Y16645D01*
X-71481Y16524D01*
X-72605Y17895D01*
X-73976Y19019D01*
X-75539Y19855D01*
X-77236Y20370D01*
X-78500Y20494D01*
Y11500D01*
X-79000D01*
Y11000D01*
X-87994D01*
X-87870Y9736D01*
X-87355Y8039D01*
X-86519Y6476D01*
X-86090Y5952D01*
X-86304Y5500D01*
X-93220D01*
X-99983Y11000D01*
X-110162D01*
X-110375Y11182D01*
X-112225Y12316D01*
X-114229Y13146D01*
X-115232Y13387D01*
X-115296Y13882D01*
X-114645Y14231D01*
X-113593Y15093D01*
X-112731Y16145D01*
X-112089Y17345D01*
X-111694Y18646D01*
X-111610Y19500D01*
X-125390D01*
X-125306Y18646D01*
X-124911Y17345D01*
X-124269Y16145D01*
X-123407Y15093D01*
X-122355Y14231D01*
X-121704Y13882D01*
X-121768Y13387D01*
X-122771Y13146D01*
X-123892Y12681D01*
X-128000Y16771D01*
Y27000D01*
X-123170Y32000D01*
X-76797D01*
X-71000Y25078D01*
D02*
G37*
G36*
X-69000Y111000D02*
Y66000D01*
Y65000D01*
X-72103Y62000D01*
X-78539D01*
X-78540Y62003D01*
X-79460D01*
X-79461Y62000D01*
X-87621D01*
X-92793Y67000D01*
X-93828Y68000D01*
Y88000D01*
X-113377D01*
X-113729Y88146D01*
X-114732Y88387D01*
X-114796Y88882D01*
X-114145Y89231D01*
X-113093Y90093D01*
X-112231Y91145D01*
X-111589Y92345D01*
X-111194Y93646D01*
X-111110Y94500D01*
X-124890D01*
X-124806Y93646D01*
X-124411Y92345D01*
X-123769Y91145D01*
X-122907Y90093D01*
X-121855Y89231D01*
X-121204Y88882D01*
X-121268Y88387D01*
X-122271Y88146D01*
X-122623Y88000D01*
X-127965D01*
X-129000Y89000D01*
Y110000D01*
X-125897Y113000D01*
X-71069D01*
X-69000Y111000D01*
D02*
G37*
G36*
X59348Y70440D02*
X59157Y69978D01*
X54812D01*
X54055Y70559D01*
X53064Y70970D01*
X52000Y71110D01*
X50936Y70970D01*
X49945Y70559D01*
X49094Y69906D01*
X48441Y69055D01*
X48030Y68064D01*
X47890Y67000D01*
X48030Y65936D01*
X48441Y64945D01*
X49094Y64094D01*
X49945Y63441D01*
X50936Y63030D01*
X52000Y62890D01*
X53064Y63030D01*
X54055Y63441D01*
X54812Y64022D01*
X61022D01*
Y35038D01*
X60560Y34846D01*
X50377Y45030D01*
X50537Y45503D01*
X51365Y45612D01*
X52216Y45965D01*
X52947Y46526D01*
X53508Y47257D01*
X53861Y48108D01*
X53916Y48522D01*
X50451D01*
Y49022D01*
X49951D01*
Y52486D01*
X49538Y52432D01*
X48686Y52079D01*
X47955Y51518D01*
X47394Y50787D01*
X47041Y49936D01*
X46932Y49108D01*
X46459Y48947D01*
X38703Y56703D01*
X37922Y57225D01*
X37000Y57408D01*
X29788D01*
X29406Y57906D01*
X28555Y58559D01*
X27564Y58970D01*
X26500Y59110D01*
X25436Y58970D01*
X24445Y58559D01*
X23594Y57906D01*
X22941Y57055D01*
X22530Y56064D01*
X22390Y55000D01*
X22530Y53936D01*
X22941Y52945D01*
X23594Y52094D01*
X24445Y51441D01*
X25436Y51030D01*
X26500Y50890D01*
X27564Y51030D01*
X28555Y51441D01*
X29406Y52094D01*
X29788Y52592D01*
X36002D01*
X57591Y31002D01*
Y13000D01*
X57591Y13000D01*
X57591D01*
X57775Y12078D01*
X58297Y11297D01*
X59972Y9622D01*
X59890Y9000D01*
X60030Y7936D01*
X60441Y6945D01*
X60841Y6423D01*
X60823Y6315D01*
X59004Y4496D01*
X58546Y3810D01*
X58385Y3000D01*
Y-10124D01*
X52124Y-16385D01*
X51013D01*
X50406Y-15594D01*
X49555Y-14941D01*
X48564Y-14530D01*
X47500Y-14390D01*
X46436Y-14530D01*
X45445Y-14941D01*
X44594Y-15594D01*
X43941Y-16445D01*
X43530Y-17436D01*
X43390Y-18500D01*
X43511Y-19415D01*
X43500Y-19426D01*
X42575Y-19548D01*
X42519Y-19571D01*
X42086Y-19321D01*
X41970Y-18436D01*
X41559Y-17445D01*
X40906Y-16594D01*
X40115Y-15987D01*
Y3624D01*
X51512Y15020D01*
X52500Y14890D01*
X53564Y15030D01*
X54555Y15441D01*
X55406Y16094D01*
X56059Y16945D01*
X56470Y17936D01*
X56610Y19000D01*
X56470Y20064D01*
X56059Y21055D01*
X55406Y21906D01*
X54555Y22559D01*
X53564Y22970D01*
X52500Y23110D01*
X51436Y22970D01*
X50445Y22559D01*
X49594Y21906D01*
X48941Y21055D01*
X48530Y20064D01*
X48390Y19000D01*
X48520Y18012D01*
X36504Y5996D01*
X36046Y5310D01*
X35885Y4500D01*
Y-15987D01*
X35094Y-16594D01*
X34441Y-17445D01*
X34030Y-18436D01*
X33890Y-19500D01*
X34030Y-20564D01*
X34441Y-21555D01*
X35094Y-22406D01*
X35945Y-23059D01*
X36936Y-23470D01*
X38000Y-23610D01*
X39064Y-23470D01*
X39561Y-23264D01*
X39994Y-23514D01*
X40048Y-23925D01*
X40305Y-24546D01*
X39935Y-24882D01*
X39847Y-24835D01*
X38696Y-24486D01*
X37500Y-24368D01*
X36304Y-24486D01*
X35153Y-24835D01*
X34093Y-25401D01*
X33164Y-26164D01*
X32401Y-27093D01*
X31835Y-28153D01*
X31486Y-29304D01*
X31368Y-30500D01*
X31486Y-31696D01*
X31835Y-32847D01*
X32401Y-33907D01*
X33164Y-34836D01*
X34093Y-35598D01*
X35153Y-36165D01*
X36257Y-36500D01*
Y-37000D01*
X35153Y-37335D01*
X34093Y-37901D01*
X33660Y-38257D01*
X33208Y-38043D01*
Y-37000D01*
X33040Y-36155D01*
X32561Y-35439D01*
X28208Y-31086D01*
Y-2942D01*
X28906Y-2406D01*
X29559Y-1555D01*
X29970Y-564D01*
X30110Y500D01*
X29970Y1564D01*
X29559Y2555D01*
X28906Y3406D01*
X28055Y4059D01*
X27064Y4470D01*
X26085Y4599D01*
X25924Y5072D01*
X30830Y9978D01*
X31500Y9890D01*
X32564Y10030D01*
X33555Y10441D01*
X34406Y11094D01*
X35059Y11945D01*
X35470Y12936D01*
X35610Y14000D01*
X35470Y15064D01*
X35059Y16055D01*
X34406Y16906D01*
X33555Y17559D01*
X32564Y17970D01*
X31500Y18110D01*
X30436Y17970D01*
X29445Y17559D01*
X28594Y16906D01*
X27941Y16055D01*
X27530Y15064D01*
X27390Y14000D01*
X27478Y13330D01*
X15824Y1676D01*
X15310Y907D01*
X15130Y0D01*
Y-11183D01*
X14594Y-11594D01*
X13941Y-12445D01*
X13530Y-13436D01*
X13390Y-14500D01*
X13530Y-15564D01*
X13941Y-16555D01*
X14594Y-17406D01*
X15445Y-18059D01*
X16436Y-18470D01*
X17500Y-18610D01*
X18564Y-18470D01*
X19555Y-18059D01*
X20406Y-17406D01*
X21059Y-16555D01*
X21470Y-15564D01*
X21610Y-14500D01*
X21470Y-13436D01*
X21059Y-12445D01*
X20406Y-11594D01*
X19870Y-11183D01*
Y-982D01*
X21428Y576D01*
X21901Y415D01*
X22030Y-564D01*
X22441Y-1555D01*
X23094Y-2406D01*
X23792Y-2942D01*
Y-32000D01*
X23960Y-32845D01*
X24439Y-33561D01*
X28792Y-37914D01*
Y-40325D01*
X28636Y-40402D01*
X28168Y-40226D01*
X28079Y-40011D01*
X27606Y-39394D01*
X12419Y-24207D01*
Y-8253D01*
X13000Y-7496D01*
X13411Y-6505D01*
X13551Y-5441D01*
X13411Y-4377D01*
X13000Y-3386D01*
X12419Y-2629D01*
Y48553D01*
X36888Y73022D01*
X56766D01*
X59348Y70440D01*
D02*
G37*
G36*
X166885Y-148884D02*
X-14636D01*
X-14989Y-148530D01*
X-14798Y-104825D01*
X74756D01*
X75424Y-104737D01*
X75735Y-104608D01*
X76047Y-104479D01*
X76581Y-104069D01*
X80094Y-100557D01*
X80500Y-100610D01*
X81564Y-100470D01*
X82555Y-100059D01*
X83406Y-99406D01*
X84059Y-98555D01*
X84470Y-97564D01*
X84610Y-96500D01*
X84470Y-95436D01*
X84059Y-94445D01*
X83406Y-93594D01*
X82555Y-92941D01*
X81564Y-92530D01*
X81377Y-92506D01*
X81312Y-92010D01*
X81744Y-91831D01*
X82475Y-91270D01*
X83036Y-90539D01*
X83389Y-89687D01*
X83443Y-89273D01*
X76514D01*
X76569Y-89687D01*
X76921Y-90539D01*
X77482Y-91270D01*
X78214Y-91831D01*
X79065Y-92183D01*
X78995Y-92713D01*
X78445Y-92941D01*
X77594Y-93594D01*
X76941Y-94445D01*
X76530Y-95436D01*
X76390Y-96500D01*
X76443Y-96906D01*
X73687Y-99663D01*
X-13870D01*
X-14054Y-99198D01*
X1000Y-85000D01*
Y-67000D01*
X-9646Y-58450D01*
X-9480Y-57978D01*
X522D01*
Y-59000D01*
X623Y-59771D01*
X921Y-60489D01*
X1394Y-61106D01*
X8394Y-68106D01*
X8394Y-68106D01*
X9011Y-68579D01*
X9729Y-68877D01*
X10500Y-68978D01*
X55188D01*
X55945Y-69559D01*
X56936Y-69970D01*
X58000Y-70110D01*
X59064Y-69970D01*
X60055Y-69559D01*
X60906Y-68906D01*
X61559Y-68055D01*
X61970Y-67064D01*
X62110Y-66000D01*
X61970Y-64936D01*
X61559Y-63945D01*
X60906Y-63094D01*
X60055Y-62441D01*
X59064Y-62030D01*
X58000Y-61890D01*
X56936Y-62030D01*
X55945Y-62441D01*
X55188Y-63022D01*
X29266D01*
X29045Y-62573D01*
X29059Y-62555D01*
X29470Y-61564D01*
X29610Y-60500D01*
X29470Y-59436D01*
X29059Y-58445D01*
X28478Y-57688D01*
Y-47941D01*
X28960Y-47845D01*
X29439Y-48561D01*
X29439Y-48561D01*
X29439Y-48561D01*
X31738Y-50860D01*
X32454Y-51339D01*
X33299Y-51507D01*
X48377D01*
X48445Y-51559D01*
X49436Y-51970D01*
X50500Y-52110D01*
X51564Y-51970D01*
X52555Y-51559D01*
X53406Y-50906D01*
X54059Y-50055D01*
X54470Y-49064D01*
X54506Y-48786D01*
X54951Y-48557D01*
X55153Y-48665D01*
X56304Y-49014D01*
X57500Y-49132D01*
X58696Y-49014D01*
X59847Y-48665D01*
X60907Y-48098D01*
X61836Y-47336D01*
X62599Y-46407D01*
X63165Y-45347D01*
X63514Y-44196D01*
X63632Y-43000D01*
X63514Y-41804D01*
X63165Y-40653D01*
X62599Y-39593D01*
X61836Y-38664D01*
X60907Y-37901D01*
X59847Y-37335D01*
X58743Y-37000D01*
Y-36500D01*
X59847Y-36165D01*
X60907Y-35598D01*
X61836Y-34836D01*
X62599Y-33907D01*
X63165Y-32847D01*
X63514Y-31696D01*
X63632Y-30500D01*
X63514Y-29304D01*
X63165Y-28153D01*
X62599Y-27093D01*
X61836Y-26164D01*
X60907Y-25401D01*
X59847Y-24835D01*
X58696Y-24486D01*
X57500Y-24368D01*
X56304Y-24486D01*
X55153Y-24835D01*
X55065Y-24882D01*
X54695Y-24546D01*
X54952Y-23925D01*
X55074Y-23000D01*
X54952Y-22075D01*
X54595Y-21213D01*
X54167Y-20655D01*
X54248Y-20161D01*
X54496Y-19996D01*
X61996Y-12496D01*
X62454Y-11810D01*
X62615Y-11000D01*
Y2124D01*
X63195Y2703D01*
X64075D01*
X64353Y2288D01*
X64047Y1547D01*
X63907Y483D01*
X64047Y-580D01*
X64457Y-1571D01*
X65110Y-2423D01*
X65961Y-3076D01*
X66953Y-3486D01*
X67162Y-3514D01*
X72003Y-8355D01*
X72003D01*
X72003Y-8355D01*
X72003Y-8355D01*
Y-8355D01*
X72772Y-8869D01*
X73679Y-9049D01*
X148219D01*
X151845Y-12676D01*
X151845Y-12676D01*
X151845D01*
X151845Y-12676D01*
X151845D01*
X151845Y-12676D01*
Y-12676D01*
Y-12676D01*
D01*
D01*
X151845D01*
Y-12676D01*
X152614Y-13190D01*
X153521Y-13370D01*
X153696D01*
X153936Y-13470D01*
X155000Y-13610D01*
X156064Y-13470D01*
X157055Y-13059D01*
X157906Y-12406D01*
X158559Y-11555D01*
X158970Y-10564D01*
X159110Y-9500D01*
X158970Y-8436D01*
X158559Y-7445D01*
X157906Y-6594D01*
X157055Y-5941D01*
X156064Y-5530D01*
X155000Y-5390D01*
X153936Y-5530D01*
X152945Y-5941D01*
X152305Y-6432D01*
X150876Y-5003D01*
X150108Y-4489D01*
X149200Y-4309D01*
X74773D01*
X74482Y-3902D01*
X74585Y-3599D01*
X75564Y-3470D01*
X76555Y-3059D01*
X77406Y-2406D01*
X78059Y-1555D01*
X78343Y-870D01*
X151183D01*
X151594Y-1406D01*
X152445Y-2059D01*
X153436Y-2470D01*
X154500Y-2610D01*
X155564Y-2470D01*
X156555Y-2059D01*
X157406Y-1406D01*
X158059Y-555D01*
X158470Y436D01*
X158610Y1500D01*
X158470Y2564D01*
X158059Y3555D01*
X157406Y4406D01*
X156555Y5059D01*
X155564Y5470D01*
X154500Y5610D01*
X153436Y5470D01*
X152445Y5059D01*
X151594Y4406D01*
X151183Y3870D01*
X76801D01*
X76555Y4059D01*
X75564Y4470D01*
X74500Y4610D01*
X73436Y4470D01*
X72445Y4059D01*
X71594Y3406D01*
X71502Y3286D01*
X71002D01*
X70923Y3390D01*
X70072Y4043D01*
X69080Y4453D01*
X69002Y4464D01*
X68842Y4937D01*
X69677Y5772D01*
X70135Y6459D01*
X70297Y7268D01*
Y10732D01*
X70135Y11541D01*
X69677Y12228D01*
X68177Y13728D01*
X68470Y14436D01*
X68610Y15500D01*
X68470Y16564D01*
X68059Y17555D01*
X67406Y18406D01*
X66555Y19059D01*
X65564Y19470D01*
X64500Y19610D01*
X63436Y19470D01*
X62824Y19216D01*
X62409Y19494D01*
Y24006D01*
X62824Y24284D01*
X63436Y24030D01*
X64500Y23890D01*
X65564Y24030D01*
X66555Y24441D01*
X67406Y25094D01*
X68059Y25945D01*
X68470Y26936D01*
X68610Y28000D01*
X68470Y29064D01*
X68059Y30055D01*
X67406Y30906D01*
X66978Y31235D01*
Y67000D01*
Y70000D01*
X66877Y70771D01*
X66579Y71489D01*
X66106Y72106D01*
X60106Y78106D01*
X59489Y78579D01*
X58771Y78877D01*
X58000Y78978D01*
X35655D01*
X35655Y78978D01*
X34884Y78877D01*
X34165Y78579D01*
X33549Y78106D01*
X19299Y63856D01*
X18808Y63954D01*
X18559Y64555D01*
X17906Y65406D01*
X17055Y66059D01*
X16064Y66470D01*
X15000Y66610D01*
X13936Y66470D01*
X12945Y66059D01*
X12094Y65406D01*
X11441Y64555D01*
X11030Y63564D01*
X10890Y62500D01*
X10943Y62094D01*
X4073Y55223D01*
X3662Y54688D01*
X3571Y54469D01*
X3081Y54567D01*
Y62431D01*
X14594Y73944D01*
X15000Y73890D01*
X16064Y74030D01*
X17055Y74441D01*
X17906Y75094D01*
X18559Y75945D01*
X18970Y76936D01*
X19110Y78000D01*
X18970Y79064D01*
X18559Y80055D01*
X17906Y80906D01*
X17055Y81559D01*
X16064Y81970D01*
X15000Y82110D01*
X13936Y81970D01*
X12945Y81559D01*
X12094Y80906D01*
X11441Y80055D01*
X11030Y79064D01*
X10890Y78000D01*
X10943Y77594D01*
X-1325Y65325D01*
X-1735Y64791D01*
X-1864Y64479D01*
X-1993Y64168D01*
X-2081Y63500D01*
Y45656D01*
X-2406Y45406D01*
X-3059Y44555D01*
X-3470Y43564D01*
X-3610Y42500D01*
X-3470Y41436D01*
X-3059Y40445D01*
X-2406Y39594D01*
X-1555Y38941D01*
X-664Y38572D01*
X-761Y38081D01*
X-22000D01*
X-22668Y37993D01*
X-22979Y37864D01*
X-23291Y37735D01*
X-23825Y37325D01*
X-29879Y31272D01*
X-30289Y30737D01*
X-30418Y30426D01*
X-30547Y30115D01*
X-30634Y29447D01*
Y17593D01*
X-31680Y17034D01*
X-32669Y16222D01*
X-33481Y15233D01*
X-34084Y14105D01*
X-34455Y12880D01*
X-34581Y11607D01*
X-34455Y10333D01*
X-34084Y9109D01*
X-33481Y7980D01*
X-32669Y6991D01*
X-31680Y6179D01*
X-30551Y5576D01*
X-29327Y5205D01*
X-28053Y5079D01*
X-26780Y5205D01*
X-25555Y5576D01*
X-24427Y6179D01*
X-23438Y6991D01*
X-22626Y7980D01*
X-22023Y9109D01*
X-21651Y10333D01*
X-21526Y11607D01*
X-21651Y12880D01*
X-22023Y14105D01*
X-22626Y15233D01*
X-23438Y16222D01*
X-24427Y17034D01*
X-25472Y17593D01*
Y28378D01*
X-20931Y32919D01*
X-20226D01*
X-20129Y32429D01*
X-20211Y32394D01*
X-20943Y31833D01*
X-21504Y31102D01*
X-21856Y30250D01*
X-21911Y29837D01*
X-14982D01*
X-15036Y30250D01*
X-15389Y31102D01*
X-15950Y31833D01*
X-16681Y32394D01*
X-16764Y32429D01*
X-16667Y32919D01*
X2500D01*
X3168Y33007D01*
X3479Y33136D01*
X3791Y33265D01*
X4325Y33675D01*
X6001Y35350D01*
X6463Y35159D01*
Y13428D01*
X6014Y13207D01*
X5555Y13559D01*
X4564Y13970D01*
X3500Y14110D01*
X2436Y13970D01*
X1445Y13559D01*
X594Y12906D01*
X-59Y12055D01*
X-470Y11064D01*
X-610Y10000D01*
X-470Y8936D01*
X-59Y7945D01*
X522Y7188D01*
Y-52022D01*
X-15000D01*
Y-9000D01*
X-17500Y-5500D01*
Y0D01*
X-20500Y2500D01*
X-51500Y2500D01*
X-53548Y817D01*
X-54000Y1031D01*
Y36335D01*
X-53331Y36884D01*
X-52519Y37874D01*
X-51916Y39002D01*
X-51545Y40227D01*
X-51419Y41500D01*
X-51545Y42774D01*
X-51916Y43998D01*
X-52519Y45127D01*
X-53331Y46116D01*
X-54000Y46665D01*
Y148884D01*
X166885D01*
Y-148884D01*
D02*
G37*
%LPC*%
G36*
X145500Y-11715D02*
X144569Y-11806D01*
X143193Y-12224D01*
X141925Y-12902D01*
X140814Y-13814D01*
X139902Y-14925D01*
X139224Y-16193D01*
X138806Y-17569D01*
X138715Y-18500D01*
X145500D01*
Y-11715D01*
D02*
G37*
G36*
X64000Y-18036D02*
Y-21000D01*
X66964D01*
X66910Y-20586D01*
X66557Y-19735D01*
X65996Y-19004D01*
X65265Y-18443D01*
X64414Y-18090D01*
X64000Y-18036D01*
D02*
G37*
G36*
X81000D02*
X80586Y-18090D01*
X79735Y-18443D01*
X79004Y-19004D01*
X78443Y-19735D01*
X78090Y-20586D01*
X78036Y-21000D01*
X81000D01*
Y-18036D01*
D02*
G37*
G36*
X82000D02*
Y-21000D01*
X84964D01*
X84910Y-20586D01*
X84557Y-19735D01*
X83996Y-19004D01*
X83265Y-18443D01*
X82414Y-18090D01*
X82000Y-18036D01*
D02*
G37*
G36*
X146500Y-11715D02*
Y-18500D01*
X153285D01*
X153194Y-17569D01*
X152776Y-16193D01*
X152098Y-14925D01*
X151186Y-13814D01*
X150075Y-12902D01*
X148807Y-12224D01*
X147431Y-11806D01*
X146500Y-11715D01*
D02*
G37*
G36*
X47500Y-536D02*
Y-3500D01*
X50464D01*
X50410Y-3086D01*
X50057Y-2235D01*
X49496Y-1504D01*
X48765Y-943D01*
X47914Y-590D01*
X47500Y-536D01*
D02*
G37*
G36*
X-9104Y9152D02*
X-12068D01*
X-12014Y8738D01*
X-11661Y7887D01*
X-11100Y7156D01*
X-10369Y6595D01*
X-9518Y6242D01*
X-9104Y6187D01*
Y9152D01*
D02*
G37*
G36*
X-5139D02*
X-8104D01*
Y6187D01*
X-7690Y6242D01*
X-6839Y6595D01*
X-6108Y7156D01*
X-5547Y7887D01*
X-5194Y8738D01*
X-5139Y9152D01*
D02*
G37*
G36*
X46500Y-4500D02*
X43536D01*
X43590Y-4914D01*
X43943Y-5765D01*
X44504Y-6496D01*
X45235Y-7057D01*
X46086Y-7410D01*
X46500Y-7464D01*
Y-4500D01*
D02*
G37*
G36*
X50464D02*
X47500D01*
Y-7464D01*
X47914Y-7410D01*
X48765Y-7057D01*
X49496Y-6496D01*
X50057Y-5765D01*
X50410Y-4914D01*
X50464Y-4500D01*
D02*
G37*
G36*
X46500Y-536D02*
X46086Y-590D01*
X45235Y-943D01*
X44504Y-1504D01*
X43943Y-2235D01*
X43590Y-3086D01*
X43536Y-3500D01*
X46500D01*
Y-536D01*
D02*
G37*
G36*
X63000Y-18036D02*
X62586Y-18090D01*
X61735Y-18443D01*
X61004Y-19004D01*
X60443Y-19735D01*
X60090Y-20586D01*
X60036Y-21000D01*
X63000D01*
Y-18036D01*
D02*
G37*
G36*
X139534Y-45939D02*
Y-48903D01*
X142498D01*
X142444Y-48490D01*
X142091Y-47638D01*
X141530Y-46907D01*
X140799Y-46346D01*
X139948Y-45993D01*
X139534Y-45939D01*
D02*
G37*
G36*
X148376Y-30218D02*
X145412D01*
X145466Y-30632D01*
X145819Y-31483D01*
X146380Y-32214D01*
X147111Y-32776D01*
X147963Y-33128D01*
X148376Y-33183D01*
Y-30218D01*
D02*
G37*
G36*
X152341D02*
X149376D01*
Y-33183D01*
X149790Y-33128D01*
X150642Y-32776D01*
X151373Y-32214D01*
X151934Y-31483D01*
X152286Y-30632D01*
X152341Y-30218D01*
D02*
G37*
G36*
X138534Y-45939D02*
X138120Y-45993D01*
X137269Y-46346D01*
X136538Y-46907D01*
X135977Y-47638D01*
X135624Y-48490D01*
X135570Y-48903D01*
X138534D01*
Y-45939D01*
D02*
G37*
G36*
X142498Y-49903D02*
X139534D01*
Y-52868D01*
X139948Y-52813D01*
X140799Y-52461D01*
X141530Y-51899D01*
X142091Y-51168D01*
X142444Y-50317D01*
X142498Y-49903D01*
D02*
G37*
G36*
X12500Y-48036D02*
X12086Y-48090D01*
X11235Y-48443D01*
X10504Y-49004D01*
X9943Y-49735D01*
X9590Y-50586D01*
X9536Y-51000D01*
X12500D01*
Y-48036D01*
D02*
G37*
G36*
X13500D02*
Y-51000D01*
X16464D01*
X16410Y-50586D01*
X16057Y-49735D01*
X15496Y-49004D01*
X14765Y-48443D01*
X13914Y-48090D01*
X13500Y-48036D01*
D02*
G37*
G36*
X66964Y-22000D02*
X64000D01*
Y-24964D01*
X64414Y-24910D01*
X65265Y-24557D01*
X65996Y-23996D01*
X66557Y-23265D01*
X66910Y-22414D01*
X66964Y-22000D01*
D02*
G37*
G36*
X81000D02*
X78036D01*
X78090Y-22414D01*
X78443Y-23265D01*
X79004Y-23996D01*
X79735Y-24557D01*
X80586Y-24910D01*
X81000Y-24964D01*
Y-22000D01*
D02*
G37*
G36*
X84964D02*
X82000D01*
Y-24964D01*
X82414Y-24910D01*
X83265Y-24557D01*
X83996Y-23996D01*
X84557Y-23265D01*
X84910Y-22414D01*
X84964Y-22000D01*
D02*
G37*
G36*
X63000D02*
X60036D01*
X60090Y-22414D01*
X60443Y-23265D01*
X61004Y-23996D01*
X61735Y-24557D01*
X62586Y-24910D01*
X63000Y-24964D01*
Y-22000D01*
D02*
G37*
G36*
X153285Y-19500D02*
X146500D01*
Y-26285D01*
X146857Y-26250D01*
X147041Y-26715D01*
X146380Y-27222D01*
X145819Y-27953D01*
X145466Y-28805D01*
X145412Y-29218D01*
X152341D01*
X152286Y-28805D01*
X151934Y-27953D01*
X151373Y-27222D01*
X150642Y-26661D01*
X149790Y-26308D01*
X149013Y-26206D01*
X149005Y-26166D01*
X149005Y-26166D01*
X149005Y-26165D01*
D01*
X149004Y-26159D01*
X148930Y-25754D01*
X148930Y-25754D01*
D01*
D01*
D01*
X148930D01*
X148923Y-25714D01*
X150075Y-25098D01*
X151186Y-24186D01*
X152098Y-23075D01*
X152776Y-21807D01*
X153194Y-20431D01*
X153285Y-19500D01*
D02*
G37*
G36*
X-119000Y-20500D02*
X-125390D01*
X-125306Y-21354D01*
X-124911Y-22655D01*
X-124269Y-23855D01*
X-123407Y-24907D01*
X-122355Y-25769D01*
X-121155Y-26411D01*
X-119854Y-26806D01*
X-119000Y-26890D01*
Y-20500D01*
D02*
G37*
G36*
X145500Y-19500D02*
X138715D01*
X138806Y-20431D01*
X139224Y-21807D01*
X139902Y-23075D01*
X140814Y-24186D01*
X141925Y-25098D01*
X143193Y-25776D01*
X144569Y-26194D01*
X145500Y-26285D01*
Y-19500D01*
D02*
G37*
G36*
X-9104Y13116D02*
X-9518Y13062D01*
X-10369Y12709D01*
X-11100Y12148D01*
X-11661Y11417D01*
X-12014Y10565D01*
X-12068Y10152D01*
X-9104D01*
Y13116D01*
D02*
G37*
G36*
X-28789Y48522D02*
X-31753D01*
X-31699Y48108D01*
X-31346Y47257D01*
X-30785Y46526D01*
X-30054Y45965D01*
X-29203Y45612D01*
X-28789Y45557D01*
Y48522D01*
D02*
G37*
G36*
X-24825D02*
X-27789D01*
Y45557D01*
X-27375Y45612D01*
X-26524Y45965D01*
X-25793Y46526D01*
X-25232Y47257D01*
X-24879Y48108D01*
X-24825Y48522D01*
D02*
G37*
G36*
X128691D02*
X125727D01*
X125781Y48108D01*
X126134Y47257D01*
X126695Y46526D01*
X127426Y45965D01*
X128278Y45612D01*
X128691Y45557D01*
Y48522D01*
D02*
G37*
G36*
X28000Y41964D02*
Y39000D01*
X30964D01*
X30910Y39414D01*
X30557Y40265D01*
X29996Y40996D01*
X29265Y41557D01*
X28414Y41910D01*
X28000Y41964D01*
D02*
G37*
G36*
X27000Y38000D02*
X24036D01*
X24090Y37586D01*
X24443Y36735D01*
X25004Y36004D01*
X25735Y35443D01*
X26586Y35090D01*
X27000Y35036D01*
Y38000D01*
D02*
G37*
G36*
X30964D02*
X28000D01*
Y35036D01*
X28414Y35090D01*
X29265Y35443D01*
X29996Y36004D01*
X30557Y36735D01*
X30910Y37586D01*
X30964Y38000D01*
D02*
G37*
G36*
X27000Y41964D02*
X26586Y41910D01*
X25735Y41557D01*
X25004Y40996D01*
X24443Y40265D01*
X24090Y39414D01*
X24036Y39000D01*
X27000D01*
Y41964D01*
D02*
G37*
G36*
X-28789Y52486D02*
X-29203Y52432D01*
X-30054Y52079D01*
X-30785Y51518D01*
X-31346Y50787D01*
X-31699Y49936D01*
X-31753Y49522D01*
X-28789D01*
Y52486D01*
D02*
G37*
G36*
X-27789D02*
Y49522D01*
X-24825D01*
X-24879Y49936D01*
X-25232Y50787D01*
X-25793Y51518D01*
X-26524Y52079D01*
X-27375Y52432D01*
X-27789Y52486D01*
D02*
G37*
G36*
X50951D02*
Y49522D01*
X53916D01*
X53861Y49936D01*
X53508Y50787D01*
X52947Y51518D01*
X52216Y52079D01*
X51365Y52432D01*
X50951Y52486D01*
D02*
G37*
G36*
X-118500Y54500D02*
X-124890D01*
X-124806Y53646D01*
X-124411Y52345D01*
X-123769Y51145D01*
X-122907Y50093D01*
X-121855Y49231D01*
X-120655Y48589D01*
X-119354Y48194D01*
X-118500Y48110D01*
Y54500D01*
D02*
G37*
G36*
X132656Y48522D02*
X129691D01*
Y45557D01*
X130105Y45612D01*
X130956Y45965D01*
X131688Y46526D01*
X132249Y47257D01*
X132601Y48108D01*
X132656Y48522D01*
D02*
G37*
G36*
X148376D02*
X145412D01*
X145466Y48108D01*
X145819Y47257D01*
X146380Y46526D01*
X147111Y45965D01*
X147963Y45612D01*
X148376Y45557D01*
Y48522D01*
D02*
G37*
G36*
X152341D02*
X149376D01*
Y45557D01*
X149790Y45612D01*
X150642Y45965D01*
X151373Y46526D01*
X151934Y47257D01*
X152286Y48108D01*
X152341Y48522D01*
D02*
G37*
G36*
X145000Y26285D02*
X144069Y26194D01*
X142693Y25776D01*
X141425Y25098D01*
X140314Y24186D01*
X139402Y23075D01*
X138724Y21807D01*
X138306Y20431D01*
X138215Y19500D01*
X145000D01*
Y26285D01*
D02*
G37*
G36*
X146000D02*
Y19500D01*
X152785D01*
X152694Y20431D01*
X152276Y21807D01*
X151598Y23075D01*
X150686Y24186D01*
X149575Y25098D01*
X148307Y25776D01*
X146931Y26194D01*
X146000Y26285D01*
D02*
G37*
G36*
X-119000Y26890D02*
X-119854Y26806D01*
X-121155Y26411D01*
X-122355Y25769D01*
X-123407Y24907D01*
X-124269Y23855D01*
X-124911Y22655D01*
X-125306Y21354D01*
X-125390Y20500D01*
X-119000D01*
Y26890D01*
D02*
G37*
G36*
X-79500Y20494D02*
X-80764Y20370D01*
X-82461Y19855D01*
X-84024Y19019D01*
X-85395Y17895D01*
X-86519Y16524D01*
X-87355Y14961D01*
X-87870Y13264D01*
X-87994Y12000D01*
X-79500D01*
Y20494D01*
D02*
G37*
G36*
X-8104Y13116D02*
Y10152D01*
X-5139D01*
X-5194Y10565D01*
X-5547Y11417D01*
X-6108Y12148D01*
X-6839Y12709D01*
X-7690Y13062D01*
X-8104Y13116D01*
D02*
G37*
G36*
X145000Y18500D02*
X138215D01*
X138306Y17569D01*
X138724Y16193D01*
X139402Y14925D01*
X140314Y13814D01*
X141425Y12902D01*
X142693Y12224D01*
X144069Y11806D01*
X145000Y11715D01*
Y18500D01*
D02*
G37*
G36*
X152785D02*
X146000D01*
Y11715D01*
X146931Y11806D01*
X148307Y12224D01*
X149575Y12902D01*
X150686Y13814D01*
X151598Y14925D01*
X152276Y16193D01*
X152694Y17569D01*
X152785Y18500D01*
D02*
G37*
G36*
X-14982Y28837D02*
X-17946D01*
Y25872D01*
X-17533Y25927D01*
X-16681Y26280D01*
X-15950Y26841D01*
X-15389Y27572D01*
X-15036Y28423D01*
X-14982Y28837D01*
D02*
G37*
G36*
X-38631Y32801D02*
X-39045Y32747D01*
X-39897Y32394D01*
X-40628Y31833D01*
X-41189Y31102D01*
X-41541Y30250D01*
X-41596Y29837D01*
X-38631D01*
Y32801D01*
D02*
G37*
G36*
X-37631D02*
Y29837D01*
X-34667D01*
X-34722Y30250D01*
X-35074Y31102D01*
X-35635Y31833D01*
X-36366Y32394D01*
X-37218Y32747D01*
X-37631Y32801D01*
D02*
G37*
G36*
X-18946Y28837D02*
X-21911D01*
X-21856Y28423D01*
X-21504Y27572D01*
X-20943Y26841D01*
X-20211Y26280D01*
X-19360Y25927D01*
X-18946Y25872D01*
Y28837D01*
D02*
G37*
G36*
X-118000Y26890D02*
Y20500D01*
X-111610D01*
X-111694Y21354D01*
X-112089Y22655D01*
X-112731Y23855D01*
X-113593Y24907D01*
X-114645Y25769D01*
X-115845Y26411D01*
X-117146Y26806D01*
X-118000Y26890D01*
D02*
G37*
G36*
X-38631Y28837D02*
X-41596D01*
X-41541Y28423D01*
X-41189Y27572D01*
X-40628Y26841D01*
X-39897Y26280D01*
X-39045Y25927D01*
X-38631Y25872D01*
Y28837D01*
D02*
G37*
G36*
X-34667D02*
X-37631D01*
Y25872D01*
X-37218Y25927D01*
X-36366Y26280D01*
X-35635Y26841D01*
X-35074Y27572D01*
X-34722Y28423D01*
X-34667Y28837D01*
D02*
G37*
G36*
X21424Y-124679D02*
Y-127644D01*
X24388D01*
X24333Y-127230D01*
X23981Y-126378D01*
X23420Y-125647D01*
X22689Y-125086D01*
X21837Y-124734D01*
X21424Y-124679D01*
D02*
G37*
G36*
X40109D02*
X39695Y-124734D01*
X38844Y-125086D01*
X38113Y-125647D01*
X37551Y-126378D01*
X37199Y-127230D01*
X37144Y-127644D01*
X40109D01*
Y-124679D01*
D02*
G37*
G36*
X41109D02*
Y-127644D01*
X44073D01*
X44019Y-127230D01*
X43666Y-126378D01*
X43105Y-125647D01*
X42374Y-125086D01*
X41522Y-124734D01*
X41109Y-124679D01*
D02*
G37*
G36*
X20424D02*
X20010Y-124734D01*
X19159Y-125086D01*
X18427Y-125647D01*
X17866Y-126378D01*
X17514Y-127230D01*
X17459Y-127644D01*
X20424D01*
Y-124679D01*
D02*
G37*
G36*
X151575Y-123968D02*
X149645Y-124158D01*
X147790Y-124721D01*
X146080Y-125635D01*
X144581Y-126865D01*
X143351Y-128364D01*
X142927Y-129158D01*
X142451Y-129005D01*
X142498Y-128644D01*
X139534D01*
Y-131608D01*
X139948Y-131553D01*
X140799Y-131201D01*
X141530Y-130640D01*
X141896Y-130162D01*
X142341Y-130391D01*
X141875Y-131929D01*
X141685Y-133858D01*
X141875Y-135788D01*
X142438Y-137643D01*
X143351Y-139353D01*
X144581Y-140852D01*
X146080Y-142081D01*
X147790Y-142996D01*
X149645Y-143558D01*
X151575Y-143748D01*
X153504Y-143558D01*
X155360Y-142996D01*
X157070Y-142081D01*
X158568Y-140852D01*
X159798Y-139353D01*
X160712Y-137643D01*
X161275Y-135788D01*
X161465Y-133858D01*
X161275Y-131929D01*
X160712Y-130073D01*
X159798Y-128364D01*
X158568Y-126865D01*
X157070Y-125635D01*
X155360Y-124721D01*
X153504Y-124158D01*
X151575Y-123968D01*
D02*
G37*
G36*
X739Y-124679D02*
X325Y-124734D01*
X-526Y-125086D01*
X-1258Y-125647D01*
X-1819Y-126378D01*
X-2171Y-127230D01*
X-2226Y-127644D01*
X739D01*
Y-124679D01*
D02*
G37*
G36*
X1739D02*
Y-127644D01*
X4703D01*
X4648Y-127230D01*
X4296Y-126378D01*
X3735Y-125647D01*
X3004Y-125086D01*
X2152Y-124734D01*
X1739Y-124679D01*
D02*
G37*
G36*
X59794D02*
X59380Y-124734D01*
X58529Y-125086D01*
X57797Y-125647D01*
X57236Y-126378D01*
X56884Y-127230D01*
X56829Y-127644D01*
X59794D01*
Y-124679D01*
D02*
G37*
G36*
X100164D02*
Y-127644D01*
X103128D01*
X103074Y-127230D01*
X102721Y-126378D01*
X102160Y-125647D01*
X101429Y-125086D01*
X100577Y-124734D01*
X100164Y-124679D01*
D02*
G37*
G36*
X118849D02*
X118435Y-124734D01*
X117584Y-125086D01*
X116853Y-125647D01*
X116292Y-126378D01*
X115939Y-127230D01*
X115884Y-127644D01*
X118849D01*
Y-124679D01*
D02*
G37*
G36*
X119849D02*
Y-127644D01*
X122813D01*
X122759Y-127230D01*
X122406Y-126378D01*
X121845Y-125647D01*
X121114Y-125086D01*
X120263Y-124734D01*
X119849Y-124679D01*
D02*
G37*
G36*
X99164D02*
X98750Y-124734D01*
X97899Y-125086D01*
X97168Y-125647D01*
X96607Y-126378D01*
X96254Y-127230D01*
X96199Y-127644D01*
X99164D01*
Y-124679D01*
D02*
G37*
G36*
X60794D02*
Y-127644D01*
X63758D01*
X63704Y-127230D01*
X63351Y-126378D01*
X62790Y-125647D01*
X62059Y-125086D01*
X61207Y-124734D01*
X60794Y-124679D01*
D02*
G37*
G36*
X79479D02*
X79065Y-124734D01*
X78214Y-125086D01*
X77482Y-125647D01*
X76921Y-126378D01*
X76569Y-127230D01*
X76514Y-127644D01*
X79479D01*
Y-124679D01*
D02*
G37*
G36*
X80479D02*
Y-127644D01*
X83443D01*
X83389Y-127230D01*
X83036Y-126378D01*
X82475Y-125647D01*
X81744Y-125086D01*
X80892Y-124734D01*
X80479Y-124679D01*
D02*
G37*
G36*
X40109Y-128644D02*
X37144D01*
X37199Y-129057D01*
X37551Y-129909D01*
X38113Y-130640D01*
X38844Y-131201D01*
X39695Y-131553D01*
X40109Y-131608D01*
Y-128644D01*
D02*
G37*
G36*
X44073D02*
X41109D01*
Y-131608D01*
X41522Y-131553D01*
X42374Y-131201D01*
X43105Y-130640D01*
X43666Y-129909D01*
X44019Y-129057D01*
X44073Y-128644D01*
D02*
G37*
G36*
X59794D02*
X56829D01*
X56884Y-129057D01*
X57236Y-129909D01*
X57797Y-130640D01*
X58529Y-131201D01*
X59380Y-131553D01*
X59794Y-131608D01*
Y-128644D01*
D02*
G37*
G36*
X24388D02*
X21424D01*
Y-131608D01*
X21837Y-131553D01*
X22689Y-131201D01*
X23420Y-130640D01*
X23981Y-129909D01*
X24333Y-129057D01*
X24388Y-128644D01*
D02*
G37*
G36*
X739D02*
X-2226D01*
X-2171Y-129057D01*
X-1819Y-129909D01*
X-1258Y-130640D01*
X-526Y-131201D01*
X325Y-131553D01*
X739Y-131608D01*
Y-128644D01*
D02*
G37*
G36*
X4703D02*
X1739D01*
Y-131608D01*
X2152Y-131553D01*
X3004Y-131201D01*
X3735Y-130640D01*
X4296Y-129909D01*
X4648Y-129057D01*
X4703Y-128644D01*
D02*
G37*
G36*
X20424D02*
X17459D01*
X17514Y-129057D01*
X17866Y-129909D01*
X18427Y-130640D01*
X19159Y-131201D01*
X20010Y-131553D01*
X20424Y-131608D01*
Y-128644D01*
D02*
G37*
G36*
X63758D02*
X60794D01*
Y-131608D01*
X61207Y-131553D01*
X62059Y-131201D01*
X62790Y-130640D01*
X63351Y-129909D01*
X63704Y-129057D01*
X63758Y-128644D01*
D02*
G37*
G36*
X118849D02*
X115884D01*
X115939Y-129057D01*
X116292Y-129909D01*
X116853Y-130640D01*
X117584Y-131201D01*
X118435Y-131553D01*
X118849Y-131608D01*
Y-128644D01*
D02*
G37*
G36*
X122813D02*
X119849D01*
Y-131608D01*
X120263Y-131553D01*
X121114Y-131201D01*
X121845Y-130640D01*
X122406Y-129909D01*
X122759Y-129057D01*
X122813Y-128644D01*
D02*
G37*
G36*
X138534D02*
X135570D01*
X135624Y-129057D01*
X135977Y-129909D01*
X136538Y-130640D01*
X137269Y-131201D01*
X138120Y-131553D01*
X138534Y-131608D01*
Y-128644D01*
D02*
G37*
G36*
X103128D02*
X100164D01*
Y-131608D01*
X100577Y-131553D01*
X101429Y-131201D01*
X102160Y-130640D01*
X102721Y-129909D01*
X103074Y-129057D01*
X103128Y-128644D01*
D02*
G37*
G36*
X79479D02*
X76514D01*
X76569Y-129057D01*
X76921Y-129909D01*
X77482Y-130640D01*
X78214Y-131201D01*
X79065Y-131553D01*
X79479Y-131608D01*
Y-128644D01*
D02*
G37*
G36*
X83443D02*
X80479D01*
Y-131608D01*
X80892Y-131553D01*
X81744Y-131201D01*
X82475Y-130640D01*
X83036Y-129909D01*
X83389Y-129057D01*
X83443Y-128644D01*
D02*
G37*
G36*
X99164D02*
X96199D01*
X96254Y-129057D01*
X96607Y-129909D01*
X97168Y-130640D01*
X97899Y-131201D01*
X98750Y-131553D01*
X99164Y-131608D01*
Y-128644D01*
D02*
G37*
G36*
X51964Y-74500D02*
X49000D01*
Y-77464D01*
X49414Y-77410D01*
X50265Y-77057D01*
X50996Y-76496D01*
X51557Y-75765D01*
X51910Y-74914D01*
X51964Y-74500D01*
D02*
G37*
G36*
X48000Y-70536D02*
X47586Y-70590D01*
X46735Y-70943D01*
X46004Y-71504D01*
X45443Y-72235D01*
X45090Y-73086D01*
X45036Y-73500D01*
X48000D01*
Y-70536D01*
D02*
G37*
G36*
X49000D02*
Y-73500D01*
X51964D01*
X51910Y-73086D01*
X51557Y-72235D01*
X50996Y-71504D01*
X50265Y-70943D01*
X49414Y-70590D01*
X49000Y-70536D01*
D02*
G37*
G36*
X48000Y-74500D02*
X45036D01*
X45090Y-74914D01*
X45443Y-75765D01*
X46004Y-76496D01*
X46735Y-77057D01*
X47586Y-77410D01*
X48000Y-77464D01*
Y-74500D01*
D02*
G37*
G36*
X153285Y-80681D02*
X146500D01*
Y-87466D01*
X147431Y-87375D01*
X148807Y-86957D01*
X150075Y-86279D01*
X151186Y-85367D01*
X152098Y-84256D01*
X152776Y-82988D01*
X153194Y-81612D01*
X153285Y-80681D01*
D02*
G37*
G36*
X145500Y-72896D02*
X144569Y-72988D01*
X143193Y-73405D01*
X141925Y-74083D01*
X140814Y-74995D01*
X139902Y-76106D01*
X139224Y-77374D01*
X138806Y-78750D01*
X138715Y-79681D01*
X145500D01*
Y-72896D01*
D02*
G37*
G36*
X146500D02*
Y-79681D01*
X153285D01*
X153194Y-78750D01*
X152776Y-77374D01*
X152098Y-76106D01*
X151186Y-74995D01*
X150075Y-74083D01*
X148807Y-73405D01*
X147431Y-72988D01*
X146500Y-72896D01*
D02*
G37*
G36*
X148376Y-69588D02*
X145412D01*
X145466Y-70002D01*
X145819Y-70854D01*
X146380Y-71585D01*
X147111Y-72146D01*
X147963Y-72498D01*
X148376Y-72553D01*
Y-69588D01*
D02*
G37*
G36*
X16464Y-52000D02*
X13500D01*
Y-54964D01*
X13914Y-54910D01*
X14765Y-54557D01*
X15496Y-53996D01*
X16057Y-53265D01*
X16410Y-52414D01*
X16464Y-52000D01*
D02*
G37*
G36*
X112000Y-43890D02*
X110936Y-44030D01*
X109945Y-44441D01*
X109094Y-45094D01*
X108441Y-45945D01*
X108030Y-46936D01*
X107890Y-48000D01*
X108030Y-49064D01*
X108441Y-50055D01*
X109094Y-50906D01*
X109945Y-51559D01*
X110936Y-51970D01*
X112000Y-52110D01*
X113064Y-51970D01*
X114055Y-51559D01*
X114906Y-50906D01*
X115056Y-50710D01*
X115555Y-50678D01*
X117410Y-52532D01*
X117189Y-52981D01*
X116500Y-52890D01*
X115436Y-53030D01*
X114445Y-53441D01*
X113594Y-54094D01*
X112941Y-54945D01*
X112530Y-55936D01*
X112390Y-57000D01*
X112505Y-57873D01*
X107439Y-62939D01*
X106960Y-63655D01*
X106792Y-64500D01*
Y-85058D01*
X106094Y-85594D01*
X105441Y-86445D01*
X105030Y-87436D01*
X104890Y-88500D01*
X105030Y-89564D01*
X105441Y-90555D01*
X106094Y-91406D01*
X106945Y-92059D01*
X107936Y-92470D01*
X109000Y-92610D01*
X110064Y-92470D01*
X111055Y-92059D01*
X111906Y-91406D01*
X112559Y-90555D01*
X112970Y-89564D01*
X113110Y-88500D01*
X112970Y-87436D01*
X112559Y-86445D01*
X111906Y-85594D01*
X111208Y-85058D01*
Y-65415D01*
X115627Y-60995D01*
X116500Y-61110D01*
X117564Y-60970D01*
X118555Y-60559D01*
X119406Y-59906D01*
X120059Y-59055D01*
X120470Y-58064D01*
X120610Y-57000D01*
X120519Y-56311D01*
X120968Y-56090D01*
X121792Y-56915D01*
Y-85058D01*
X121094Y-85594D01*
X120441Y-86445D01*
X120030Y-87436D01*
X119890Y-88500D01*
X120030Y-89564D01*
X120441Y-90555D01*
X121094Y-91406D01*
X121945Y-92059D01*
X122936Y-92470D01*
X124000Y-92610D01*
X125064Y-92470D01*
X126055Y-92059D01*
X126906Y-91406D01*
X127559Y-90555D01*
X127970Y-89564D01*
X128110Y-88500D01*
X127970Y-87436D01*
X127559Y-86445D01*
X126906Y-85594D01*
X126208Y-85058D01*
Y-56000D01*
X126040Y-55155D01*
X125561Y-54439D01*
X117561Y-46439D01*
X116845Y-45960D01*
X116000Y-45792D01*
X115442D01*
X114906Y-45094D01*
X114055Y-44441D01*
X113064Y-44030D01*
X112000Y-43890D01*
D02*
G37*
G36*
X138534Y-49903D02*
X135570D01*
X135624Y-50317D01*
X135977Y-51168D01*
X136538Y-51899D01*
X137269Y-52461D01*
X138120Y-52813D01*
X138534Y-52868D01*
Y-49903D01*
D02*
G37*
G36*
X12500Y-52000D02*
X9536D01*
X9590Y-52414D01*
X9943Y-53265D01*
X10504Y-53996D01*
X11235Y-54557D01*
X12086Y-54910D01*
X12500Y-54964D01*
Y-52000D01*
D02*
G37*
G36*
X152341Y-69588D02*
X149376D01*
Y-72553D01*
X149790Y-72498D01*
X150642Y-72146D01*
X151373Y-71585D01*
X151934Y-70854D01*
X152286Y-70002D01*
X152341Y-69588D01*
D02*
G37*
G36*
X148376Y-65624D02*
X147963Y-65678D01*
X147111Y-66031D01*
X146380Y-66592D01*
X145819Y-67323D01*
X145466Y-68175D01*
X145412Y-68588D01*
X148376D01*
Y-65624D01*
D02*
G37*
G36*
X149376D02*
Y-68588D01*
X152341D01*
X152286Y-68175D01*
X151934Y-67323D01*
X151373Y-66592D01*
X150642Y-66031D01*
X149790Y-65678D01*
X149376Y-65624D01*
D02*
G37*
G36*
X103128Y-89273D02*
X100164D01*
Y-92238D01*
X100432Y-92203D01*
X100561Y-92686D01*
X99945Y-92941D01*
X99094Y-93594D01*
X98441Y-94445D01*
X98030Y-95436D01*
X97890Y-96500D01*
X98030Y-97564D01*
X98441Y-98555D01*
X99094Y-99406D01*
X99945Y-100059D01*
X100486Y-100283D01*
Y-100783D01*
X99945Y-101007D01*
X99094Y-101661D01*
X98441Y-102512D01*
X98030Y-103503D01*
X97890Y-104567D01*
X98030Y-105631D01*
X98441Y-106622D01*
X99094Y-107473D01*
X99945Y-108126D01*
X100936Y-108537D01*
X102000Y-108677D01*
X103064Y-108537D01*
X104055Y-108126D01*
X104906Y-107473D01*
X105559Y-106622D01*
X105859Y-105899D01*
X145863D01*
X146085Y-106347D01*
X145819Y-106693D01*
X145466Y-107545D01*
X145412Y-107958D01*
X152341D01*
X152319Y-107790D01*
X152580Y-107449D01*
X152699Y-107358D01*
X153653Y-107753D01*
X154717Y-107893D01*
X155780Y-107753D01*
X156772Y-107343D01*
X157623Y-106690D01*
X158276Y-105838D01*
X158686Y-104847D01*
X158827Y-103783D01*
X158686Y-102720D01*
X158276Y-101728D01*
X157623Y-100877D01*
X156882Y-100309D01*
Y-99958D01*
X156973Y-99739D01*
X157406Y-99406D01*
X158059Y-98555D01*
X158470Y-97564D01*
X158610Y-96500D01*
X158470Y-95436D01*
X158059Y-94445D01*
X157406Y-93594D01*
X156555Y-92941D01*
X155564Y-92530D01*
X154500Y-92390D01*
X153436Y-92530D01*
X152445Y-92941D01*
X151594Y-93594D01*
X150987Y-94385D01*
X105513D01*
X104906Y-93594D01*
X104055Y-92941D01*
X103064Y-92530D01*
X102000Y-92390D01*
X101082Y-92511D01*
X100953Y-92028D01*
X101429Y-91831D01*
X102160Y-91270D01*
X102721Y-90539D01*
X103074Y-89687D01*
X103128Y-89273D01*
D02*
G37*
G36*
X59794D02*
X56829D01*
X56884Y-89687D01*
X57236Y-90539D01*
X57797Y-91270D01*
X58529Y-91831D01*
X59380Y-92183D01*
X59794Y-92238D01*
Y-89273D01*
D02*
G37*
G36*
X63758D02*
X60794D01*
Y-92238D01*
X61207Y-92183D01*
X62059Y-91831D01*
X62790Y-91270D01*
X63351Y-90539D01*
X63704Y-89687D01*
X63758Y-89273D01*
D02*
G37*
G36*
X152341Y-108958D02*
X149376D01*
Y-111923D01*
X149790Y-111868D01*
X150642Y-111516D01*
X151373Y-110955D01*
X151934Y-110223D01*
X152286Y-109372D01*
X152341Y-108958D01*
D02*
G37*
G36*
X138534Y-124679D02*
X138120Y-124734D01*
X137269Y-125086D01*
X136538Y-125647D01*
X135977Y-126378D01*
X135624Y-127230D01*
X135570Y-127644D01*
X138534D01*
Y-124679D01*
D02*
G37*
G36*
X139534D02*
Y-127644D01*
X142498D01*
X142444Y-127230D01*
X142091Y-126378D01*
X141530Y-125647D01*
X140799Y-125086D01*
X139948Y-124734D01*
X139534Y-124679D01*
D02*
G37*
G36*
X148376Y-108958D02*
X145412D01*
X145466Y-109372D01*
X145819Y-110223D01*
X146380Y-110955D01*
X147111Y-111516D01*
X147963Y-111868D01*
X148376Y-111923D01*
Y-108958D01*
D02*
G37*
G36*
X99164Y-89273D02*
X96199D01*
X96254Y-89687D01*
X96607Y-90539D01*
X97168Y-91270D01*
X97899Y-91831D01*
X98750Y-92183D01*
X99164Y-92238D01*
Y-89273D01*
D02*
G37*
G36*
Y-85309D02*
X98750Y-85364D01*
X97899Y-85716D01*
X97168Y-86277D01*
X96607Y-87008D01*
X96254Y-87860D01*
X96199Y-88273D01*
X99164D01*
Y-85309D01*
D02*
G37*
G36*
X100164D02*
Y-88273D01*
X103128D01*
X103074Y-87860D01*
X102721Y-87008D01*
X102160Y-86277D01*
X101429Y-85716D01*
X100577Y-85364D01*
X100164Y-85309D01*
D02*
G37*
G36*
X145500Y-80681D02*
X138715D01*
X138806Y-81612D01*
X139224Y-82988D01*
X139902Y-84256D01*
X140814Y-85367D01*
X141925Y-86279D01*
X143193Y-86957D01*
X144569Y-87375D01*
X145500Y-87466D01*
Y-80681D01*
D02*
G37*
G36*
X80479Y-85309D02*
Y-88273D01*
X83443D01*
X83389Y-87860D01*
X83036Y-87008D01*
X82475Y-86277D01*
X81744Y-85716D01*
X80892Y-85364D01*
X80479Y-85309D01*
D02*
G37*
G36*
X59794D02*
X59380Y-85364D01*
X58529Y-85716D01*
X57797Y-86277D01*
X57236Y-87008D01*
X56884Y-87860D01*
X56829Y-88273D01*
X59794D01*
Y-85309D01*
D02*
G37*
G36*
X60794D02*
Y-88273D01*
X63758D01*
X63704Y-87860D01*
X63351Y-87008D01*
X62790Y-86277D01*
X62059Y-85716D01*
X61207Y-85364D01*
X60794Y-85309D01*
D02*
G37*
G36*
X79479D02*
X79065Y-85364D01*
X78214Y-85716D01*
X77482Y-86277D01*
X76921Y-87008D01*
X76569Y-87860D01*
X76514Y-88273D01*
X79479D01*
Y-85309D01*
D02*
G37*
G36*
X128691Y52486D02*
X128278Y52432D01*
X127426Y52079D01*
X126695Y51518D01*
X126134Y50787D01*
X125781Y49936D01*
X125727Y49522D01*
X128691D01*
Y52486D01*
D02*
G37*
G36*
X80479Y111541D02*
Y108577D01*
X83443D01*
X83389Y108991D01*
X83036Y109842D01*
X82475Y110573D01*
X81744Y111134D01*
X80892Y111487D01*
X80479Y111541D01*
D02*
G37*
G36*
X99164D02*
X98750Y111487D01*
X97899Y111134D01*
X97168Y110573D01*
X96607Y109842D01*
X96254Y108991D01*
X96199Y108577D01*
X99164D01*
Y111541D01*
D02*
G37*
G36*
X100164D02*
Y108577D01*
X103128D01*
X103074Y108991D01*
X102721Y109842D01*
X102160Y110573D01*
X101429Y111134D01*
X100577Y111487D01*
X100164Y111541D01*
D02*
G37*
G36*
X79479D02*
X79065Y111487D01*
X78214Y111134D01*
X77482Y110573D01*
X76921Y109842D01*
X76569Y108991D01*
X76514Y108577D01*
X79479D01*
Y111541D01*
D02*
G37*
G36*
X1739D02*
Y108577D01*
X4703D01*
X4648Y108991D01*
X4296Y109842D01*
X3735Y110573D01*
X3004Y111134D01*
X2152Y111487D01*
X1739Y111541D01*
D02*
G37*
G36*
X20424D02*
X20010Y111487D01*
X19159Y111134D01*
X18427Y110573D01*
X17866Y109842D01*
X17514Y108991D01*
X17459Y108577D01*
X20424D01*
Y111541D01*
D02*
G37*
G36*
X21424D02*
Y108577D01*
X24388D01*
X24333Y108991D01*
X23981Y109842D01*
X23420Y110573D01*
X22689Y111134D01*
X21837Y111487D01*
X21424Y111541D01*
D02*
G37*
G36*
X-5139Y127262D02*
X-8104D01*
Y124298D01*
X-7690Y124352D01*
X-6839Y124705D01*
X-6108Y125266D01*
X-5547Y125997D01*
X-5194Y126848D01*
X-5139Y127262D01*
D02*
G37*
G36*
X10581D02*
X7617D01*
X7671Y126848D01*
X8024Y125997D01*
X8585Y125266D01*
X9316Y124705D01*
X10167Y124352D01*
X10581Y124298D01*
Y127262D01*
D02*
G37*
G36*
X14546D02*
X11581D01*
Y124298D01*
X11995Y124352D01*
X12846Y124705D01*
X13577Y125266D01*
X14138Y125997D01*
X14491Y126848D01*
X14546Y127262D01*
D02*
G37*
G36*
X-9104D02*
X-12068D01*
X-12014Y126848D01*
X-11661Y125997D01*
X-11100Y125266D01*
X-10369Y124705D01*
X-9518Y124352D01*
X-9104Y124298D01*
Y127262D01*
D02*
G37*
G36*
X151575Y143748D02*
X149645Y143558D01*
X147790Y142996D01*
X146080Y142081D01*
X144581Y140852D01*
X143351Y139353D01*
X142438Y137643D01*
X141875Y135788D01*
X141685Y133858D01*
X141875Y131929D01*
X142438Y130073D01*
X143351Y128364D01*
X144581Y126865D01*
X146080Y125635D01*
X147790Y124721D01*
X149645Y124158D01*
X151575Y123968D01*
X153504Y124158D01*
X155360Y124721D01*
X157070Y125635D01*
X158568Y126865D01*
X159798Y128364D01*
X160712Y130073D01*
X161275Y131929D01*
X161465Y133858D01*
X161275Y135788D01*
X160712Y137643D01*
X159798Y139353D01*
X158568Y140852D01*
X157070Y142081D01*
X155360Y142996D01*
X153504Y143558D01*
X151575Y143748D01*
D02*
G37*
G36*
X-28789Y127262D02*
X-31753D01*
X-31699Y126848D01*
X-31346Y125997D01*
X-30785Y125266D01*
X-30054Y124705D01*
X-29203Y124352D01*
X-28789Y124298D01*
Y127262D01*
D02*
G37*
G36*
X-24825D02*
X-27789D01*
Y124298D01*
X-27375Y124352D01*
X-26524Y124705D01*
X-25793Y125266D01*
X-25232Y125997D01*
X-24879Y126848D01*
X-24825Y127262D01*
D02*
G37*
G36*
X739Y111541D02*
X325Y111487D01*
X-526Y111134D01*
X-1258Y110573D01*
X-1819Y109842D01*
X-2171Y108991D01*
X-2226Y108577D01*
X739D01*
Y111541D01*
D02*
G37*
G36*
X20424Y107577D02*
X17459D01*
X17514Y107163D01*
X17866Y106312D01*
X18427Y105581D01*
X19159Y105020D01*
X20010Y104667D01*
X20424Y104613D01*
Y107577D01*
D02*
G37*
G36*
X24388D02*
X21424D01*
Y104613D01*
X21837Y104667D01*
X22689Y105020D01*
X23420Y105581D01*
X23981Y106312D01*
X24333Y107163D01*
X24388Y107577D01*
D02*
G37*
G36*
X79479D02*
X76514D01*
X76569Y107163D01*
X76921Y106312D01*
X77482Y105581D01*
X78214Y105020D01*
X79065Y104667D01*
X79479Y104613D01*
Y107577D01*
D02*
G37*
G36*
X4703D02*
X1739D01*
Y104613D01*
X2152Y104667D01*
X3004Y105020D01*
X3735Y105581D01*
X4296Y106312D01*
X4648Y107163D01*
X4703Y107577D01*
D02*
G37*
G36*
X-18946D02*
X-21911D01*
X-21856Y107163D01*
X-21504Y106312D01*
X-20943Y105581D01*
X-20211Y105020D01*
X-19360Y104667D01*
X-18946Y104613D01*
Y107577D01*
D02*
G37*
G36*
X-14982D02*
X-17946D01*
Y104613D01*
X-17533Y104667D01*
X-16681Y105020D01*
X-15950Y105581D01*
X-15389Y106312D01*
X-15036Y107163D01*
X-14982Y107577D01*
D02*
G37*
G36*
X739D02*
X-2226D01*
X-2171Y107163D01*
X-1819Y106312D01*
X-1258Y105581D01*
X-526Y105020D01*
X325Y104667D01*
X739Y104613D01*
Y107577D01*
D02*
G37*
G36*
X-37631Y111541D02*
Y108577D01*
X-34667D01*
X-34722Y108991D01*
X-35074Y109842D01*
X-35635Y110573D01*
X-36366Y111134D01*
X-37218Y111487D01*
X-37631Y111541D01*
D02*
G37*
G36*
X-18946D02*
X-19360Y111487D01*
X-20211Y111134D01*
X-20943Y110573D01*
X-21504Y109842D01*
X-21856Y108991D01*
X-21911Y108577D01*
X-18946D01*
Y111541D01*
D02*
G37*
G36*
X-17946D02*
Y108577D01*
X-14982D01*
X-15036Y108991D01*
X-15389Y109842D01*
X-15950Y110573D01*
X-16681Y111134D01*
X-17533Y111487D01*
X-17946Y111541D01*
D02*
G37*
G36*
X-38631D02*
X-39045Y111487D01*
X-39897Y111134D01*
X-40628Y110573D01*
X-41189Y109842D01*
X-41541Y108991D01*
X-41596Y108577D01*
X-38631D01*
Y111541D01*
D02*
G37*
G36*
X83443Y107577D02*
X80479D01*
Y104613D01*
X80892Y104667D01*
X81744Y105020D01*
X82475Y105581D01*
X83036Y106312D01*
X83389Y107163D01*
X83443Y107577D01*
D02*
G37*
G36*
X99164D02*
X96199D01*
X96254Y107163D01*
X96607Y106312D01*
X97168Y105581D01*
X97899Y105020D01*
X98750Y104667D01*
X99164Y104613D01*
Y107577D01*
D02*
G37*
G36*
X103128D02*
X100164D01*
Y104613D01*
X100577Y104667D01*
X101429Y105020D01*
X102160Y105581D01*
X102721Y106312D01*
X103074Y107163D01*
X103128Y107577D01*
D02*
G37*
G36*
X30266Y127262D02*
X27302D01*
X27356Y126848D01*
X27709Y125997D01*
X28270Y125266D01*
X29001Y124705D01*
X29853Y124352D01*
X30266Y124298D01*
Y127262D01*
D02*
G37*
G36*
X49951Y131226D02*
X49538Y131172D01*
X48686Y130819D01*
X47955Y130258D01*
X47394Y129527D01*
X47041Y128676D01*
X46987Y128262D01*
X49951D01*
Y131226D01*
D02*
G37*
G36*
X50951D02*
Y128262D01*
X53916D01*
X53861Y128676D01*
X53508Y129527D01*
X52947Y130258D01*
X52216Y130819D01*
X51365Y131172D01*
X50951Y131226D01*
D02*
G37*
G36*
X69636D02*
X69223Y131172D01*
X68371Y130819D01*
X67640Y130258D01*
X67079Y129527D01*
X66726Y128676D01*
X66672Y128262D01*
X69636D01*
Y131226D01*
D02*
G37*
G36*
X31266D02*
Y128262D01*
X34231D01*
X34176Y128676D01*
X33823Y129527D01*
X33262Y130258D01*
X32531Y130819D01*
X31680Y131172D01*
X31266Y131226D01*
D02*
G37*
G36*
X10581D02*
X10167Y131172D01*
X9316Y130819D01*
X8585Y130258D01*
X8024Y129527D01*
X7671Y128676D01*
X7617Y128262D01*
X10581D01*
Y131226D01*
D02*
G37*
G36*
X11581D02*
Y128262D01*
X14546D01*
X14491Y128676D01*
X14138Y129527D01*
X13577Y130258D01*
X12846Y130819D01*
X11995Y131172D01*
X11581Y131226D01*
D02*
G37*
G36*
X30266D02*
X29853Y131172D01*
X29001Y130819D01*
X28270Y130258D01*
X27709Y129527D01*
X27356Y128676D01*
X27302Y128262D01*
X30266D01*
Y131226D01*
D02*
G37*
G36*
X110006D02*
Y128262D01*
X112971D01*
X112916Y128676D01*
X112564Y129527D01*
X112003Y130258D01*
X111271Y130819D01*
X110420Y131172D01*
X110006Y131226D01*
D02*
G37*
G36*
X128691D02*
X128278Y131172D01*
X127426Y130819D01*
X126695Y130258D01*
X126134Y129527D01*
X125781Y128676D01*
X125727Y128262D01*
X128691D01*
Y131226D01*
D02*
G37*
G36*
X129691D02*
Y128262D01*
X132656D01*
X132601Y128676D01*
X132249Y129527D01*
X131688Y130258D01*
X130956Y130819D01*
X130105Y131172D01*
X129691Y131226D01*
D02*
G37*
G36*
X109006D02*
X108593Y131172D01*
X107741Y130819D01*
X107010Y130258D01*
X106449Y129527D01*
X106096Y128676D01*
X106042Y128262D01*
X109006D01*
Y131226D01*
D02*
G37*
G36*
X70636D02*
Y128262D01*
X73601D01*
X73546Y128676D01*
X73194Y129527D01*
X72632Y130258D01*
X71901Y130819D01*
X71050Y131172D01*
X70636Y131226D01*
D02*
G37*
G36*
X89321D02*
X88908Y131172D01*
X88056Y130819D01*
X87325Y130258D01*
X86764Y129527D01*
X86411Y128676D01*
X86357Y128262D01*
X89321D01*
Y131226D01*
D02*
G37*
G36*
X90321D02*
Y128262D01*
X93286D01*
X93231Y128676D01*
X92879Y129527D01*
X92317Y130258D01*
X91586Y130819D01*
X90735Y131172D01*
X90321Y131226D01*
D02*
G37*
G36*
X-8104D02*
Y128262D01*
X-5139D01*
X-5194Y128676D01*
X-5547Y129527D01*
X-6108Y130258D01*
X-6839Y130819D01*
X-7690Y131172D01*
X-8104Y131226D01*
D02*
G37*
G36*
X73601Y127262D02*
X70636D01*
Y124298D01*
X71050Y124352D01*
X71901Y124705D01*
X72632Y125266D01*
X73194Y125997D01*
X73546Y126848D01*
X73601Y127262D01*
D02*
G37*
G36*
X89321D02*
X86357D01*
X86411Y126848D01*
X86764Y125997D01*
X87325Y125266D01*
X88056Y124705D01*
X88908Y124352D01*
X89321Y124298D01*
Y127262D01*
D02*
G37*
G36*
X93286D02*
X90321D01*
Y124298D01*
X90735Y124352D01*
X91586Y124705D01*
X92317Y125266D01*
X92879Y125997D01*
X93231Y126848D01*
X93286Y127262D01*
D02*
G37*
G36*
X69636D02*
X66672D01*
X66726Y126848D01*
X67079Y125997D01*
X67640Y125266D01*
X68371Y124705D01*
X69223Y124352D01*
X69636Y124298D01*
Y127262D01*
D02*
G37*
G36*
X34231D02*
X31266D01*
Y124298D01*
X31680Y124352D01*
X32531Y124705D01*
X33262Y125266D01*
X33823Y125997D01*
X34176Y126848D01*
X34231Y127262D01*
D02*
G37*
G36*
X49951D02*
X46987D01*
X47041Y126848D01*
X47394Y125997D01*
X47955Y125266D01*
X48686Y124705D01*
X49538Y124352D01*
X49951Y124298D01*
Y127262D01*
D02*
G37*
G36*
X53916D02*
X50951D01*
Y124298D01*
X51365Y124352D01*
X52216Y124705D01*
X52947Y125266D01*
X53508Y125997D01*
X53861Y126848D01*
X53916Y127262D01*
D02*
G37*
G36*
X-28789Y131226D02*
X-29203Y131172D01*
X-30054Y130819D01*
X-30785Y130258D01*
X-31346Y129527D01*
X-31699Y128676D01*
X-31753Y128262D01*
X-28789D01*
Y131226D01*
D02*
G37*
G36*
X-27789D02*
Y128262D01*
X-24825D01*
X-24879Y128676D01*
X-25232Y129527D01*
X-25793Y130258D01*
X-26524Y130819D01*
X-27375Y131172D01*
X-27789Y131226D01*
D02*
G37*
G36*
X-9104D02*
X-9518Y131172D01*
X-10369Y130819D01*
X-11100Y130258D01*
X-11661Y129527D01*
X-12014Y128676D01*
X-12068Y128262D01*
X-9104D01*
Y131226D01*
D02*
G37*
G36*
X132656Y127262D02*
X129691D01*
Y124298D01*
X130105Y124352D01*
X130956Y124705D01*
X131688Y125266D01*
X132249Y125997D01*
X132601Y126848D01*
X132656Y127262D01*
D02*
G37*
G36*
X109006D02*
X106042D01*
X106096Y126848D01*
X106449Y125997D01*
X107010Y125266D01*
X107741Y124705D01*
X108593Y124352D01*
X109006Y124298D01*
Y127262D01*
D02*
G37*
G36*
X112971D02*
X110006D01*
Y124298D01*
X110420Y124352D01*
X111271Y124705D01*
X112003Y125266D01*
X112564Y125997D01*
X112916Y126848D01*
X112971Y127262D01*
D02*
G37*
G36*
X128691D02*
X125727D01*
X125781Y126848D01*
X126134Y125997D01*
X126695Y125266D01*
X127426Y124705D01*
X128278Y124352D01*
X128691Y124298D01*
Y127262D01*
D02*
G37*
G36*
X-34667Y107577D02*
X-37631D01*
Y104613D01*
X-37218Y104667D01*
X-36366Y105020D01*
X-35635Y105581D01*
X-35074Y106312D01*
X-34722Y107163D01*
X-34667Y107577D01*
D02*
G37*
G36*
X-78500Y80494D02*
Y72000D01*
X-70006D01*
X-70130Y73264D01*
X-70645Y74961D01*
X-71481Y76524D01*
X-72605Y77895D01*
X-73976Y79019D01*
X-75539Y79855D01*
X-77236Y80370D01*
X-78500Y80494D01*
D02*
G37*
G36*
X145000Y79681D02*
X138215D01*
X138306Y78750D01*
X138724Y77374D01*
X139402Y76106D01*
X140314Y74995D01*
X141425Y74083D01*
X142693Y73405D01*
X144069Y72988D01*
X145000Y72896D01*
Y79681D01*
D02*
G37*
G36*
X152785D02*
X146000D01*
Y72896D01*
X146931Y72988D01*
X148307Y73405D01*
X149575Y74083D01*
X150686Y74995D01*
X151598Y76106D01*
X152276Y77374D01*
X152694Y78750D01*
X152785Y79681D01*
D02*
G37*
G36*
X-79500Y80494D02*
X-80764Y80370D01*
X-82461Y79855D01*
X-84024Y79019D01*
X-85395Y77895D01*
X-86519Y76524D01*
X-87355Y74961D01*
X-87870Y73264D01*
X-87994Y72000D01*
X-79500D01*
Y80494D01*
D02*
G37*
G36*
X118849Y72171D02*
X118435Y72117D01*
X117584Y71764D01*
X116853Y71203D01*
X116292Y70472D01*
X115939Y69621D01*
X115884Y69207D01*
X118849D01*
Y72171D01*
D02*
G37*
G36*
X119849D02*
Y69207D01*
X122813D01*
X122759Y69621D01*
X122406Y70472D01*
X121845Y71203D01*
X121114Y71764D01*
X120263Y72117D01*
X119849Y72171D01*
D02*
G37*
G36*
X-28053Y77921D02*
X-29327Y77795D01*
X-30551Y77424D01*
X-31680Y76821D01*
X-32669Y76009D01*
X-33481Y75020D01*
X-34084Y73891D01*
X-34455Y72667D01*
X-34581Y71393D01*
X-34475Y70317D01*
X-34960Y70196D01*
X-35074Y70472D01*
X-35635Y71203D01*
X-36366Y71764D01*
X-37218Y72117D01*
X-37631Y72171D01*
Y68707D01*
Y65243D01*
X-37218Y65297D01*
X-36366Y65650D01*
X-35635Y66211D01*
X-35074Y66942D01*
X-34722Y67793D01*
X-34601Y68707D01*
X-34642Y69020D01*
X-34154Y69125D01*
X-34084Y68895D01*
X-33481Y67767D01*
X-32669Y66778D01*
X-31680Y65966D01*
X-30551Y65363D01*
X-29327Y64991D01*
X-28053Y64866D01*
X-26780Y64991D01*
X-25555Y65363D01*
X-24427Y65966D01*
X-23438Y66778D01*
X-22626Y67767D01*
X-22391Y68207D01*
X-21899Y68117D01*
X-21856Y67793D01*
X-21504Y66942D01*
X-20943Y66211D01*
X-20211Y65650D01*
X-19360Y65297D01*
X-18946Y65243D01*
Y68707D01*
Y72171D01*
X-19360Y72117D01*
X-20211Y71764D01*
X-20943Y71203D01*
X-21079Y71026D01*
X-21544Y71209D01*
X-21526Y71393D01*
X-21651Y72667D01*
X-22023Y73891D01*
X-22626Y75020D01*
X-23438Y76009D01*
X-24427Y76821D01*
X-25555Y77424D01*
X-26780Y77795D01*
X-28053Y77921D01*
D02*
G37*
G36*
X-9104Y87892D02*
X-12068D01*
X-12014Y87478D01*
X-11661Y86627D01*
X-11100Y85896D01*
X-10369Y85335D01*
X-9518Y84982D01*
X-9104Y84928D01*
Y87892D01*
D02*
G37*
G36*
X-5139D02*
X-8104D01*
Y84928D01*
X-7690Y84982D01*
X-6839Y85335D01*
X-6108Y85896D01*
X-5547Y86627D01*
X-5194Y87478D01*
X-5139Y87892D01*
D02*
G37*
G36*
X10581D02*
X7617D01*
X7671Y87478D01*
X8024Y86627D01*
X8585Y85896D01*
X9316Y85335D01*
X10167Y84982D01*
X10581Y84928D01*
Y87892D01*
D02*
G37*
G36*
X-24825D02*
X-27789D01*
Y84928D01*
X-27375Y84982D01*
X-26524Y85335D01*
X-25793Y85896D01*
X-25232Y86627D01*
X-24879Y87478D01*
X-24825Y87892D01*
D02*
G37*
G36*
X145000Y87466D02*
X144069Y87375D01*
X142693Y86957D01*
X141425Y86279D01*
X140314Y85367D01*
X139402Y84256D01*
X138724Y82988D01*
X138306Y81612D01*
X138215Y80681D01*
X145000D01*
Y87466D01*
D02*
G37*
G36*
X146000D02*
Y80681D01*
X152785D01*
X152694Y81612D01*
X152276Y82988D01*
X151598Y84256D01*
X150686Y85367D01*
X149575Y86279D01*
X148307Y86957D01*
X146931Y87375D01*
X146000Y87466D01*
D02*
G37*
G36*
X-28789Y87892D02*
X-31753D01*
X-31699Y87478D01*
X-31346Y86627D01*
X-30785Y85896D01*
X-30054Y85335D01*
X-29203Y84982D01*
X-28789Y84928D01*
Y87892D01*
D02*
G37*
G36*
X41109Y72171D02*
Y69207D01*
X44073D01*
X44019Y69621D01*
X43666Y70472D01*
X43105Y71203D01*
X42374Y71764D01*
X41522Y72117D01*
X41109Y72171D01*
D02*
G37*
G36*
X-70006Y71000D02*
X-78500D01*
Y62506D01*
X-77236Y62630D01*
X-75539Y63145D01*
X-73976Y63981D01*
X-72605Y65105D01*
X-71481Y66476D01*
X-70645Y68039D01*
X-70130Y69736D01*
X-70006Y71000D01*
D02*
G37*
G36*
X-38631Y68207D02*
X-41596D01*
X-41541Y67793D01*
X-41189Y66942D01*
X-40628Y66211D01*
X-39897Y65650D01*
X-39045Y65297D01*
X-38631Y65243D01*
Y68207D01*
D02*
G37*
G36*
X-14982D02*
X-17946D01*
Y65243D01*
X-17533Y65297D01*
X-16681Y65650D01*
X-15950Y66211D01*
X-15389Y66942D01*
X-15036Y67793D01*
X-14982Y68207D01*
D02*
G37*
G36*
X-79500Y71000D02*
X-87994D01*
X-87870Y69736D01*
X-87355Y68039D01*
X-86519Y66476D01*
X-85395Y65105D01*
X-84024Y63981D01*
X-82461Y63145D01*
X-80764Y62630D01*
X-79500Y62506D01*
Y71000D01*
D02*
G37*
G36*
X129691Y52486D02*
Y49522D01*
X132656D01*
X132601Y49936D01*
X132249Y50787D01*
X131688Y51518D01*
X130956Y52079D01*
X130105Y52432D01*
X129691Y52486D01*
D02*
G37*
G36*
X148376D02*
X147963Y52432D01*
X147111Y52079D01*
X146380Y51518D01*
X145819Y50787D01*
X145466Y49936D01*
X145412Y49522D01*
X148376D01*
Y52486D01*
D02*
G37*
G36*
X149376D02*
Y49522D01*
X152341D01*
X152286Y49936D01*
X151934Y50787D01*
X151373Y51518D01*
X150642Y52079D01*
X149790Y52432D01*
X149376Y52486D01*
D02*
G37*
G36*
X-38631Y72171D02*
X-39045Y72117D01*
X-39897Y71764D01*
X-40628Y71203D01*
X-41189Y70472D01*
X-41541Y69621D01*
X-41596Y69207D01*
X-38631D01*
Y72171D01*
D02*
G37*
G36*
X-17946D02*
Y69207D01*
X-14982D01*
X-15036Y69621D01*
X-15389Y70472D01*
X-15950Y71203D01*
X-16681Y71764D01*
X-17533Y72117D01*
X-17946Y72171D01*
D02*
G37*
G36*
X40109D02*
X39695Y72117D01*
X38844Y71764D01*
X38113Y71203D01*
X37551Y70472D01*
X37199Y69621D01*
X37144Y69207D01*
X40109D01*
Y72171D01*
D02*
G37*
G36*
X122813Y68207D02*
X119849D01*
Y65243D01*
X120263Y65297D01*
X121114Y65650D01*
X121845Y66211D01*
X122406Y66942D01*
X122759Y67793D01*
X122813Y68207D01*
D02*
G37*
G36*
X40109D02*
X37144D01*
X37199Y67793D01*
X37551Y66942D01*
X38113Y66211D01*
X38844Y65650D01*
X39695Y65297D01*
X40109Y65243D01*
Y68207D01*
D02*
G37*
G36*
X44073D02*
X41109D01*
Y65243D01*
X41522Y65297D01*
X42374Y65650D01*
X43105Y66211D01*
X43666Y66942D01*
X44019Y67793D01*
X44073Y68207D01*
D02*
G37*
G36*
X118849D02*
X115884D01*
X115939Y67793D01*
X116292Y66942D01*
X116853Y66211D01*
X117584Y65650D01*
X118435Y65297D01*
X118849Y65243D01*
Y68207D01*
D02*
G37*
G36*
X14546Y87892D02*
X11581D01*
Y84928D01*
X11995Y84982D01*
X12846Y85335D01*
X13577Y85896D01*
X14138Y86627D01*
X14491Y87478D01*
X14546Y87892D01*
D02*
G37*
G36*
X70636Y91856D02*
Y88892D01*
X73601D01*
X73546Y89306D01*
X73194Y90157D01*
X72632Y90888D01*
X71901Y91449D01*
X71050Y91802D01*
X70636Y91856D01*
D02*
G37*
G36*
X89321D02*
X88908Y91802D01*
X88056Y91449D01*
X87325Y90888D01*
X86764Y90157D01*
X86411Y89306D01*
X86357Y88892D01*
X89321D01*
Y91856D01*
D02*
G37*
G36*
X90321D02*
Y88892D01*
X93286D01*
X93231Y89306D01*
X92879Y90157D01*
X92317Y90888D01*
X91586Y91449D01*
X90735Y91802D01*
X90321Y91856D01*
D02*
G37*
G36*
X69636D02*
X69223Y91802D01*
X68371Y91449D01*
X67640Y90888D01*
X67079Y90157D01*
X66726Y89306D01*
X66672Y88892D01*
X69636D01*
Y91856D01*
D02*
G37*
G36*
X11581D02*
Y88892D01*
X14546D01*
X14491Y89306D01*
X14138Y90157D01*
X13577Y90888D01*
X12846Y91449D01*
X11995Y91802D01*
X11581Y91856D01*
D02*
G37*
G36*
X49951D02*
X49538Y91802D01*
X48686Y91449D01*
X47955Y90888D01*
X47394Y90157D01*
X47041Y89306D01*
X46987Y88892D01*
X49951D01*
Y91856D01*
D02*
G37*
G36*
X50951D02*
Y88892D01*
X53916D01*
X53861Y89306D01*
X53508Y90157D01*
X52947Y90888D01*
X52216Y91449D01*
X51365Y91802D01*
X50951Y91856D01*
D02*
G37*
G36*
X-118500Y101890D02*
X-119354Y101806D01*
X-120655Y101411D01*
X-121855Y100769D01*
X-122907Y99907D01*
X-123769Y98855D01*
X-124411Y97655D01*
X-124806Y96354D01*
X-124890Y95500D01*
X-118500D01*
Y101890D01*
D02*
G37*
G36*
X-117500D02*
Y95500D01*
X-111110D01*
X-111194Y96354D01*
X-111589Y97655D01*
X-112231Y98855D01*
X-113093Y99907D01*
X-114145Y100769D01*
X-115345Y101411D01*
X-116646Y101806D01*
X-117500Y101890D01*
D02*
G37*
G36*
X-38631Y107577D02*
X-41596D01*
X-41541Y107163D01*
X-41189Y106312D01*
X-40628Y105581D01*
X-39897Y105020D01*
X-39045Y104667D01*
X-38631Y104613D01*
Y107577D01*
D02*
G37*
G36*
X129691Y91856D02*
Y88892D01*
X132656D01*
X132601Y89306D01*
X132249Y90157D01*
X131688Y90888D01*
X130956Y91449D01*
X130105Y91802D01*
X129691Y91856D01*
D02*
G37*
G36*
X109006D02*
X108593Y91802D01*
X107741Y91449D01*
X107010Y90888D01*
X106449Y90157D01*
X106096Y89306D01*
X106042Y88892D01*
X109006D01*
Y91856D01*
D02*
G37*
G36*
X110006D02*
Y88892D01*
X112971D01*
X112916Y89306D01*
X112564Y90157D01*
X112003Y90888D01*
X111271Y91449D01*
X110420Y91802D01*
X110006Y91856D01*
D02*
G37*
G36*
X128691D02*
X128278Y91802D01*
X127426Y91449D01*
X126695Y90888D01*
X126134Y90157D01*
X125781Y89306D01*
X125727Y88892D01*
X128691D01*
Y91856D01*
D02*
G37*
G36*
X10581D02*
X10167Y91802D01*
X9316Y91449D01*
X8585Y90888D01*
X8024Y90157D01*
X7671Y89306D01*
X7617Y88892D01*
X10581D01*
Y91856D01*
D02*
G37*
G36*
X89321Y87892D02*
X86357D01*
X86411Y87478D01*
X86764Y86627D01*
X87325Y85896D01*
X88056Y85335D01*
X88908Y84982D01*
X89321Y84928D01*
Y87892D01*
D02*
G37*
G36*
X93286D02*
X90321D01*
Y84928D01*
X90735Y84982D01*
X91586Y85335D01*
X92317Y85896D01*
X92879Y86627D01*
X93231Y87478D01*
X93286Y87892D01*
D02*
G37*
G36*
X109006D02*
X106042D01*
X106096Y87478D01*
X106449Y86627D01*
X107010Y85896D01*
X107741Y85335D01*
X108593Y84982D01*
X109006Y84928D01*
Y87892D01*
D02*
G37*
G36*
X73601D02*
X70636D01*
Y84928D01*
X71050Y84982D01*
X71901Y85335D01*
X72632Y85896D01*
X73194Y86627D01*
X73546Y87478D01*
X73601Y87892D01*
D02*
G37*
G36*
X49951D02*
X46987D01*
X47041Y87478D01*
X47394Y86627D01*
X47955Y85896D01*
X48686Y85335D01*
X49538Y84982D01*
X49951Y84928D01*
Y87892D01*
D02*
G37*
G36*
X53916D02*
X50951D01*
Y84928D01*
X51365Y84982D01*
X52216Y85335D01*
X52947Y85896D01*
X53508Y86627D01*
X53861Y87478D01*
X53916Y87892D01*
D02*
G37*
G36*
X69636D02*
X66672D01*
X66726Y87478D01*
X67079Y86627D01*
X67640Y85896D01*
X68371Y85335D01*
X69223Y84982D01*
X69636Y84928D01*
Y87892D01*
D02*
G37*
G36*
X-27789Y91856D02*
Y88892D01*
X-24825D01*
X-24879Y89306D01*
X-25232Y90157D01*
X-25793Y90888D01*
X-26524Y91449D01*
X-27375Y91802D01*
X-27789Y91856D01*
D02*
G37*
G36*
X-9104D02*
X-9518Y91802D01*
X-10369Y91449D01*
X-11100Y90888D01*
X-11661Y90157D01*
X-12014Y89306D01*
X-12068Y88892D01*
X-9104D01*
Y91856D01*
D02*
G37*
G36*
X-8104D02*
Y88892D01*
X-5139D01*
X-5194Y89306D01*
X-5547Y90157D01*
X-6108Y90888D01*
X-6839Y91449D01*
X-7690Y91802D01*
X-8104Y91856D01*
D02*
G37*
G36*
X-28789D02*
X-29203Y91802D01*
X-30054Y91449D01*
X-30785Y90888D01*
X-31346Y90157D01*
X-31699Y89306D01*
X-31753Y88892D01*
X-28789D01*
Y91856D01*
D02*
G37*
G36*
X112971Y87892D02*
X110006D01*
Y84928D01*
X110420Y84982D01*
X111271Y85335D01*
X112003Y85896D01*
X112564Y86627D01*
X112916Y87478D01*
X112971Y87892D01*
D02*
G37*
G36*
X128691D02*
X125727D01*
X125781Y87478D01*
X126134Y86627D01*
X126695Y85896D01*
X127426Y85335D01*
X128278Y84982D01*
X128691Y84928D01*
Y87892D01*
D02*
G37*
G36*
X132656D02*
X129691D01*
Y84928D01*
X130105Y84982D01*
X130956Y85335D01*
X131688Y85896D01*
X132249Y86627D01*
X132601Y87478D01*
X132656Y87892D01*
D02*
G37*
%LPD*%
D32*
X38000Y4500D02*
X52500Y19000D01*
X38000Y-19500D02*
Y4500D01*
X63000Y-36500D02*
X65500Y-34000D01*
X63500Y-21500D02*
X81500D01*
X53000Y-18500D02*
X60500Y-11000D01*
X47500Y-18500D02*
X53000D01*
X63500Y-21500D02*
X65500Y-23500D01*
Y-34000D02*
Y-23500D01*
X101717Y-103783D02*
X154717D01*
X102000Y-96500D02*
X154500D01*
X101717Y-104283D02*
Y-103783D01*
Y-104283D02*
X102000Y-104567D01*
X64500Y14413D02*
Y15500D01*
Y14413D02*
X68181Y10732D01*
Y7268D02*
Y10732D01*
X65732Y4819D02*
X68181Y7268D01*
X62319Y4819D02*
X65732D01*
X60500Y3000D02*
X62319Y4819D01*
X60500Y-11000D02*
Y3000D01*
X26819Y38500D02*
X27500D01*
D33*
X73679Y-6679D02*
X149200D01*
X68000Y-1000D02*
X73679Y-6679D01*
X17500Y0D02*
X31500Y14000D01*
X17500Y-14500D02*
Y0D01*
X153521Y-11000D02*
X154500D01*
X149200Y-6679D02*
X153521Y-11000D01*
X155000Y-10500D02*
Y-9500D01*
X154500Y-11000D02*
X155000Y-10500D01*
X68000Y-1000D02*
Y500D01*
X68016Y483D01*
X75500Y1500D02*
X154500D01*
X74500Y500D02*
X75500Y1500D01*
D34*
X31000Y-47000D02*
Y-37000D01*
X33299Y-49299D02*
X49701D01*
X31000Y-47000D02*
X33299Y-49299D01*
X109000Y-64500D02*
X116500Y-57000D01*
X124000Y-88500D02*
Y-56000D01*
X116000Y-48000D02*
X124000Y-56000D01*
X112000Y-48000D02*
X116000D01*
X109000Y-88500D02*
Y-64500D01*
X26000Y-32000D02*
Y500D01*
Y-32000D02*
X31000Y-37000D01*
X49701Y-49299D02*
X50500Y-48500D01*
Y-48000D01*
D35*
X64000Y67000D02*
Y70000D01*
Y29000D02*
Y67000D01*
X52000D02*
X64000D01*
X35655Y76000D02*
X58000D01*
X64000Y70000D01*
X9441Y49786D02*
X35655Y76000D01*
X9441Y-5441D02*
Y49786D01*
X10500Y-66000D02*
X58000D01*
X3500Y-59000D02*
Y-54000D01*
Y-59000D02*
X10500Y-66000D01*
X2500Y-55000D02*
X3500Y-54000D01*
X-25970Y-55000D02*
X2500D01*
X3500Y-54000D02*
Y10000D01*
X25500Y-60500D02*
Y-43500D01*
Y-41500D01*
X9441Y-25441D02*
X25500Y-41500D01*
X9441Y-25441D02*
Y-5441D01*
X64500Y28000D02*
X65000D01*
X64000Y29000D02*
X65000Y28000D01*
D36*
X74756Y-102244D02*
X80500Y-96500D01*
X-25970Y-102244D02*
X74756D01*
X5898Y38898D02*
Y53398D01*
X15000Y62500D01*
X-74000Y-34000D02*
Y4554D01*
X500Y42500D02*
Y63500D01*
X15000Y78000D01*
X-22000Y35500D02*
X2500D01*
X-28053Y29447D02*
X-22000Y35500D01*
X-28053Y11607D02*
Y29447D01*
X2500Y35500D02*
X5898Y38898D01*
D37*
X-87500Y20000D02*
X-79000Y11500D01*
X-119000Y-86000D02*
X-49000D01*
X-41622Y-78622D02*
X-21622D01*
X-49000Y-86000D02*
X-41622Y-78622D01*
X-108000Y-55000D02*
X-74000D01*
X-119000Y-66000D02*
X-108000Y-55000D01*
X-153000Y-4500D02*
Y42500D01*
D38*
X-21622Y-78622D02*
X-18096D01*
D39*
X-118500Y20000D02*
X-87500D01*
X-137500Y-20000D02*
X-118500D01*
X-140500Y55000D02*
X-118000D01*
X-153000Y-4500D02*
X-137500Y-20000D01*
X-153000Y42500D02*
X-140500Y55000D01*
D41*
X60000Y13000D02*
X64000Y9000D01*
X60000Y13000D02*
Y32000D01*
X37000Y55000D02*
X60000Y32000D01*
X26500Y55000D02*
X37000D01*
D42*
X-380484Y-674254D02*
X-379734Y-672754D01*
X-378235Y-671255D01*
X-376735Y-670505D01*
X-373736D01*
X-372237Y-671255D01*
X-370737Y-672754D01*
X-369988Y-674254D01*
X-369238Y-676503D01*
Y-680252D01*
X-369988Y-682501D01*
X-370737Y-684001D01*
X-372237Y-685500D01*
X-373736Y-686250D01*
X-376735D01*
X-378235Y-685500D01*
X-379734Y-684001D01*
X-380484Y-682501D01*
X-384908Y-670505D02*
Y-681751D01*
X-385657Y-684001D01*
X-387157Y-685500D01*
X-389406Y-686250D01*
X-390905D01*
X-393155Y-685500D01*
X-394654Y-684001D01*
X-395404Y-681751D01*
Y-670505D01*
X-399752D02*
Y-686250D01*
X-403051Y-670505D02*
X-409049Y-686250D01*
X-415047Y-670505D02*
X-409049Y-686250D01*
X-417072Y-670505D02*
Y-686250D01*
Y-670505D02*
X-423819D01*
X-426068Y-671255D01*
X-426818Y-672005D01*
X-427568Y-673504D01*
Y-675004D01*
X-426818Y-676503D01*
X-426068Y-677253D01*
X-423819Y-678003D01*
X-417072D01*
X-422320D02*
X-427568Y-686250D01*
X-440838Y-670505D02*
X-431092D01*
Y-686250D01*
X-440838D01*
X-431092Y-678003D02*
X-437090D01*
X-455833Y-670505D02*
Y-686250D01*
Y-670505D02*
X-462581D01*
X-464830Y-671255D01*
X-465580Y-672005D01*
X-466330Y-673504D01*
Y-675004D01*
X-465580Y-676503D01*
X-464830Y-677253D01*
X-462581Y-678003D01*
X-455833D02*
X-462581D01*
X-464830Y-678752D01*
X-465580Y-679502D01*
X-466330Y-681002D01*
Y-683251D01*
X-465580Y-684750D01*
X-464830Y-685500D01*
X-462581Y-686250D01*
X-455833D01*
X-474352Y-670505D02*
X-472853Y-671255D01*
X-471353Y-672754D01*
X-470603Y-674254D01*
X-469854Y-676503D01*
Y-680252D01*
X-470603Y-682501D01*
X-471353Y-684001D01*
X-472853Y-685500D01*
X-474352Y-686250D01*
X-477351D01*
X-478851Y-685500D01*
X-480350Y-684001D01*
X-481100Y-682501D01*
X-481850Y-680252D01*
Y-676503D01*
X-481100Y-674254D01*
X-480350Y-672754D01*
X-478851Y-671255D01*
X-477351Y-670505D01*
X-474352D01*
X-490771D02*
Y-686250D01*
X-485523Y-670505D02*
X-496020D01*
X-503142D02*
Y-686250D01*
X-497894Y-670505D02*
X-508391D01*
X-514763D02*
X-513264Y-671255D01*
X-511764Y-672754D01*
X-511015Y-674254D01*
X-510265Y-676503D01*
Y-680252D01*
X-511015Y-682501D01*
X-511764Y-684001D01*
X-513264Y-685500D01*
X-514763Y-686250D01*
X-517762D01*
X-519262Y-685500D01*
X-520761Y-684001D01*
X-521511Y-682501D01*
X-522261Y-680252D01*
Y-676503D01*
X-521511Y-674254D01*
X-520761Y-672754D01*
X-519262Y-671255D01*
X-517762Y-670505D01*
X-514763D01*
X-525935D02*
Y-686250D01*
Y-670505D02*
X-531933Y-686250D01*
X-537930Y-670505D02*
X-531933Y-686250D01*
X-537930Y-670505D02*
Y-686250D01*
D43*
X-118000Y95000D02*
X-97000D01*
D44*
X-79000Y71500D02*
Y77000D01*
X-97000Y95000D02*
X-79000Y77000D01*
D45*
X146000Y-19000D02*
D03*
Y-80181D02*
D03*
X145500Y19000D02*
D03*
Y80181D02*
D03*
D46*
X-79000Y71500D02*
D03*
Y11500D02*
D03*
D47*
X-28053Y71393D02*
D03*
X-57947Y41500D02*
D03*
X-28053Y11607D02*
D03*
D48*
X-118500Y20000D02*
D03*
Y0D02*
D03*
Y-20000D02*
D03*
X-118000Y55000D02*
D03*
Y75000D02*
D03*
Y95000D02*
D03*
X-119000Y-66000D02*
D03*
Y-86000D02*
D03*
D49*
X57500Y-30500D02*
D03*
X37500D02*
D03*
X57500Y-43000D02*
D03*
X37500D02*
D03*
D50*
X47500D02*
D03*
X43500Y-23000D02*
D03*
X51500D02*
D03*
D51*
X-151575Y133858D02*
D03*
X151575D02*
D03*
Y-133858D02*
D03*
X-151575D02*
D03*
D52*
X-25970Y-102244D02*
D03*
X-74000D02*
D03*
X-25970Y-55000D02*
D03*
X-74000D02*
D03*
X-18096Y-78622D02*
D03*
D53*
X81500Y-21500D02*
D03*
X47500Y-18500D02*
D03*
X63500Y-21500D02*
D03*
X148876Y49022D02*
D03*
Y-29718D02*
D03*
X139034Y-49403D02*
D03*
X148876Y-69088D02*
D03*
Y-108458D02*
D03*
X139034Y-128144D02*
D03*
X129191Y127762D02*
D03*
Y88392D02*
D03*
X119349Y68707D02*
D03*
X129191Y49022D02*
D03*
X119349Y-128144D02*
D03*
X109506Y127762D02*
D03*
X99664Y108077D02*
D03*
X109506Y88392D02*
D03*
X99664Y-88773D02*
D03*
Y-128144D02*
D03*
X89821Y127762D02*
D03*
X79979Y108077D02*
D03*
X89821Y88392D02*
D03*
X79979Y-88773D02*
D03*
Y-128144D02*
D03*
X70136Y127762D02*
D03*
Y88392D02*
D03*
X60294Y-88773D02*
D03*
Y-128144D02*
D03*
X50451Y127762D02*
D03*
Y88392D02*
D03*
X40609Y68707D02*
D03*
X50451Y49022D02*
D03*
X40609Y-128144D02*
D03*
X30766Y127762D02*
D03*
X20924Y108077D02*
D03*
Y-128144D02*
D03*
X11081Y127762D02*
D03*
X1239Y108077D02*
D03*
X11081Y88392D02*
D03*
X1239Y-128144D02*
D03*
X-8604Y127762D02*
D03*
X-18446Y108077D02*
D03*
X-8604Y88392D02*
D03*
X-18446Y68707D02*
D03*
Y29337D02*
D03*
X-8604Y9652D02*
D03*
X-28289Y127762D02*
D03*
X-38131Y108077D02*
D03*
X-28289Y88392D02*
D03*
X-38131Y68707D02*
D03*
X-28289Y49022D02*
D03*
X-38131Y29337D02*
D03*
X116500Y-57000D02*
D03*
X109000Y-88500D02*
D03*
X112000Y-48000D02*
D03*
X124000Y-88500D02*
D03*
X155000Y-9500D02*
D03*
X154500Y1500D02*
D03*
X-74000Y-34000D02*
D03*
X154500Y-96500D02*
D03*
X154717Y-103783D02*
D03*
X102000Y-96500D02*
D03*
Y-104567D02*
D03*
X15000Y78000D02*
D03*
Y62500D02*
D03*
X58000Y-66000D02*
D03*
X38000Y-19500D02*
D03*
X25500Y-60500D02*
D03*
Y-43500D02*
D03*
X52000Y67000D02*
D03*
X500Y42500D02*
D03*
X9441Y-5441D02*
D03*
X80500Y-96500D02*
D03*
X31500Y14000D02*
D03*
X52500Y19000D02*
D03*
X64500Y28000D02*
D03*
X64000Y9000D02*
D03*
X64500Y15500D02*
D03*
X68016Y483D02*
D03*
X26500Y55000D02*
D03*
X17500Y-14500D02*
D03*
X3500Y10000D02*
D03*
X26000Y500D02*
D03*
X13000Y-51500D02*
D03*
X48500Y-74000D02*
D03*
X47000Y-4000D02*
D03*
X27500Y38500D02*
D03*
X50500Y-48000D02*
D03*
X74500Y500D02*
D03*
D54*
X-118000Y21500D02*
D03*
D55*
X-115446Y13841D02*
D03*
D56*
X-81500Y13500D02*
D03*
D57*
X-111500Y96500D02*
D03*
D58*
X-119403Y54597D02*
D03*
D59*
X-119000Y-20445D02*
D03*
M02*
